<?xml version="1.0" encoding="utf-8"?>
<!-- Generator: Adobe Illustrator 27.8.1, SVG Export Plug-In . SVG Version: 6.00 Build 0)  -->
<svg version="1.1" id="Layer_1" xmlns="http://www.w3.org/2000/svg" xmlns:xlink="http://www.w3.org/1999/xlink" x="0px" y="0px"
	 viewBox="0 0 620.2 463.6" style="enable-background:new 0 0 620.2 463.6;" xml:space="preserve">
<style type="text/css">
	.st0{fill:url(#SVGID_1_);}
	.st1{fill:url(#SVGID_00000025411870254022419540000001050277677175915139_);}
	.st2{fill:#6D8C8A;}
	.st3{fill:#FFFFFF;}
	.st4{fill:url(#SVGID_00000093866285558224490460000012482861670563705526_);}
	.st5{fill:url(#SVGID_00000148635318745196921250000017718346269529159317_);}
	.st6{fill:#E1E4E5;}
	.st7{fill:none;stroke:#E1E4E5;stroke-width:2.961;stroke-linecap:round;stroke-linejoin:round;}
	.st8{fill:url(#SVGID_00000106830534603940490700000008577736996073670067_);}
	.st9{fill:url(#SVGID_00000181766803708627961330000002845347562820915594_);}
	.st10{fill:url(#SVGID_00000036236208908070526340000003139102629890670247_);}
	.st11{fill:none;}
	.st12{fill:#F8AE9D;}
	.st13{fill:#23443B;}
	.st14{fill:#CC6144;}
	.st15{fill:#FFFFFF;stroke:#E1E4E5;stroke-width:2.5135;}
	.st16{fill-rule:evenodd;clip-rule:evenodd;fill:#FFFFFF;}
	.st17{fill:url(#SVGID_00000107551519754481539640000013055469688785051532_);}
	.st18{fill:url(#SVGID_00000178904042081808321690000011287678559628464001_);}
	.st19{fill:url(#SVGID_00000160908649932839430690000013119781447996503963_);}
	.st20{fill:#FFFFFF;filter:url(#Adobe_OpacityMaskFilter);}
	.st21{mask:url(#a_00000158005664807144497710000012810765801847242428_);fill:none;stroke:#E1E4E5;stroke-width:2.2321;}
	.st22{fill:#31446C;}
	.st23{fill:none;stroke:#E1E4E5;stroke-width:2.2321;stroke-linecap:round;stroke-linejoin:round;}
	.st24{fill:url(#SVGID_00000046312971146407078640000012552602862936835256_);}
	.st25{fill:url(#SVGID_00000103261074641689455210000005181801901574263443_);}
	.st26{fill:url(#SVGID_00000037682909177852865560000004085272866083697048_);}
	.st27{fill-rule:evenodd;clip-rule:evenodd;fill:#FFFFFF;stroke:#E1E4E5;stroke-width:2.3281;}
	.st28{fill:none;stroke:#E1E4E5;stroke-width:2.3281;stroke-linecap:round;stroke-linejoin:round;}
	.st29{fill-rule:evenodd;clip-rule:evenodd;fill:#6D8C8A;stroke:#6D8C8A;stroke-width:31.4287;stroke-miterlimit:10;}
	.st30{fill:none;stroke:#FFFFFF;stroke-width:28.0775;stroke-linecap:round;stroke-linejoin:round;}
	.st31{fill:url(#SVGID_00000130632195433161221400000007911417434798600331_);}
	.st32{fill:url(#SVGID_00000043453572887310604620000017866097739237274520_);}
	.st33{fill:url(#SVGID_00000118385934576134877230000017415344129774301083_);}
	.st34{fill:url(#SVGID_00000093884311966244948170000003722853268282207885_);}
	.st35{fill:url(#SVGID_00000126296774765028640240000017345893011821862049_);}
	.st36{fill:url(#SVGID_00000179643361261307285830000015544112635089146289_);}
	.st37{fill:none;stroke:#E1E4E5;stroke-width:7.548;stroke-linecap:round;stroke-linejoin:round;}
	.st38{fill:none;stroke:#E1E4E5;stroke-width:5.612;stroke-miterlimit:10;}
	.st39{fill:#6D8C8A;stroke:#6D8C8A;stroke-width:18;stroke-linecap:round;stroke-linejoin:round;stroke-miterlimit:10;}
</style>
<path class="st11" d="M-151.4-77h900v600h-900V-77z"/>
<path class="st12" d="M474.9,454.4H360.9l-9.5-25.5c-3.4-9-10.2-16.3-19-20.2c-8.3-3.7-19.4-10.5-30.2-22.6
	c-21-23.5-32.1-48.8-32.1-48.8l70.7-0.3c0,0-6.4-39.5,28.8-92c3.8-5.6,5.5-12.4,4.9-19.1l-3.3-38.3c0,0-23.9-26.7-9.2-59.7
	c0,0,14-19.4,19.6-12.3c0,0,42.3,100.7,46.2,115.7s9,24.4,3.9,71.4c-1.4,12.5-1.8,22.8-1.8,31.4c0,16.4,3.7,32.6,10.7,47.4
	L474.9,454.4z"/>
<path class="st22" d="M200.4,171.7c-1.5-0.5-2.9-1-4.4-1.6l0.4-1.1c1.4,0.5,2.9,1.1,4.3,1.6L200.4,171.7L200.4,171.7z"/>
<path class="st12" d="M206.2,63.1c0,0-21.9-14.6-26.9-5c-5,9.6,28.4,43.7,28.4,43.7L206.2,63.1z M206.2,127.3c0,0-21.9-14.6-26.9-5
	c-5,9.6,28.4,43.7,28.4,43.7L206.2,127.3z M206.2,170.7c0,0-21.9-14.6-26.9-5c-5,9.6,28.4,43.7,28.4,43.7L206.2,170.7z"/>
<path class="st22" d="M223.1,30.4h132.6c9.9,0,17.9,8,17.9,17.9v270.9c0,10-8.1,17.9-17.9,17.9H223.1c-9.9,0-17.9-8-17.9-17.9V48.3
	C205.2,38.3,213.3,30.4,223.1,30.4z"/>
<path class="st3" d="M213.7,54.9h151v252.2h-151V54.9z M258.2,46.6h62.1c0.7,0,1.3-0.6,1.3-1.3v-0.6c0-0.7-0.6-1.3-1.3-1.3h-62.1
	c-0.7,0-1.3,0.6-1.3,1.3v0.6C256.9,46,257.5,46.6,258.2,46.6z"/>
<path class="st12" d="M376.6,210.7c0,0-0.9,3.4-3,5.1l-2.4-28.1c0,0-17.6-19.6-13.3-46.1c1.5-9.1,6-17.4,12.9-23.4
	c3.9-3.5,8.3-5.8,10.8-2.5c0,0,19.9,47.3,33.6,81.9L376.6,210.7L376.6,210.7z"/>
<path class="st3" d="M283.3,321.5c0,3.5,2.8,6.3,6.3,6.3s6.3-2.8,6.3-6.3s-2.8-6.3-6.3-6.3S283.3,318,283.3,321.5L283.3,321.5z"/>
<linearGradient id="SVGID_1_" gradientUnits="userSpaceOnUse" x1="88.7546" y1="-1114.0649" x2="85.6976" y2="-851.5189" gradientTransform="matrix(1 0 0 -1 0 -664.967)">
	<stop  offset="0" style="stop-color:#FFFFFF"/>
	<stop  offset="1" style="stop-color:#EEEEEE"/>
</linearGradient>
<path class="st0" d="M55.8,294.4h63.4c9.9,0,17.9,8,17.9,17.9v63.4c0,9.9-8,17.9-17.9,17.9H55.8c-9.9,0-17.9-8-17.9-17.9v-63.4
	C38,302.4,46,294.4,55.8,294.4z"/>
<linearGradient id="SVGID_00000064336562505661603530000004885875870455752320_" gradientUnits="userSpaceOnUse" x1="549.1349" y1="-1123.4276" x2="545.5629" y2="-816.6636" gradientTransform="matrix(1 0 0 -1 0 -664.967)">
	<stop  offset="0" style="stop-color:#FFFFFF"/>
	<stop  offset="1" style="stop-color:#EEEEEE"/>
</linearGradient>
<path style="fill:url(#SVGID_00000064336562505661603530000004885875870455752320_);" d="M510.7,277.7h74.1
	c11.5,0,20.9,9.3,20.9,20.9v74.1c0,11.5-9.3,20.9-20.9,20.9h-74.1c-11.5,0-20.9-9.3-20.9-20.9v-74.1
	C489.8,287,499.1,277.7,510.7,277.7z"/>
<linearGradient id="SVGID_00000012471671425490153740000013542643274415374224_" gradientUnits="userSpaceOnUse" x1="498.4803" y1="-904.6368" x2="496.3242" y2="-719.4739" gradientTransform="matrix(1 0 0 -1 0 -664.967)">
	<stop  offset="0" style="stop-color:#FFFFFF"/>
	<stop  offset="1" style="stop-color:#EEEEEE"/>
</linearGradient>
<path style="fill:url(#SVGID_00000012471671425490153740000013542643274415374224_);" d="M483.5,130.6h28.2
	c11.5,0,20.9,9.3,20.9,20.9v28.2c0,11.5-9.3,20.9-20.9,20.9h-28.2c-11.5,0-20.9-9.3-20.9-20.9v-28.2
	C462.7,139.9,472,130.6,483.5,130.6z"/>
<linearGradient id="SVGID_00000074413316991719462380000015316446669468920717_" gradientUnits="userSpaceOnUse" x1="199.0535" y1="-1160.5433" x2="196.7695" y2="-964.3253" gradientTransform="matrix(1 0 0 -1 0 -664.967)">
	<stop  offset="0" style="stop-color:#FFFFFF"/>
	<stop  offset="1" style="stop-color:#EEEEEE"/>
</linearGradient>
<path style="fill:url(#SVGID_00000074413316991719462380000015316446669468920717_);" d="M183.2,379.9h29.9
	c12.2,0,22.1,9.9,22.1,22.1v29.9c0,12.2-9.9,22.1-22.1,22.1h-29.9c-12.2,0-22.1-9.9-22.1-22.1v-29.9
	C161.1,389.8,171,379.9,183.2,379.9z"/>
<linearGradient id="SVGID_00000002385631245849532980000010697935731030272388_" gradientUnits="userSpaceOnUse" x1="455.6982" y1="-794.0289" x2="453.5422" y2="-608.8649" gradientTransform="matrix(1 0 0 -1 0 -664.967)">
	<stop  offset="0" style="stop-color:#FFFFFF"/>
	<stop  offset="1" style="stop-color:#EEEEEE"/>
</linearGradient>
<path style="fill:url(#SVGID_00000002385631245849532980000010697935731030272388_);" d="M440.7,19.9h28.2
	c11.5,0,20.9,9.3,20.9,20.9V69c0,11.5-9.3,20.9-20.9,20.9h-28.2c-11.5,0-20.9-9.3-20.9-20.9V40.8C419.9,29.3,429.2,19.9,440.7,19.9z
	"/>
<linearGradient id="SVGID_00000041275560455143855940000003570831578998468768_" gradientUnits="userSpaceOnUse" x1="73.9915" y1="-922.3476" x2="71.3205" y2="-692.9656" gradientTransform="matrix(1 0 0 -1 0 -664.967)">
	<stop  offset="0" style="stop-color:#FFFFFF"/>
	<stop  offset="1" style="stop-color:#EEEEEE"/>
</linearGradient>
<path style="fill:url(#SVGID_00000041275560455143855940000003570831578998468768_);" d="M50.5,122.2h44.9
	c11.5,0,20.9,9.3,20.9,20.9v44.9c0,11.5-9.3,20.9-20.9,20.9H50.5c-11.5,0-20.9-9.3-20.9-20.9v-44.9C29.6,131.5,39,122.2,50.5,122.2z
	"/>
<path class="st6" d="M468.5,47.6l-23.2,23.2c-0.8,0.8-2.2,0.8-3.1,0l0,0c-0.8-0.8-0.8-2.2,0-3.1l23.2-23.2c0.8-0.8,2.2-0.8,3.1,0
	l0,0C469.3,45.4,469.3,46.7,468.5,47.6z"/>
<path class="st6" d="M454.3,47.5l-6.7,6.7c-0.8,0.8-2.2,0.8-3.1,0l0,0c-0.8-0.8-0.8-2.2,0-3.1l6.7-6.7c0.8-0.8,2.2-0.8,3.1,0l0,0
	C455.1,45.3,455.1,46.6,454.3,47.5z"/>
<path class="st6" d="M530.5,345.6l31.4-31.4c1.1-1.1,3-1.1,4.1,0l0,0c1.1,1.1,1.1,3,0,4.1l-31.4,31.4c-1.1,1.1-3,1.1-4.1,0l0,0
	C529.3,348.6,529.3,346.7,530.5,345.6z"/>
<path class="st6" d="M549.7,345.7l9.1-9.1c1.1-1.1,3-1.1,4.1,0l0,0c1.1,1.1,1.1,3,0,4.1l-9.1,9.1c-1.1,1.1-3,1.1-4.1,0l0,0
	C548.6,348.7,548.6,346.9,549.7,345.7z"/>
<path class="st37" d="M554,242.8l-21.4,0.5l0.5-21.4l21.4-0.5L554,242.8L554,242.8z"/>
<circle class="st6" cx="511.2" cy="99.8" r="6.8"/>
<path class="st6" d="M110.4,76.6L88.2,98.8c-0.8,0.8-2.1,0.8-2.9,0l0,0c-0.8-0.8-0.8-2.1,0-2.9l22.2-22.2c0.8-0.8,2.1-0.8,2.9,0l0,0
	C111.2,74.5,111.2,75.8,110.4,76.6z"/>
<path class="st6" d="M96.8,76.5l-6.4,6.4c-0.8,0.8-2.1,0.8-2.9,0l0,0c-0.8-0.8-0.8-2.1,0-2.9l6.4-6.4c0.8-0.8,2.1-0.8,2.9,0l0,0
	C97.6,74.4,97.6,75.7,96.8,76.5z"/>
<path class="st6" d="M70.2,355.2l30.1-30.1c1.1-1.1,2.9-1.1,4,0l0,0c1.1,1.1,1.1,2.9,0,4l-30.1,30.1c-1.1,1.1-2.9,1.1-4,0l0,0
	C69.1,358,69.1,356.3,70.2,355.2z"/>
<path class="st6" d="M88.6,355.3l8.7-8.7c1.1-1.1,2.9-1.1,4,0l0,0c1.1,1.1,1.1,2.9,0,4l-8.7,8.7c-1.1,1.1-2.9,1.1-4,0l0,0
	C87.5,358.2,87.5,356.4,88.6,355.3z"/>
<path class="st38" d="M85.4,253c0,6.2-5,11.2-11.2,11.2c-6.2,0-11.2-5-11.2-11.2c0-6.2,5-11.2,11.2-11.2S85.4,246.8,85.4,253z"/>
<path class="st6" d="M98.3,143.1h0.2c1.3,17.9,15.5,18.2,15.5,18.2s-15.6,0.3-15.6,21c0-20.7-15.6-21-15.6-21S96.9,161,98.3,143.1
	L98.3,143.1z"/>
<g>
	<path class="st39" d="M248.8,103.2h78.7"/>
	<path class="st39" d="M248.8,135.4h78.7"/>
	<path class="st39" d="M248.8,167.6h78.7"/>
	<path class="st39" d="M248.8,199.8h78.7"/>
	<path class="st39" d="M248.8,232h78.7"/>
	<path class="st39" d="M258.9,264.1h58.4"/>
</g>
</svg>
