<?xml version="1.0" encoding="utf-8"?>
<!-- Generator: Adobe Illustrator 27.8.1, SVG Export Plug-In . SVG Version: 6.00 Build 0)  -->
<svg version="1.1" id="Layer_1" xmlns="http://www.w3.org/2000/svg" xmlns:xlink="http://www.w3.org/1999/xlink" x="0px" y="0px"
	 viewBox="0 0 394.1 314.9" style="enable-background:new 0 0 394.1 314.9;" xml:space="preserve">
<style type="text/css">
	.st0{fill:url(#SVGID_1_);}
	.st1{fill:url(#SVGID_00000031198943389630255740000003717578457326545064_);}
	.st2{fill:#6D8C8A;}
	.st3{fill:#FFFFFF;}
	.st4{fill:url(#SVGID_00000103960354412068026900000017762413730974996627_);}
	.st5{fill:url(#SVGID_00000129896065934342907130000017215293560179521664_);}
	.st6{fill:#E1E4E5;}
	.st7{fill:none;stroke:#E1E4E5;stroke-width:2.961;stroke-linecap:round;stroke-linejoin:round;}
	.st8{fill:url(#SVGID_00000110433197388100992060000006268570541843871389_);}
	.st9{fill:url(#SVGID_00000031923061752516428110000004903182559198657159_);}
	.st10{fill:url(#SVGID_00000171704086949750712330000011770091958186997666_);}
	.st11{fill:none;}
	.st12{fill:#F8AE9D;}
	.st13{fill:#23443B;}
	.st14{fill:#CC6144;}
	.st15{fill:#FFFFFF;stroke:#E1E4E5;stroke-width:2.5135;}
	.st16{fill-rule:evenodd;clip-rule:evenodd;fill:#FFFFFF;}
	.st17{fill:url(#SVGID_00000049195370209161501810000004686667622913926541_);}
	.st18{fill:url(#SVGID_00000109747042551514628490000003486908754998327986_);}
	.st19{fill:url(#SVGID_00000026155108942905340340000002458562879516244158_);}
</style>
<path class="st11" d="M-82.2-27.5h565.5v377H-82.2V-27.5z"/>
<path class="st12" d="M189.6,99.4c-2.7,4.2-9.6,9-14.6,9c-16.8-0.3-22.3-11.8-24.2-15.9c0.3-0.1,0.9-0.1,1.3-0.2
	c3.1-0.4,6.3-3.5,7.2-7c1.2-4.5,2.7-13.3,2.5-18.9l21.3,11.8c0,1.6-0.1,3.4-0.3,5.2c-0.1,1.1-0.2,2.1-0.3,3.2
	c-0.1,0.9-0.2,1.9-0.4,2.8c-0.4,2.9,0.9,5.8,3.4,7.4L189.6,99.4L189.6,99.4z"/>
<path class="st13" d="M191.4,53.7c-1.1,3-0.7,6.4,0.5,9.4c0.8,2.1,2.7,0.3,4.9,0.3c3.5,0.1,6.3-3.6,8.4-13.3
	c1.4-7.1,1.7-10.8,1.4-11.5c-1-2.5-4.2-3.8-6.8-4"/>
<path class="st12" d="M196.8,32.3c5.6,6.7,7.6,25.5,2.9,38.7c-3.3,9.3-7.2,15.4-11.7,15.2c-6.9-0.3-20.2-5.9-24.5-10.7
	c-7.8-8.5-5.5-25.2-3.9-35.6c1.5-9.5,5.9-21.9,17.9-19.5C185.2,21.8,191.8,26.3,196.8,32.3L196.8,32.3z"/>
<path class="st13" d="M165.3,39.7c1.2,1.6,3.4,1.9,5.2,2.2c2.4,0.4,3.6,1.3,4.8,3.7c0.8,1.5,1.6,3.2,3,4c1.2,0.7,1.1-1,1.3-2.3
	c0-0.1,0-0.2,0.1-0.3c0.3-1.1,1.4-0.9,1.7,0.2c0.3,0.9,0.9,1.7,1.8,2.2c0.1,0.1,0.3,0.1,0.4,0.1c0.2,0,0.3-0.2,0.5-0.4
	c0.3-0.3,0.5-0.8,0.8-1.2c0.9-1.5,2.6-1,3.5,0.5c0.6,0.9,1.3,1.8,2.4,2c0.3,0.1,0.7,0,0.9-0.3c0.2-0.4-0.1-0.8-0.1-1.2
	c0-0.4,0.2-0.5,0.4-0.8c0.7-1.2,2.3-1.3,3.2-0.3c0.7,0.7,1.4,1.4,2.1,2c0.3,0.3,0.8,0.5,1.1,0.3c0.2-0.1,0.2-0.4,0.2-0.6
	c0.2-1.1,0.3-2.3,0.5-3.4c0.1-0.6,0.4-1.5,1-1.3c0.3,0.1,0.4,0.4,0.6,0.6c0.2,0.3,3.6,4.2,3.7,3.9c0.5-2.2,1.6-4.2,2.2-6.4
	c3.4-14.2-11.9-25.6-23.5-25.6c-2.6,0-5,0-7.5,0.6c-2.7,0.6-5.5,1.7-8,3.1c-3.4,2-6,5.7-5.3,10"/>
<path class="st13" d="M170.8,34.8c1.7,1.9,2.1,4.6,2.3,7.2c0.2,3.9-0.1,7.9-1.9,11.3c-0.5,1-0.9,5.8-1.7,5.5
	c-0.2-0.1-0.2-3.8-0.9-5.8c-1-3.1-5.7-4.3-7.8-2.3c-3.4,3.1-1.4,6.9-0.3,9.3c0.7,1.4,1.7,3,1.9,4.6c0.2,1.9,0.3,9-1,10.7
	c-1.1,1.4-2.2-5.3-3.1-6.6c-7.1-9.8-13.9-34.7-1.8-40.1c1.8-0.8,7.5-1.2,9.2-0.2 M215.6,233.1c0.7,0.1,1.4,0.2,2.1,0.2
	c3.9,0.1,7.7-0.7,11.5-1.4c3.3-0.6,4.3-0.9,4.2-4.9c-0.6-32-5.3-63.8-13.7-94.7c-1.3-4.7-2.7-9.5-5.2-13.7
	c-4.2-7.2-13.9-13.4-21.3-16.9c-1-0.5-5.4,2.3-6.4,1.8c-0.9-0.4-1.7-1.1-2.7-1.5c-2.7-1.2-4.6,1.3-6.8,2.3c-1.2,0.5-2.5,0.9-3.8,0.8
	c-1.1,0-2-0.7-3-0.2c-4.3,2.2-15.1-14.4-15.1-14.4l-4.7,4.9l-13.7,14.3l-34.2,47.1c0,0-6.2,38.6-10.5,63.9
	c-0.7,4.4-3.7,13.8-4.3,17.1c0.1-0.7,29.2-0.9,30.7-0.9h59.2c3.3,0,12.3,1.4,14.6-1c2.9-3,6.2-16.7,6.4-20.6
	c0.6-13-0.3-25.8-0.5-38.8c0.1,5.3,1.6,10.1,2.2,15.3c0.8,6.7,2,13.4,3.1,20c0.9,5.3,1.7,10.7,2.4,16.1c0.3,2.4-0.1,3.9,2,4.8
	C209.8,233.5,213.6,232.7,215.6,233.1L215.6,233.1z"/>
<path class="st13" d="M167.2,208.2c0,0,6.1,3.4,5.5,10.8c-0.5,7.3-2.7,15.8-11.9,14.9C151.7,233,167.2,208.2,167.2,208.2z"/>
<path class="st3" d="M137.8,139.7c0,4.6-0.6,9.2-1.8,13.7c-1.2,4.5-3,8.8-5,12.9c-1,2.1-2.1,4.1-3.2,6.1c-1.1,2-2.2,4-3.2,6.1
	c-0.5,1-0.9,2.1-1,3.1c0,0.5-0.1,1,0.1,1.5c0,0.2,0.2,0.4,0.3,0.6c0.2,0.2,0.3,0.4,0.5,0.6c1.5,1.5,3.6,2.5,5.6,3.5
	c8.3,3.8,17.1,6.6,25.5,10.4c4.2,1.9,8.4,3.9,12.2,6.5l0.7,0.5c0.2,0.2,0.5,0.4,0.7,0.6c0.4,0.4,0.8,0.9,1.1,1.4
	c0.6,1,1,2.1,1.4,3.2c0.6,2.2,0.9,4.5,0.9,6.8c-0.2-2.3-0.5-4.6-1.2-6.7c-0.7-2.2-1.8-4.3-3.9-5.3c-3.9-2.4-8.1-4.3-12.3-6.1
	c-4.2-1.7-8.5-3.4-12.8-5c-4.3-1.6-8.6-3.2-12.9-5.1c-2.1-1-4.2-2-6-3.8c-0.2-0.2-0.4-0.5-0.6-0.8c-0.1-0.3-0.3-0.6-0.4-0.9
	c-0.2-0.7-0.1-1.3-0.1-1.9c0.2-1.2,0.6-2.3,1.1-3.4c1-2.1,2.1-4.1,3.3-6.1c1.1-2,2.3-4,3.3-6C134.4,157.8,137.4,148.9,137.8,139.7
	L137.8,139.7z"/>
<path class="st13" d="M194.8,102.6c-2.1,2.1-11.4,8.7-20.3,8.7c-1.5,0-3-0.1-4.7-0.4c-7.5-1.4-13.8-6.3-17.4-12.1
	c-0.7-1.1-1.3-2.1-1.8-3.3c-0.7-1.4-1.1-2.9-1.4-4.3c3.7-0.5,7.3-1.4,7.9-2.1c0.6,4.4,6,12.2,14.2,13.7c1,0.2,2,0.3,2.9,0.3h0
	c3.8,0.1,6.8-1.2,8.8-2.4c0,0,3.9-3.1,3.9-3.1L194.8,102.6L194.8,102.6z"/>
<path class="st3" d="M200.7,197.7c0-0.4,0-0.8,0-1.2c0-0.4-0.1-0.9-0.1-1.3l-0.2-2.5c-0.2-1.7-0.3-3.4-0.4-5.2
	c-0.3-3.4-0.4-6.8-0.5-10.2c-0.2-6.8-0.1-13.7,0.4-20.5c0.1-1.9,0.3-3.8,0.5-5.7c0.1-1,0.2-2,0.3-2.9c0.1-1,0.3-1.9,0.3-2.9
	c0-0.6-0.9-0.6-1-0.1c-0.4,1.7-0.5,3.4-0.6,5.1c-0.2,1.7-0.3,3.4-0.4,5.1c-0.2,3.4-0.4,6.9-0.5,10.3c-0.1,6.9,0.1,13.7,0.7,20.6
	c0.2,1.9,0.4,3.8,0.6,5.8c0.1,1,0.2,1.9,0.4,2.9c0.1,0.4,0.1,0.9,0.2,1.3c0.1,0.5,0.3,1,0.4,1.4
	C200.5,197.8,200.7,197.8,200.7,197.7L200.7,197.7z"/>
<path class="st14" d="M198.8,64.9C198.8,64.9,199,64.8,198.8,64.9C198.8,64.8,198.6,64.9,198.8,64.9z"/>
<path class="st15" d="M349.5,303.6H55.4c-8.8,0-15.7-6.3-15.7-13.7V127c0-7.4,6.9-13.7,15.7-13.7h294.1c8.8,0,15.7,6.3,15.7,13.7
	v163C365.2,297.4,358.3,303.6,349.5,303.6z"/>
<path class="st15" d="M365.5,133.9H39.7v-4.9c0-8.7,7-15.7,15.7-15.7h294.4c8.7,0,15.7,7,15.7,15.7L365.5,133.9L365.5,133.9z"/>
<path class="st6" d="M55.4,127.9c2,0,3.6-1.6,3.6-3.6c0-2-1.6-3.6-3.6-3.6c0,0,0,0,0,0c-2,0-3.6,1.6-3.6,3.6
	C51.8,126.3,53.4,127.9,55.4,127.9z M70.6,127.9c2,0,3.7-1.6,3.7-3.6c0-2-1.6-3.7-3.6-3.7c0,0-0.1,0-0.1,0c-2,0-3.6,1.7-3.6,3.7
	C67,126.3,68.6,127.9,70.6,127.9z M85.2,127.9c2,0,3.6-1.6,3.7-3.6c0-2-1.6-3.6-3.6-3.7c0,0,0,0,0,0c-2,0-3.6,1.6-3.6,3.7
	C81.5,126.3,83.2,127.9,85.2,127.9z"/>
<path class="st15" d="M79.3,154.7h34.6c6.2,0,11.3,5.1,11.3,11.3V200c0,6.2-5.1,11.3-11.3,11.3H79.3C73,211.3,68,206.2,68,200V166
	C68,159.8,73,154.7,79.3,154.7z"/>
<path class="st15" d="M79.3,222.6h34.6c6.2,0,11.3,5.1,11.3,11.3v33.9c0,6.2-5.1,11.3-11.3,11.3H79.3c-6.2,0-11.3-5.1-11.3-11.3
	v-33.9C68,227.6,73,222.6,79.3,222.6z"/>
<path class="st15" d="M147.8,154.7h34.6c6.2,0,11.3,5.1,11.3,11.3V200c0,6.2-5.1,11.3-11.3,11.3h-34.6c-6.2,0-11.3-5.1-11.3-11.3
	V166C136.5,159.8,141.5,154.7,147.8,154.7z"/>
<path class="st15" d="M147.8,222.6h34.6c6.2,0,11.3,5.1,11.3,11.3v33.9c0,6.2-5.1,11.3-11.3,11.3h-34.6c-6.2,0-11.3-5.1-11.3-11.3
	v-33.9C136.5,227.6,141.5,222.6,147.8,222.6z"/>
<path class="st15" d="M215.6,154.7h34.6c6.2,0,11.3,5.1,11.3,11.3V200c0,6.2-5.1,11.3-11.3,11.3h-34.6c-6.2,0-11.3-5.1-11.3-11.3
	V166C204.3,159.8,209.4,154.7,215.6,154.7z"/>
<path class="st15" d="M283.5,154.7h34.6c6.2,0,11.3,5.1,11.3,11.3V200c0,6.2-5.1,11.3-11.3,11.3h-34.6c-6.2,0-11.3-5.1-11.3-11.3
	V166C272.2,159.8,277.2,154.7,283.5,154.7z"/>
<path class="st2" d="M215.6,221.3h34.6c6.9,0,12.6,5.6,12.6,12.6v33.9c0,6.9-5.6,12.6-12.6,12.6h-34.6c-6.9,0-12.6-5.6-12.6-12.6
	v-33.9C203.1,227,208.7,221.3,215.6,221.3z"/>
<path class="st16" d="M233.2,259.5l6,3.1c1.2,0.6,2.5-0.4,2.3-1.7l-1.2-6.7l4.9-4.7c1-0.9,0.4-2.5-0.9-2.7l-6.7-1l-3-6.1
	c-0.6-1.2-2.3-1.2-2.9,0l-3,6.1l-6.7,1c-1.3,0.2-1.8,1.8-0.9,2.7l4.9,4.7l-1.2,6.7c-0.2,1.3,1.1,2.3,2.3,1.7L233.2,259.5
	L233.2,259.5z"/>
<path class="st15" d="M283.5,222.6h34.6c6.2,0,11.3,5.1,11.3,11.3v33.9c0,6.2-5.1,11.3-11.3,11.3h-34.6c-6.2,0-11.3-5.1-11.3-11.3
	v-33.9C272.2,227.6,277.2,222.6,283.5,222.6z"/>
<path class="st12" d="M150.2,211.4c0,0,11.8,1.7,17.6-0.6c5.7-2.3,19.1-11.2,32-12.8c0.2,0,0.5,0.1,0.6,0.4c0.3,0.8,0.4,2.9-3.4,4.9
	c-5,2.6-8.7,4.7-8.7,4.7s23.4,6.1,29.6,8.3c1.2,0.4,2.2,0.9,2.9,1.4c2.3,1.6,0.6,5.1-2.1,4.5l-15.7-3.9c0,0,1.4,1.2,0.8,2.8
	c-0.5,1.5-3.3,2.5-5.8,1.7c0,0,1.4,1.5,0.2,3.3c-1.2,1.7-4.2,1.7-5.7,1.4c0,0,1.7,1.2,1.1,2.7c-0.5,1.5-3.8,2.2-4.9,2.1
	c-1.1-0.1-10,0.6-22.9-4.4l-17.5,4C148.3,231.7,143.1,227.4,150.2,211.4L150.2,211.4z"/>
<path class="st13" d="M162.3,233.1c-22,7.6-51.4,0.3-70.1-12.3c-11.7-7.9-19.1-18-17.9-27.8c3.3-25.5,23.3-84.1,40.7-92.6
	c11.8-5.8,26.1-8.2,34.1-9.2c3.7-0.5,6.1-0.6,6.1-0.6l-2.9,8.2l-14.5,40.9c-0.5,24.3-17.9,38.7-14.4,44.3c3.5,5.6,30.7,11.7,45,21.4
	C172.4,208.1,177.4,227.5,162.3,233.1L162.3,233.1z"/>
<linearGradient id="SVGID_1_" gradientUnits="userSpaceOnUse" x1="334.6754" y1="176.5053" x2="411.0368" y2="212.581" gradientTransform="matrix(1 0 0 -1 0 309.8022)">
	<stop  offset="0" style="stop-color:#FFFFFF"/>
	<stop  offset="1" style="stop-color:#EEEEEE"/>
</linearGradient>
<path class="st0" d="M367.4,127.9c-8.7,2.1-17.9-5.3-17.9-5.3s4.9-10.7,13.6-12.8c8.7-2.1,17.9,5.3,17.9,5.3
	S376.1,125.9,367.4,127.9z"/>
<linearGradient id="SVGID_00000001639417125643690870000006266670111540618890_" gradientUnits="userSpaceOnUse" x1="148.0694" y1="221.6206" x2="75.7791" y2="297.8482" gradientTransform="matrix(1 0 0 -1 0 309.8022)">
	<stop  offset="0" style="stop-color:#FFFFFF"/>
	<stop  offset="1" style="stop-color:#EEEEEE"/>
</linearGradient>
<path style="fill:url(#SVGID_00000001639417125643690870000006266670111540618890_);" d="M112.5,67.2c9.2,6.3,23.2,1.9,23.2,1.9
	s-0.9-14.7-10.1-21c-9.2-6.3-23.2-1.9-23.2-1.9S103.4,60.9,112.5,67.2L112.5,67.2z"/>
<linearGradient id="SVGID_00000047046394005053021170000008016797692876073370_" gradientUnits="userSpaceOnUse" x1="326.9787" y1="188.0674" x2="255.0039" y2="300.8948" gradientTransform="matrix(1 0 0 -1 0 309.8022)">
	<stop  offset="0" style="stop-color:#FFFFFF"/>
	<stop  offset="1" style="stop-color:#EEEEEE"/>
</linearGradient>
<path style="fill:url(#SVGID_00000047046394005053021170000008016797692876073370_);" d="M287.6,86.9c10,10.1,28.6,8,28.6,8
	s2.5-18.6-7.5-28.7c-10-10.1-28.6-8-28.6-8S277.7,76.8,287.6,86.9L287.6,86.9z"/>
<ellipse class="st2" cx="344.9" cy="215.8" rx="7.4" ry="7.1"/>
<ellipse class="st2" cx="69.1" cy="253" rx="10" ry="9.7"/>
<circle class="st2" cx="12.4" cy="166.4" r="3.5"/>
<circle class="st2" cx="344.3" cy="79.2" r="6.8"/>
<ellipse class="st6" cx="344.3" cy="285.6" rx="6.8" ry="6.4"/>
<circle class="st6" cx="55.4" cy="212.5" r="3.8"/>
<circle class="st6" cx="133.1" cy="291.4" r="2.3"/>
<circle class="st6" cx="272.9" cy="51.7" r="3.2"/>
<circle class="st6" cx="10.9" cy="241.5" r="3.1"/>
<circle class="st6" cx="66.5" cy="90.4" r="4.2"/>
<ellipse class="st6" cx="347" cy="156" rx="3.2" ry="2.6"/>
<circle class="st6" cx="248.2" cy="90.5" r="6.5"/>
<path class="st6" d="M381.6,166.8L381.6,166.8c0.6,7.1,5.8,7.2,5.8,7.2s-5.8,0.1-5.8,8.3c0-8.2-5.8-8.3-5.8-8.3
	S381.1,173.8,381.6,166.8L381.6,166.8z M24.4,94.4h0.1c0.9,12.4,9.9,12.5,9.9,12.5s-10,0.2-10,14.5c0-14.3-10-14.5-10-14.5
	S23.6,106.7,24.4,94.4z"/>
</svg>
