<?xml version="1.0" encoding="utf-8"?>
<!-- Generator: Adobe Illustrator 27.8.1, SVG Export Plug-In . SVG Version: 6.00 Build 0)  -->
<svg version="1.1" id="Layer_1" xmlns="http://www.w3.org/2000/svg" xmlns:xlink="http://www.w3.org/1999/xlink" x="0px" y="0px"
	 viewBox="0 0 394.1 272.2" style="enable-background:new 0 0 394.1 272.2;" xml:space="preserve">
<style type="text/css">
	.st0{fill:url(#SVGID_1_);}
	.st1{fill:url(#SVGID_00000137819143461207601480000016662835539543910530_);}
	.st2{fill:#6D8C8A;}
	.st3{fill:#FFFFFF;}
	.st4{fill:url(#SVGID_00000028305952623401173380000000716705700515651210_);}
	.st5{fill:url(#SVGID_00000176016007500755016430000000463475987697394348_);}
	.st6{fill:#E1E4E5;}
	.st7{fill:none;stroke:#E1E4E5;stroke-width:2.961;stroke-linecap:round;stroke-linejoin:round;}
	.st8{fill:url(#SVGID_00000132766493402296237360000017718167741946347668_);}
	.st9{fill:url(#SVGID_00000039126867684800415870000000504860708912799142_);}
	.st10{fill:url(#SVGID_00000139979795763859286100000006525379536845228199_);}
	.st11{fill:none;}
	.st12{fill:#F8AE9D;}
	.st13{fill:#23443B;}
	.st14{fill:#CC6144;}
	.st15{fill:#FFFFFF;stroke:#E1E4E5;stroke-width:2.5135;}
	.st16{fill-rule:evenodd;clip-rule:evenodd;fill:#FFFFFF;}
	.st17{fill:url(#SVGID_00000053508143469414108790000002241004865772667068_);}
	.st18{fill:url(#SVGID_00000012467814510671915460000000235242773697334196_);}
	.st19{fill:url(#SVGID_00000098935418062589275430000016695609424672170907_);}
	.st20{fill:#FFFFFF;filter:url(#Adobe_OpacityMaskFilter);}
	.st21{mask:url(#a_00000158005664807144497710000012810765801847242428_);fill:none;stroke:#E1E4E5;stroke-width:2.2321;}
	.st22{fill:#31446C;}
	.st23{fill:none;stroke:#E1E4E5;stroke-width:2.2321;stroke-linecap:round;stroke-linejoin:round;}
	.st24{fill:url(#SVGID_00000034059501316886262580000001664008140606208177_);}
	.st25{fill:url(#SVGID_00000179610212845165037180000010135687419661959836_);}
	.st26{fill:url(#SVGID_00000123434637788549105170000016553561715035652286_);}
</style>
<path class="st6" d="M116.1,232.8c-0.2-0.3-0.2-0.7,0-0.9c0.2-0.2,0.6-0.2,0.9,0c1.3,1,2.6,2,3.9,3c0.3,0.2,0.4,0.6,0.1,0.9
	c-0.2,0.3-0.6,0.4-0.9,0.1C118.7,234.9,117.4,233.9,116.1,232.8C116.1,232.9,116.1,232.9,116.1,232.8L116.1,232.8z M124,238.6
	c-0.2-0.2-0.2-0.6-0.1-0.8c0.2-0.3,0.6-0.4,0.9-0.2c1.4,0.9,2.7,1.7,4.2,2.5c0.3,0.2,0.4,0.6,0.2,0.9c-0.2,0.3-0.6,0.4-0.9,0.2
	c-1.4-0.8-2.8-1.7-4.2-2.6C124.1,238.7,124,238.6,124,238.6L124,238.6z M132.5,243.5c-0.2-0.3-0.2-0.7,0-0.9
	c0.2-0.2,0.5-0.2,0.7-0.1c1.4,0.7,2.9,1.4,4.4,2.1c0.3,0.1,0.5,0.5,0.3,0.9c-0.1,0.3-0.5,0.5-0.9,0.3c-1.5-0.7-3-1.4-4.5-2.1
	C132.6,243.6,132.5,243.6,132.5,243.5L132.5,243.5z M141.5,247.4c-0.2-0.3-0.2-0.7,0-0.9c0.2-0.2,0.4-0.2,0.7-0.1
	c1.5,0.6,3.1,1,4.6,1.5c0.3,0.1,0.6,0.5,0.5,0.8c-0.1,0.3-0.5,0.6-0.8,0.5c-1.6-0.4-3.2-0.9-4.7-1.5
	C141.7,247.5,141.6,247.5,141.5,247.4z M150.9,250c-0.2-0.3-0.2-0.7,0-0.9c0.2-0.1,0.4-0.2,0.6-0.2c1.6,0.3,3.2,0.5,4.8,0.7
	c0.4,0,0.6,0.4,0.6,0.7c0,0.4-0.4,0.6-0.7,0.6l0,0c-1.6-0.1-3.3-0.4-4.9-0.7C151.2,250.1,151,250.1,150.9,250z M160.7,250.8
	c-0.2-0.3-0.2-0.7,0-0.9c0.1-0.1,0.3-0.2,0.4-0.2c1.6,0,3.2-0.1,4.8-0.3c0.4,0,0.7,0.2,0.7,0.6c0,0.4-0.2,0.7-0.6,0.7
	c-1.6,0.2-3.3,0.3-5,0.4C161,251,160.8,250.9,160.7,250.8L160.7,250.8z M170.4,249.5c-0.2-0.3-0.2-0.7,0-0.9
	c0.1-0.1,0.2-0.1,0.3-0.2c1.6-0.4,3.1-0.9,4.6-1.5c0.3-0.1,0.7,0,0.8,0.4c0,0,0,0,0,0c0.1,0.3,0,0.7-0.4,0.8
	c-1.5,0.6-3.1,1.1-4.7,1.5C170.8,249.8,170.5,249.7,170.4,249.5L170.4,249.5z M179.5,246c-0.2-0.3-0.2-0.7,0-0.9
	c0,0,0.1-0.1,0.1-0.1c1.4-0.8,2.8-1.6,4.1-2.5c0.3-0.2,0.7-0.1,0.9,0.2c0.2,0.3,0.1,0.7-0.2,0.9c-1.4,0.9-2.8,1.8-4.2,2.6
	C180,246.3,179.7,246.2,179.5,246z M187.6,240.5C187.6,240.5,187.6,240.5,187.6,240.5c-0.3-0.3-0.2-0.7,0.1-1c0,0,0,0,0,0
	c1.3-1,2.5-2.1,3.6-3.2c0.3-0.3,0.7-0.3,0.9,0s0.3,0.7,0,0.9c0,0,0,0,0,0c-1.2,1.1-2.4,2.2-3.7,3.3
	C188.2,240.8,187.8,240.8,187.6,240.5z M194.6,233.7c-0.2-0.2-0.2-0.6,0-0.9c1-1.2,2-2.5,2.8-3.9c0.2-0.3,0.6-0.4,0.9-0.2
	c0.3,0.2,0.4,0.6,0.2,0.9c-0.9,1.4-1.9,2.8-2.9,4C195.3,233.9,194.9,234,194.6,233.7C194.6,233.7,194.6,233.7,194.6,233.7
	L194.6,233.7z M199.7,225.4c-0.2-0.2-0.2-0.5-0.1-0.7c0.6-1.5,1.1-3,1.4-4.5c0.1-0.4,0.4-0.6,0.8-0.5c0.4,0.1,0.6,0.4,0.5,0.8
	c-0.4,1.6-0.9,3.2-1.5,4.8c-0.1,0.3-0.5,0.5-0.9,0.3c0,0,0,0,0,0C199.9,225.5,199.8,225.5,199.7,225.4L199.7,225.4z M185.7,209.2
	c-0.2-0.3-0.2-0.7,0.1-0.9c0.2-0.2,0.6-0.2,0.9,0c1.1,1,2.4,2,3.9,2.7c0.3,0.2,0.4,0.6,0.3,0.9c-0.2,0.3-0.5,0.4-0.8,0.3
	C188.4,211.3,186.9,210.3,185.7,209.2C185.7,209.2,185.7,209.2,185.7,209.2L185.7,209.2z M182.9,205.2c-0.1-0.1-0.1-0.1-0.1-0.2
	c-0.8-2.1-0.6-3.9,0.6-5.3c0.2-0.3,0.6-0.3,0.9-0.1c0.3,0.2,0.3,0.7,0.1,0.9c0,0,0,0,0,0c-1.1,1.2-0.8,2.8-0.4,4
	c0.1,0.3,0,0.7-0.4,0.8C183.4,205.5,183.1,205.4,182.9,205.2L182.9,205.2z M194.4,213.4c-0.1-0.1-0.2-0.3-0.2-0.5
	c0.1-0.4,0.4-0.6,0.7-0.5c1.6,0.2,3.1,0.2,4.7,0c0.4-0.1,0.7,0.2,0.8,0.5c0,0,0,0,0,0c0.1,0.4-0.2,0.7-0.5,0.8
	c-1.7,0.3-3.4,0.3-5.1,0C194.6,213.6,194.5,213.5,194.4,213.4L194.4,213.4z M201.7,215.9c-0.1-0.1-0.2-0.3-0.2-0.4
	c0-1.6-0.2-3.2-0.6-4.7c-0.1-0.4,0.1-0.7,0.5-0.8c0.3-0.1,0.7,0.1,0.8,0.5c0.4,1.6,0.6,3.3,0.6,5c0,0.4-0.3,0.7-0.7,0.7c0,0,0,0,0,0
	C202,216.1,201.9,216,201.7,215.9L201.7,215.9z M187.8,198.7c-0.2-0.3-0.2-0.7,0-0.9c0.1-0.1,0.2-0.2,0.4-0.2c1.7-0.1,3.4,0.2,5.1,1
	c0.3,0.2,0.5,0.6,0.3,0.9c-0.2,0.3-0.5,0.4-0.8,0.3c-1.5-0.7-3-1-4.4-0.9C188.2,198.9,188,198.9,187.8,198.7L187.8,198.7z
	 M203.9,211.8c-0.2-0.3-0.2-0.7,0-0.9c0,0,0.1-0.1,0.1-0.1c1.3-0.7,2.6-1.6,3.9-2.7c0.3-0.2,0.7-0.2,0.9,0l0,0
	c0.2,0.3,0.2,0.7,0,0.9c0,0,0,0,0,0c-1.3,1.2-2.7,2.2-4.1,2.9C204.4,212.1,204.1,212,203.9,211.8z M199.4,206.5c0,0-0.1-0.1-0.1-0.1
	c-0.8-1.4-1.7-2.7-2.8-3.8c-0.3-0.3-0.2-0.7,0-0.9c0,0,0,0,0,0c0.3-0.3,0.7-0.2,0.9,0c0,0,0,0,0,0c1.2,1.2,2.2,2.6,3,4.1
	c0.2,0.3,0,0.7-0.3,0.9C199.9,206.7,199.6,206.7,199.4,206.5z M211.2,205.4c-0.2-0.2-0.2-0.6,0-0.8c0.9-1.2,1.8-2.6,2.6-4
	c0.2-0.3,0.6-0.4,0.9-0.2c0.3,0.2,0.4,0.6,0.2,0.9c-0.9,1.5-1.8,2.9-2.7,4.2C212,205.6,211.5,205.7,211.2,205.4
	C211.2,205.4,211.2,205.4,211.2,205.4L211.2,205.4z M216,196.9c-0.2-0.2-0.2-0.5-0.1-0.7c0.6-1.5,1.2-3,1.8-4.5
	c0.1-0.3,0.5-0.5,0.8-0.4c0.3,0.1,0.5,0.5,0.4,0.8c-0.5,1.6-1.1,3.1-1.8,4.6c-0.1,0.3-0.5,0.5-0.9,0.3
	C216.1,197,216.1,196.9,216,196.9z M219.1,187.6c-0.1-0.2-0.2-0.4-0.2-0.6c0.3-1.6,0.6-3.2,0.7-4.8c0-0.4,0.4-0.6,0.7-0.6
	c0.3,0,0.6,0.3,0.6,0.7c-0.1,1.7-0.4,3.3-0.7,4.9c-0.1,0.4-0.4,0.6-0.8,0.5C219.3,187.7,219.2,187.7,219.1,187.6L219.1,187.6z
	 M220,177.9c-0.1-0.1-0.2-0.3-0.2-0.4c-0.1-1.6-0.2-3.2-0.5-4.8c-0.1-0.4,0.2-0.7,0.5-0.7c0,0,0,0,0,0c0.4-0.1,0.7,0.2,0.7,0.5
	c0,0,0,0,0,0c0.3,1.7,0.4,3.3,0.5,4.9c0,0.4-0.3,0.7-0.6,0.7c0,0,0,0,0,0C220.3,178.1,220.1,178,220,177.9z M149.9,94.8
	c-0.2-0.2-0.2-0.5-0.1-0.7c0.2-0.3,0.5-0.5,0.9-0.3c1.3,0.6,2.7,1.4,4.4,2.3c0.3,0.2,0.4,0.6,0.2,0.9c-0.2,0.3-0.6,0.4-0.9,0.2
	c-1.6-0.9-3-1.7-4.3-2.3C150,94.9,149.9,94.9,149.9,94.8z M218.5,168.2c-0.1-0.1-0.1-0.2-0.2-0.3c-0.4-1.6-0.9-3.1-1.4-4.6
	c-0.1-0.3,0.1-0.7,0.4-0.8c0,0,0,0,0,0c0.3-0.1,0.7,0.1,0.8,0.4c0,0,0,0,0,0c0.6,1.6,1,3.2,1.4,4.7c0.1,0.3-0.1,0.7-0.5,0.8
	C219,168.4,218.7,168.4,218.5,168.2L218.5,168.2z M158.4,99.6c-0.2-0.2-0.2-0.5-0.1-0.8c0.2-0.3,0.6-0.4,0.9-0.2c0,0,0,0,0,0
	c1.4,0.9,2.8,1.8,4.1,2.7c0.3,0.2,0.4,0.6,0.2,0.9c0,0,0,0,0,0c-0.2,0.3-0.6,0.4-0.9,0.2c0,0,0,0,0,0c-1.3-0.9-2.7-1.8-4.1-2.7
	C158.4,99.7,158.4,99.7,158.4,99.6L158.4,99.6z M215.3,158.9c0-0.1-0.1-0.1-0.1-0.2c-0.7-1.5-1.4-2.9-2.1-4.4
	c-0.2-0.3,0-0.7,0.3-0.9c0.3-0.2,0.7,0,0.9,0.3c0.8,1.5,1.5,2.9,2.1,4.4c0.1,0.3,0,0.7-0.3,0.9C215.8,159.2,215.5,159.2,215.3,158.9
	z M166.5,105.1c-0.2-0.3-0.2-0.7,0-0.9c0.2-0.2,0.6-0.2,0.8-0.1c1.3,1,2.7,1.9,4,2.9c0.3,0.2,0.3,0.6,0.1,0.9
	c-0.2,0.3-0.6,0.3-0.9,0.1C169.2,107.1,167.9,106.1,166.5,105.1C166.6,105.2,166.5,105.1,166.5,105.1L166.5,105.1z M174.3,111
	c-0.2-0.2-0.2-0.6,0-0.8c0.2-0.3,0.6-0.3,0.9-0.1c1.3,1,2.6,2,3.8,3.1c0.3,0.2,0.3,0.6,0.1,0.9c-0.2,0.3-0.6,0.3-0.9,0.1
	c0,0,0,0,0,0C176.9,113.1,175.7,112.1,174.3,111C174.4,111,174.3,111,174.3,111L174.3,111z M210.8,150.3c0,0-0.1-0.1-0.1-0.1
	c-0.8-1.4-1.7-2.8-2.6-4.1c-0.2-0.3-0.1-0.7,0.2-0.9c0.3-0.2,0.7-0.1,0.9,0.2c0.9,1.4,1.8,2.8,2.6,4.2c0.2,0.3,0.1,0.7-0.2,0.9
	C211.3,150.5,211,150.5,210.8,150.3z M181.9,117.3c-0.3-0.3-0.2-0.7,0-0.9c0.2-0.2,0.6-0.2,0.9,0c1.2,1.1,2.5,2.2,3.7,3.3
	c0.3,0.2,0.3,0.7,0,0.9c-0.2,0.3-0.6,0.3-0.9,0C184.3,119.4,183.1,118.4,181.9,117.3C181.9,117.3,181.9,117.3,181.9,117.3
	L181.9,117.3z M205.3,142.1C205.3,142.1,205.3,142.1,205.3,142.1c-1-1.4-2-2.6-3-3.9c-0.2-0.3-0.2-0.7,0.1-0.9c0,0,0,0,0,0
	c0.3-0.2,0.7-0.2,0.9,0.1c0,0,0,0,0,0c1,1.3,2,2.6,3,3.9c0.2,0.3,0.1,0.7-0.1,0.9C205.9,142.4,205.6,142.4,205.3,142.1L205.3,142.1z
	 M189.1,123.9c-0.2-0.3-0.2-0.7,0.1-0.9c0.3-0.2,0.6-0.2,0.9,0c1.2,1.1,2.3,2.3,3.5,3.5c0.2,0.3,0.2,0.7,0,0.9
	c-0.3,0.3-0.7,0.3-0.9,0c0,0,0,0,0,0C191.4,126.2,190.3,125,189.1,123.9C189.1,123.9,189.1,123.9,189.1,123.9z M199.2,134.5
	L199.2,134.5c-1.1-1.2-2.2-2.5-3.3-3.7c-0.2-0.3-0.2-0.7,0-0.9c0.3-0.2,0.7-0.2,0.9,0c0,0,0,0,0,0l0,0c1.1,1.2,2.2,2.4,3.3,3.7
	c0.2,0.3,0.2,0.7-0.1,0.9C199.8,134.8,199.4,134.8,199.2,134.5L199.2,134.5z"/>
<defs>
	<filter id="Adobe_OpacityMaskFilter" filterUnits="userSpaceOnUse" x="114.8" y="92.6" width="107.5" height="159.6">
		<feColorMatrix  type="matrix" values="1 0 0 0 0  0 1 0 0 0  0 0 1 0 0  0 0 0 1 0"/>
	</filter>
</defs>
<mask maskUnits="userSpaceOnUse" x="114.8" y="92.6" width="107.5" height="159.6" id="a_00000158005664807144497710000012810765801847242428_">
	<path class="st20" d="M60.3,85.2h189.5v189.8H60.3V85.2z"/>
	<path d="M116.1,232.8c-0.2-0.3-0.2-0.7,0-0.9c0.2-0.2,0.6-0.2,0.9,0c1.3,1,2.6,2,3.9,3c0.3,0.2,0.4,0.6,0.1,0.9
		c-0.2,0.3-0.6,0.4-0.9,0.1C118.7,234.9,117.4,233.9,116.1,232.8C116.1,232.9,116.1,232.9,116.1,232.8L116.1,232.8z M124,238.6
		c-0.2-0.2-0.2-0.6-0.1-0.8c0.2-0.3,0.6-0.4,0.9-0.2c1.4,0.9,2.7,1.7,4.2,2.5c0.3,0.2,0.4,0.6,0.2,0.9c-0.2,0.3-0.6,0.4-0.9,0.2
		c-1.4-0.8-2.8-1.7-4.2-2.6C124.1,238.7,124,238.6,124,238.6L124,238.6z M132.5,243.5c-0.2-0.3-0.2-0.7,0-0.9
		c0.2-0.2,0.5-0.2,0.7-0.1c1.4,0.7,2.9,1.4,4.4,2.1c0.3,0.1,0.5,0.5,0.3,0.9c-0.1,0.3-0.5,0.5-0.9,0.3c-1.5-0.7-3-1.4-4.5-2.1
		C132.6,243.6,132.5,243.6,132.5,243.5L132.5,243.5z M141.5,247.4c-0.2-0.3-0.2-0.7,0-0.9c0.2-0.2,0.4-0.2,0.7-0.1
		c1.5,0.6,3.1,1,4.6,1.5c0.3,0.1,0.6,0.5,0.5,0.8c-0.1,0.3-0.5,0.6-0.8,0.5c-1.6-0.4-3.2-0.9-4.7-1.5
		C141.7,247.5,141.6,247.5,141.5,247.4z M150.9,250c-0.2-0.3-0.2-0.7,0-0.9c0.2-0.1,0.4-0.2,0.6-0.2c1.6,0.3,3.2,0.5,4.8,0.7
		c0.4,0,0.6,0.4,0.6,0.7c0,0.4-0.4,0.6-0.7,0.6l0,0c-1.6-0.1-3.3-0.4-4.9-0.7C151.2,250.1,151,250.1,150.9,250z M160.7,250.8
		c-0.2-0.3-0.2-0.7,0-0.9c0.1-0.1,0.3-0.2,0.4-0.2c1.6,0,3.2-0.1,4.8-0.3c0.4,0,0.7,0.2,0.7,0.6c0,0.4-0.2,0.7-0.6,0.7
		c-1.6,0.2-3.3,0.3-5,0.4C161,251,160.8,250.9,160.7,250.8L160.7,250.8z M170.4,249.5c-0.2-0.3-0.2-0.7,0-0.9
		c0.1-0.1,0.2-0.1,0.3-0.2c1.6-0.4,3.1-0.9,4.6-1.5c0.3-0.1,0.7,0,0.8,0.4c0,0,0,0,0,0c0.1,0.3,0,0.7-0.4,0.8
		c-1.5,0.6-3.1,1.1-4.7,1.5C170.8,249.8,170.5,249.7,170.4,249.5L170.4,249.5z M179.5,246c-0.2-0.3-0.2-0.7,0-0.9
		c0,0,0.1-0.1,0.1-0.1c1.4-0.8,2.8-1.6,4.1-2.5c0.3-0.2,0.7-0.1,0.9,0.2c0.2,0.3,0.1,0.7-0.2,0.9c-1.4,0.9-2.8,1.8-4.2,2.6
		C180,246.3,179.7,246.2,179.5,246z M187.6,240.5C187.6,240.5,187.6,240.5,187.6,240.5c-0.3-0.3-0.2-0.7,0.1-1c0,0,0,0,0,0
		c1.3-1,2.5-2.1,3.6-3.2c0.3-0.3,0.7-0.3,0.9,0s0.3,0.7,0,0.9c0,0,0,0,0,0c-1.2,1.1-2.4,2.2-3.7,3.3
		C188.2,240.8,187.8,240.8,187.6,240.5z M194.6,233.7c-0.2-0.2-0.2-0.6,0-0.9c1-1.2,2-2.5,2.8-3.9c0.2-0.3,0.6-0.4,0.9-0.2
		c0.3,0.2,0.4,0.6,0.2,0.9c-0.9,1.4-1.9,2.8-2.9,4C195.3,233.9,194.9,234,194.6,233.7C194.6,233.7,194.6,233.7,194.6,233.7
		L194.6,233.7z M199.7,225.4c-0.2-0.2-0.2-0.5-0.1-0.7c0.6-1.5,1.1-3,1.4-4.5c0.1-0.4,0.4-0.6,0.8-0.5c0.4,0.1,0.6,0.4,0.5,0.8
		c-0.4,1.6-0.9,3.2-1.5,4.8c-0.1,0.3-0.5,0.5-0.9,0.3c0,0,0,0,0,0C199.9,225.5,199.8,225.5,199.7,225.4L199.7,225.4z M185.7,209.2
		c-0.2-0.3-0.2-0.7,0.1-0.9c0.2-0.2,0.6-0.2,0.9,0c1.1,1,2.4,2,3.9,2.7c0.3,0.2,0.4,0.6,0.3,0.9c-0.2,0.3-0.5,0.4-0.8,0.3
		C188.4,211.3,186.9,210.3,185.7,209.2C185.7,209.2,185.7,209.2,185.7,209.2L185.7,209.2z M182.9,205.2c-0.1-0.1-0.1-0.1-0.1-0.2
		c-0.8-2.1-0.6-3.9,0.6-5.3c0.2-0.3,0.6-0.3,0.9-0.1c0.3,0.2,0.3,0.7,0.1,0.9c0,0,0,0,0,0c-1.1,1.2-0.8,2.8-0.4,4
		c0.1,0.3,0,0.7-0.4,0.8C183.4,205.5,183.1,205.4,182.9,205.2L182.9,205.2z M194.4,213.4c-0.1-0.1-0.2-0.3-0.2-0.5
		c0.1-0.4,0.4-0.6,0.7-0.5c1.6,0.2,3.1,0.2,4.7,0c0.4-0.1,0.7,0.2,0.8,0.5c0,0,0,0,0,0c0.1,0.4-0.2,0.7-0.5,0.8
		c-1.7,0.3-3.4,0.3-5.1,0C194.6,213.6,194.5,213.5,194.4,213.4L194.4,213.4z M201.7,215.9c-0.1-0.1-0.2-0.3-0.2-0.4
		c0-1.6-0.2-3.2-0.6-4.7c-0.1-0.4,0.1-0.7,0.5-0.8c0.3-0.1,0.7,0.1,0.8,0.5c0.4,1.6,0.6,3.3,0.6,5c0,0.4-0.3,0.7-0.7,0.7
		c0,0,0,0,0,0C202,216.1,201.9,216,201.7,215.9L201.7,215.9z M187.8,198.7c-0.2-0.3-0.2-0.7,0-0.9c0.1-0.1,0.2-0.2,0.4-0.2
		c1.7-0.1,3.4,0.2,5.1,1c0.3,0.2,0.5,0.6,0.3,0.9c-0.2,0.3-0.5,0.4-0.8,0.3c-1.5-0.7-3-1-4.4-0.9C188.2,198.9,188,198.9,187.8,198.7
		L187.8,198.7z M203.9,211.8c-0.2-0.3-0.2-0.7,0-0.9c0,0,0.1-0.1,0.1-0.1c1.3-0.7,2.6-1.6,3.9-2.7c0.3-0.2,0.7-0.2,0.9,0l0,0
		c0.2,0.3,0.2,0.7,0,0.9c0,0,0,0,0,0c-1.3,1.2-2.7,2.2-4.1,2.9C204.4,212.1,204.1,212,203.9,211.8z M199.4,206.5
		c0,0-0.1-0.1-0.1-0.1c-0.8-1.4-1.7-2.7-2.8-3.8c-0.3-0.3-0.2-0.7,0-0.9c0,0,0,0,0,0c0.3-0.3,0.7-0.2,0.9,0c0,0,0,0,0,0
		c1.2,1.2,2.2,2.6,3,4.1c0.2,0.3,0,0.7-0.3,0.9C199.9,206.7,199.6,206.7,199.4,206.5z M211.2,205.4c-0.2-0.2-0.2-0.6,0-0.8
		c0.9-1.2,1.8-2.6,2.6-4c0.2-0.3,0.6-0.4,0.9-0.2c0.3,0.2,0.4,0.6,0.2,0.9c-0.9,1.5-1.8,2.9-2.7,4.2
		C212,205.6,211.5,205.7,211.2,205.4C211.2,205.4,211.2,205.4,211.2,205.4L211.2,205.4z M216,196.9c-0.2-0.2-0.2-0.5-0.1-0.7
		c0.6-1.5,1.2-3,1.8-4.5c0.1-0.3,0.5-0.5,0.8-0.4c0.3,0.1,0.5,0.5,0.4,0.8c-0.5,1.6-1.1,3.1-1.8,4.6c-0.1,0.3-0.5,0.5-0.9,0.3
		C216.1,197,216.1,196.9,216,196.9z M219.1,187.6c-0.1-0.2-0.2-0.4-0.2-0.6c0.3-1.6,0.6-3.2,0.7-4.8c0-0.4,0.4-0.6,0.7-0.6
		c0.3,0,0.6,0.3,0.6,0.7c-0.1,1.7-0.4,3.3-0.7,4.9c-0.1,0.4-0.4,0.6-0.8,0.5C219.3,187.7,219.2,187.7,219.1,187.6L219.1,187.6z
		 M220,177.9c-0.1-0.1-0.2-0.3-0.2-0.4c-0.1-1.6-0.2-3.2-0.5-4.8c-0.1-0.4,0.2-0.7,0.5-0.7c0,0,0,0,0,0c0.4-0.1,0.7,0.2,0.7,0.5
		c0,0,0,0,0,0c0.3,1.7,0.4,3.3,0.5,4.9c0,0.4-0.3,0.7-0.6,0.7c0,0,0,0,0,0C220.3,178.1,220.1,178,220,177.9z M149.9,94.8
		c-0.2-0.2-0.2-0.5-0.1-0.7c0.2-0.3,0.5-0.5,0.9-0.3c1.3,0.6,2.7,1.4,4.4,2.3c0.3,0.2,0.4,0.6,0.2,0.9c-0.2,0.3-0.6,0.4-0.9,0.2
		c-1.6-0.9-3-1.7-4.3-2.3C150,94.9,149.9,94.9,149.9,94.8z M218.5,168.2c-0.1-0.1-0.1-0.2-0.2-0.3c-0.4-1.6-0.9-3.1-1.4-4.6
		c-0.1-0.3,0.1-0.7,0.4-0.8c0,0,0,0,0,0c0.3-0.1,0.7,0.1,0.8,0.4c0,0,0,0,0,0c0.6,1.6,1,3.2,1.4,4.7c0.1,0.3-0.1,0.7-0.5,0.8
		C219,168.4,218.7,168.4,218.5,168.2L218.5,168.2z M158.4,99.6c-0.2-0.2-0.2-0.5-0.1-0.8c0.2-0.3,0.6-0.4,0.9-0.2c0,0,0,0,0,0
		c1.4,0.9,2.8,1.8,4.1,2.7c0.3,0.2,0.4,0.6,0.2,0.9c0,0,0,0,0,0c-0.2,0.3-0.6,0.4-0.9,0.2c0,0,0,0,0,0c-1.3-0.9-2.7-1.8-4.1-2.7
		C158.4,99.7,158.4,99.7,158.4,99.6L158.4,99.6z M215.3,158.9c0-0.1-0.1-0.1-0.1-0.2c-0.7-1.5-1.4-2.9-2.1-4.4
		c-0.2-0.3,0-0.7,0.3-0.9c0.3-0.2,0.7,0,0.9,0.3c0.8,1.5,1.5,2.9,2.1,4.4c0.1,0.3,0,0.7-0.3,0.9
		C215.8,159.2,215.5,159.2,215.3,158.9z M166.5,105.1c-0.2-0.3-0.2-0.7,0-0.9c0.2-0.2,0.6-0.2,0.8-0.1c1.3,1,2.7,1.9,4,2.9
		c0.3,0.2,0.3,0.6,0.1,0.9c-0.2,0.3-0.6,0.3-0.9,0.1C169.2,107.1,167.9,106.1,166.5,105.1C166.6,105.2,166.5,105.1,166.5,105.1
		L166.5,105.1z M174.3,111c-0.2-0.2-0.2-0.6,0-0.8c0.2-0.3,0.6-0.3,0.9-0.1c1.3,1,2.6,2,3.8,3.1c0.3,0.2,0.3,0.6,0.1,0.9
		c-0.2,0.3-0.6,0.3-0.9,0.1c0,0,0,0,0,0C176.9,113.1,175.7,112.1,174.3,111C174.4,111,174.3,111,174.3,111L174.3,111z M210.8,150.3
		c0,0-0.1-0.1-0.1-0.1c-0.8-1.4-1.7-2.8-2.6-4.1c-0.2-0.3-0.1-0.7,0.2-0.9c0.3-0.2,0.7-0.1,0.9,0.2c0.9,1.4,1.8,2.8,2.6,4.2
		c0.2,0.3,0.1,0.7-0.2,0.9C211.3,150.5,211,150.5,210.8,150.3z M181.9,117.3c-0.3-0.3-0.2-0.7,0-0.9c0.2-0.2,0.6-0.2,0.9,0
		c1.2,1.1,2.5,2.2,3.7,3.3c0.3,0.2,0.3,0.7,0,0.9c-0.2,0.3-0.6,0.3-0.9,0C184.3,119.4,183.1,118.4,181.9,117.3
		C181.9,117.3,181.9,117.3,181.9,117.3L181.9,117.3z M205.3,142.1C205.3,142.1,205.3,142.1,205.3,142.1c-1-1.4-2-2.6-3-3.9
		c-0.2-0.3-0.2-0.7,0.1-0.9c0,0,0,0,0,0c0.3-0.2,0.7-0.2,0.9,0.1c0,0,0,0,0,0c1,1.3,2,2.6,3,3.9c0.2,0.3,0.1,0.7-0.1,0.9
		C205.9,142.4,205.6,142.4,205.3,142.1L205.3,142.1z M189.1,123.9c-0.2-0.3-0.2-0.7,0.1-0.9c0.3-0.2,0.6-0.2,0.9,0
		c1.2,1.1,2.3,2.3,3.5,3.5c0.2,0.3,0.2,0.7,0,0.9c-0.3,0.3-0.7,0.3-0.9,0c0,0,0,0,0,0C191.4,126.2,190.3,125,189.1,123.9
		C189.1,123.9,189.1,123.9,189.1,123.9z M199.2,134.5L199.2,134.5c-1.1-1.2-2.2-2.5-3.3-3.7c-0.2-0.3-0.2-0.7,0-0.9
		c0.3-0.2,0.7-0.2,0.9,0c0,0,0,0,0,0l0,0c1.1,1.2,2.2,2.4,3.3,3.7c0.2,0.3,0.2,0.7-0.1,0.9C199.8,134.8,199.4,134.8,199.2,134.5
		L199.2,134.5z"/>
</mask>
<path class="st21" d="M116.1,232.8c-0.2-0.3-0.2-0.7,0-0.9c0.2-0.2,0.6-0.2,0.9,0c1.3,1,2.6,2,3.9,3c0.3,0.2,0.4,0.6,0.1,0.9
	c-0.2,0.3-0.6,0.4-0.9,0.1C118.7,234.9,117.4,233.9,116.1,232.8C116.1,232.9,116.1,232.9,116.1,232.8L116.1,232.8z M124,238.6
	c-0.2-0.2-0.2-0.6-0.1-0.8c0.2-0.3,0.6-0.4,0.9-0.2c1.4,0.9,2.7,1.7,4.2,2.5c0.3,0.2,0.4,0.6,0.2,0.9c-0.2,0.3-0.6,0.4-0.9,0.2
	c-1.4-0.8-2.8-1.7-4.2-2.6C124.1,238.7,124,238.6,124,238.6L124,238.6z M132.5,243.5c-0.2-0.3-0.2-0.7,0-0.9
	c0.2-0.2,0.5-0.2,0.7-0.1c1.4,0.7,2.9,1.4,4.4,2.1c0.3,0.1,0.5,0.5,0.3,0.9c-0.1,0.3-0.5,0.5-0.9,0.3c-1.5-0.7-3-1.4-4.5-2.1
	C132.6,243.6,132.5,243.6,132.5,243.5L132.5,243.5z M141.5,247.4c-0.2-0.3-0.2-0.7,0-0.9c0.2-0.2,0.4-0.2,0.7-0.1
	c1.5,0.6,3.1,1,4.6,1.5c0.3,0.1,0.6,0.5,0.5,0.8c-0.1,0.3-0.5,0.6-0.8,0.5c-1.6-0.4-3.2-0.9-4.7-1.5
	C141.7,247.5,141.6,247.5,141.5,247.4z M150.9,250c-0.2-0.3-0.2-0.7,0-0.9c0.2-0.1,0.4-0.2,0.6-0.2c1.6,0.3,3.2,0.5,4.8,0.7
	c0.4,0,0.6,0.4,0.6,0.7c0,0.4-0.4,0.6-0.7,0.6l0,0c-1.6-0.1-3.3-0.4-4.9-0.7C151.2,250.1,151,250.1,150.9,250z M160.7,250.8
	c-0.2-0.3-0.2-0.7,0-0.9c0.1-0.1,0.3-0.2,0.4-0.2c1.6,0,3.2-0.1,4.8-0.3c0.4,0,0.7,0.2,0.7,0.6c0,0.4-0.2,0.7-0.6,0.7
	c-1.6,0.2-3.3,0.3-5,0.4C161,251,160.8,250.9,160.7,250.8L160.7,250.8z M170.4,249.5c-0.2-0.3-0.2-0.7,0-0.9
	c0.1-0.1,0.2-0.1,0.3-0.2c1.6-0.4,3.1-0.9,4.6-1.5c0.3-0.1,0.7,0,0.8,0.4c0,0,0,0,0,0c0.1,0.3,0,0.7-0.4,0.8
	c-1.5,0.6-3.1,1.1-4.7,1.5C170.8,249.8,170.5,249.7,170.4,249.5L170.4,249.5z M179.5,246c-0.2-0.3-0.2-0.7,0-0.9
	c0,0,0.1-0.1,0.1-0.1c1.4-0.8,2.8-1.6,4.1-2.5c0.3-0.2,0.7-0.1,0.9,0.2c0.2,0.3,0.1,0.7-0.2,0.9c-1.4,0.9-2.8,1.8-4.2,2.6
	C180,246.3,179.7,246.2,179.5,246z M187.6,240.5C187.6,240.5,187.6,240.5,187.6,240.5c-0.3-0.3-0.2-0.7,0.1-1c0,0,0,0,0,0
	c1.3-1,2.5-2.1,3.6-3.2c0.3-0.3,0.7-0.3,0.9,0s0.3,0.7,0,0.9c0,0,0,0,0,0c-1.2,1.1-2.4,2.2-3.7,3.3
	C188.2,240.8,187.8,240.8,187.6,240.5z M194.6,233.7c-0.2-0.2-0.2-0.6,0-0.9c1-1.2,2-2.5,2.8-3.9c0.2-0.3,0.6-0.4,0.9-0.2
	c0.3,0.2,0.4,0.6,0.2,0.9c-0.9,1.4-1.9,2.8-2.9,4C195.3,233.9,194.9,234,194.6,233.7C194.6,233.7,194.6,233.7,194.6,233.7
	L194.6,233.7z M199.7,225.4c-0.2-0.2-0.2-0.5-0.1-0.7c0.6-1.5,1.1-3,1.4-4.5c0.1-0.4,0.4-0.6,0.8-0.5c0.4,0.1,0.6,0.4,0.5,0.8
	c-0.4,1.6-0.9,3.2-1.5,4.8c-0.1,0.3-0.5,0.5-0.9,0.3c0,0,0,0,0,0C199.9,225.5,199.8,225.5,199.7,225.4L199.7,225.4z M185.7,209.2
	c-0.2-0.3-0.2-0.7,0.1-0.9c0.2-0.2,0.6-0.2,0.9,0c1.1,1,2.4,2,3.9,2.7c0.3,0.2,0.4,0.6,0.3,0.9c-0.2,0.3-0.5,0.4-0.8,0.3
	C188.4,211.3,186.9,210.3,185.7,209.2C185.7,209.2,185.7,209.2,185.7,209.2L185.7,209.2z M182.9,205.2c-0.1-0.1-0.1-0.1-0.1-0.2
	c-0.8-2.1-0.6-3.9,0.6-5.3c0.2-0.3,0.6-0.3,0.9-0.1c0.3,0.2,0.3,0.7,0.1,0.9c0,0,0,0,0,0c-1.1,1.2-0.8,2.8-0.4,4
	c0.1,0.3,0,0.7-0.4,0.8C183.4,205.5,183.1,205.4,182.9,205.2L182.9,205.2z M194.4,213.4c-0.1-0.1-0.2-0.3-0.2-0.5
	c0.1-0.4,0.4-0.6,0.7-0.5c1.6,0.2,3.1,0.2,4.7,0c0.4-0.1,0.7,0.2,0.8,0.5c0,0,0,0,0,0c0.1,0.4-0.2,0.7-0.5,0.8
	c-1.7,0.3-3.4,0.3-5.1,0C194.6,213.6,194.5,213.5,194.4,213.4L194.4,213.4z M201.7,215.9c-0.1-0.1-0.2-0.3-0.2-0.4
	c0-1.6-0.2-3.2-0.6-4.7c-0.1-0.4,0.1-0.7,0.5-0.8c0.3-0.1,0.7,0.1,0.8,0.5c0.4,1.6,0.6,3.3,0.6,5c0,0.4-0.3,0.7-0.7,0.7c0,0,0,0,0,0
	C202,216.1,201.9,216,201.7,215.9L201.7,215.9z M187.8,198.7c-0.2-0.3-0.2-0.7,0-0.9c0.1-0.1,0.2-0.2,0.4-0.2c1.7-0.1,3.4,0.2,5.1,1
	c0.3,0.2,0.5,0.6,0.3,0.9c-0.2,0.3-0.5,0.4-0.8,0.3c-1.5-0.7-3-1-4.4-0.9C188.2,198.9,188,198.9,187.8,198.7L187.8,198.7z
	 M203.9,211.8c-0.2-0.3-0.2-0.7,0-0.9c0,0,0.1-0.1,0.1-0.1c1.3-0.7,2.6-1.6,3.9-2.7c0.3-0.2,0.7-0.2,0.9,0l0,0
	c0.2,0.3,0.2,0.7,0,0.9c0,0,0,0,0,0c-1.3,1.2-2.7,2.2-4.1,2.9C204.4,212.1,204.1,212,203.9,211.8z M199.4,206.5c0,0-0.1-0.1-0.1-0.1
	c-0.8-1.4-1.7-2.7-2.8-3.8c-0.3-0.3-0.2-0.7,0-0.9c0,0,0,0,0,0c0.3-0.3,0.7-0.2,0.9,0c0,0,0,0,0,0c1.2,1.2,2.2,2.6,3,4.1
	c0.2,0.3,0,0.7-0.3,0.9C199.9,206.7,199.6,206.7,199.4,206.5z M211.2,205.4c-0.2-0.2-0.2-0.6,0-0.8c0.9-1.2,1.8-2.6,2.6-4
	c0.2-0.3,0.6-0.4,0.9-0.2c0.3,0.2,0.4,0.6,0.2,0.9c-0.9,1.5-1.8,2.9-2.7,4.2C212,205.6,211.5,205.7,211.2,205.4
	C211.2,205.4,211.2,205.4,211.2,205.4L211.2,205.4z M216,196.9c-0.2-0.2-0.2-0.5-0.1-0.7c0.6-1.5,1.2-3,1.8-4.5
	c0.1-0.3,0.5-0.5,0.8-0.4c0.3,0.1,0.5,0.5,0.4,0.8c-0.5,1.6-1.1,3.1-1.8,4.6c-0.1,0.3-0.5,0.5-0.9,0.3
	C216.1,197,216.1,196.9,216,196.9z M219.1,187.6c-0.1-0.2-0.2-0.4-0.2-0.6c0.3-1.6,0.6-3.2,0.7-4.8c0-0.4,0.4-0.6,0.7-0.6
	c0.3,0,0.6,0.3,0.6,0.7c-0.1,1.7-0.4,3.3-0.7,4.9c-0.1,0.4-0.4,0.6-0.8,0.5C219.3,187.7,219.2,187.7,219.1,187.6L219.1,187.6z
	 M220,177.9c-0.1-0.1-0.2-0.3-0.2-0.4c-0.1-1.6-0.2-3.2-0.5-4.8c-0.1-0.4,0.2-0.7,0.5-0.7c0,0,0,0,0,0c0.4-0.1,0.7,0.2,0.7,0.5
	c0,0,0,0,0,0c0.3,1.7,0.4,3.3,0.5,4.9c0,0.4-0.3,0.7-0.6,0.7c0,0,0,0,0,0C220.3,178.1,220.1,178,220,177.9z M149.9,94.8
	c-0.2-0.2-0.2-0.5-0.1-0.7c0.2-0.3,0.5-0.5,0.9-0.3c1.3,0.6,2.7,1.4,4.4,2.3c0.3,0.2,0.4,0.6,0.2,0.9c-0.2,0.3-0.6,0.4-0.9,0.2
	c-1.6-0.9-3-1.7-4.3-2.3C150,94.9,149.9,94.9,149.9,94.8z M218.5,168.2c-0.1-0.1-0.1-0.2-0.2-0.3c-0.4-1.6-0.9-3.1-1.4-4.6
	c-0.1-0.3,0.1-0.7,0.4-0.8c0,0,0,0,0,0c0.3-0.1,0.7,0.1,0.8,0.4c0,0,0,0,0,0c0.6,1.6,1,3.2,1.4,4.7c0.1,0.3-0.1,0.7-0.5,0.8
	C219,168.4,218.7,168.4,218.5,168.2L218.5,168.2z M158.4,99.6c-0.2-0.2-0.2-0.5-0.1-0.8c0.2-0.3,0.6-0.4,0.9-0.2c0,0,0,0,0,0
	c1.4,0.9,2.8,1.8,4.1,2.7c0.3,0.2,0.4,0.6,0.2,0.9c0,0,0,0,0,0c-0.2,0.3-0.6,0.4-0.9,0.2c0,0,0,0,0,0c-1.3-0.9-2.7-1.8-4.1-2.7
	C158.4,99.7,158.4,99.7,158.4,99.6L158.4,99.6z M215.3,158.9c0-0.1-0.1-0.1-0.1-0.2c-0.7-1.5-1.4-2.9-2.1-4.4
	c-0.2-0.3,0-0.7,0.3-0.9c0.3-0.2,0.7,0,0.9,0.3c0.8,1.5,1.5,2.9,2.1,4.4c0.1,0.3,0,0.7-0.3,0.9C215.8,159.2,215.5,159.2,215.3,158.9
	z M166.5,105.1c-0.2-0.3-0.2-0.7,0-0.9c0.2-0.2,0.6-0.2,0.8-0.1c1.3,1,2.7,1.9,4,2.9c0.3,0.2,0.3,0.6,0.1,0.9
	c-0.2,0.3-0.6,0.3-0.9,0.1C169.2,107.1,167.9,106.1,166.5,105.1C166.6,105.2,166.5,105.1,166.5,105.1L166.5,105.1z M174.3,111
	c-0.2-0.2-0.2-0.6,0-0.8c0.2-0.3,0.6-0.3,0.9-0.1c1.3,1,2.6,2,3.8,3.1c0.3,0.2,0.3,0.6,0.1,0.9c-0.2,0.3-0.6,0.3-0.9,0.1
	c0,0,0,0,0,0C176.9,113.1,175.7,112.1,174.3,111C174.4,111,174.3,111,174.3,111L174.3,111z M210.8,150.3c0,0-0.1-0.1-0.1-0.1
	c-0.8-1.4-1.7-2.8-2.6-4.1c-0.2-0.3-0.1-0.7,0.2-0.9c0.3-0.2,0.7-0.1,0.9,0.2c0.9,1.4,1.8,2.8,2.6,4.2c0.2,0.3,0.1,0.7-0.2,0.9
	C211.3,150.5,211,150.5,210.8,150.3z M181.9,117.3c-0.3-0.3-0.2-0.7,0-0.9c0.2-0.2,0.6-0.2,0.9,0c1.2,1.1,2.5,2.2,3.7,3.3
	c0.3,0.2,0.3,0.7,0,0.9c-0.2,0.3-0.6,0.3-0.9,0C184.3,119.4,183.1,118.4,181.9,117.3C181.9,117.3,181.9,117.3,181.9,117.3
	L181.9,117.3z M205.3,142.1C205.3,142.1,205.3,142.1,205.3,142.1c-1-1.4-2-2.6-3-3.9c-0.2-0.3-0.2-0.7,0.1-0.9c0,0,0,0,0,0
	c0.3-0.2,0.7-0.2,0.9,0.1c0,0,0,0,0,0c1,1.3,2,2.6,3,3.9c0.2,0.3,0.1,0.7-0.1,0.9C205.9,142.4,205.6,142.4,205.3,142.1L205.3,142.1z
	 M189.1,123.9c-0.2-0.3-0.2-0.7,0.1-0.9c0.3-0.2,0.6-0.2,0.9,0c1.2,1.1,2.3,2.3,3.5,3.5c0.2,0.3,0.2,0.7,0,0.9
	c-0.3,0.3-0.7,0.3-0.9,0c0,0,0,0,0,0C191.4,126.2,190.3,125,189.1,123.9C189.1,123.9,189.1,123.9,189.1,123.9z M199.2,134.5
	L199.2,134.5c-1.1-1.2-2.2-2.5-3.3-3.7c-0.2-0.3-0.2-0.7,0-0.9c0.3-0.2,0.7-0.2,0.9,0c0,0,0,0,0,0l0,0c1.1,1.2,2.2,2.4,3.3,3.7
	c0.2,0.3,0.2,0.7-0.1,0.9C199.8,134.8,199.4,134.8,199.2,134.5L199.2,134.5z"/>
<path class="st3" d="M135.2,75.1l-3.6,7.2l-40-17.5L135.2,75.1L135.2,75.1z"/>
<path class="st2" d="M126.6,89.9l-7.8,2.4L93.4,65.6L126.6,89.9L126.6,89.9z"/>
<path class="st2" d="M91.6,64.8l49.8,40.5l-4.8-21.8L91.6,64.8L91.6,64.8z"/>
<path class="st2" d="M135.2,75.1L91.6,64.8l41.4-4L135.2,75.1L135.2,75.1z"/>
<path class="st12" d="M377.9,214.1l-39.3,39.3l-12-5.5c-4.3-1.9-9.1-2.1-13.5-0.4c-4.1,1.6-10.3,3.1-18.2,2.6
	c-15.3-0.9-27.8-5.7-27.8-5.7l24.2-24.5c0,0-15.8-11.4-21.8-41.6c-0.6-3.2-2.4-6.1-4.9-8.3l-14.3-12c0,0-17.4-1-23.8-17.4
	c0,0-1.8-11.5,2.5-11c0,0,49.2,20.1,55.7,23.9c6.5,3.8,11.5,5.3,25.9,23.3c3.8,4.8,7.2,8.5,10.2,11.4c5.7,5.6,12.5,9.9,20,12.6
	L377.9,214.1z"/>
<path class="st22" d="M186,211.4c-0.7,0.3-1.4,0.6-2.1,0.9l-0.2-0.5c0.7-0.3,1.4-0.6,2-0.9L186,211.4z"/>
<path class="st12" d="M150.7,171.9c0,0-12.6,2.5-11,7.5c1.6,5,24.8,5.3,24.8,5.3L150.7,171.9L150.7,171.9z M172.8,194
	c0,0-12.6,2.5-11,7.5c1.6,5,24.8,5.3,24.8,5.3L172.8,194L172.8,194z M187.7,209c0,0-12.6,2.5-11,7.5s24.8,5.3,24.8,5.3L187.7,209z"
	/>
<path class="st13" d="M145.2,154.9l45.7-45.7c3.4-3.4,8.9-3.4,12.3,0l76,76l17.3,17.3c3.4,3.4,3.4,8.9,0,12.3l-45.7,45.7
	c-3.4,3.4-8.9,3.4-12.3,0l-76-76l-17.3-17.3C141.8,163.8,141.8,158.2,145.2,154.9L145.2,154.9z"/>
<path class="st3" d="M150.4,166.5l52-52l86.8,86.8l-52,52L150.4,166.5z"/>
<path class="st12" d="M260.2,164.1c0,0,0.9,1.5,0.7,2.8l-10.5-8.9c0,0-12.8-0.7-20.5-11.3c-2.6-3.6-3.9-8-3.6-12.5
	c0.2-2.5,0.9-4.8,2.9-4.6c0,0,23.2,9.5,39.8,16.6L260.2,164.1L260.2,164.1z"/>
<circle class="st2" cx="217.2" cy="181.7" r="27.3"/>
<path class="st16" d="M231.6,183.9l-8.5,4.1l-2.8,8c-0.8,2.2-3.8,2.4-4.8,0.3L205,174.6c-1-2.1,1-4.4,3.2-3.6l23.1,8.1
	C233.6,179.8,233.7,182.9,231.6,183.9L231.6,183.9z"/>
<path class="st23" d="M185.8,52.5h30.6c1.9,0,3.4,1.5,3.4,3.4V76c0,1.9-1.5,3.4-3.4,3.4h-30.6c-1.9,0-3.4-1.5-3.4-3.4c0,0,0,0,0,0
	V55.9C182.4,54,183.9,52.5,185.8,52.5L185.8,52.5z"/>
<path class="st23" d="M182.6,54.8l15.5,11.1c1.7,1.2,4.1,1.2,5.8,0l15.6-11.1"/>
<path class="st23" d="M251.3,87.4h30.6c1.9,0,3.4,1.5,3.4,3.4v20.1c0,1.9-1.5,3.4-3.4,3.4c0,0,0,0,0,0h-30.6c-1.9,0-3.4-1.5-3.4-3.4
	V90.8C247.9,89,249.5,87.4,251.3,87.4z"/>
<path class="st23" d="M248.2,89.8l15.5,11.1c1.7,1.2,4.1,1.2,5.8,0l15.6-11.1"/>
<path class="st23" d="M94,140.5h30.6c1.9,0,3.4,1.5,3.4,3.4v20.1c0,1.9-1.5,3.4-3.4,3.4l0,0H94c-1.9,0-3.4-1.5-3.4-3.4c0,0,0,0,0,0
	v-20.1C90.6,142,92.1,140.5,94,140.5z"/>
<path class="st23" d="M90.8,142.8l15.5,11.1c1.7,1.2,4.1,1.2,5.8,0l15.6-11.1"/>
<path class="st23" d="M46,167.1h25.1c1.5,0,2.8,1.2,2.8,2.8v16.5c0,1.5-1.2,2.8-2.8,2.8l0,0H46c-1.5,0-2.8-1.2-2.8-2.8c0,0,0,0,0,0
	v-16.5C43.2,168.4,44.5,167.1,46,167.1z"/>
<path class="st23" d="M43.4,169l12.7,9.1c1.4,1,3.3,1,4.8,0l12.8-9.1"/>
<path class="st23" d="M90.8,205.1h20.1c1.2,0,2.2,1,2.2,2.2v12.8c0,1.2-1,2.2-2.2,2.2H90.8c-1.2,0-2.2-1-2.2-2.2v-12.8
	C88.6,206.1,89.6,205.1,90.8,205.1z"/>
<path class="st23" d="M88.6,206.3l10.3,7.3c1.2,0.8,2.7,0.8,3.9,0l10.3-7.4"/>
<linearGradient id="SVGID_1_" gradientUnits="userSpaceOnUse" x1="257.2098" y1="87.357" x2="307.4013" y2="111.0691" gradientTransform="matrix(1 0 0 -1 0 224.3517)">
	<stop  offset="0" style="stop-color:#FFFFFF"/>
	<stop  offset="1" style="stop-color:#EEEEEE"/>
</linearGradient>
<path class="st0" d="M278.7,133.5c-5.7,1.4-11.8-3.5-11.8-3.5s3.2-7.1,9-8.4c5.7-1.4,11.8,3.5,11.8,3.5S284.5,132.1,278.7,133.5z"/>
<linearGradient id="SVGID_00000079465341106573687680000013013627839430528662_" gradientUnits="userSpaceOnUse" x1="162.8878" y1="-9.3949" x2="122.8847" y2="32.7878" gradientTransform="matrix(1 0 0 -1 0 224.3517)">
	<stop  offset="0" style="stop-color:#FFFFFF"/>
	<stop  offset="1" style="stop-color:#EEEEEE"/>
</linearGradient>
<path style="fill:url(#SVGID_00000079465341106573687680000013013627839430528662_);" d="M143.2,222.1c5.1,3.5,12.8,1.1,12.8,1.1
	s-0.5-8.1-5.6-11.6c-5.1-3.5-12.8-1.1-12.8-1.1S138.1,218.6,143.2,222.1L143.2,222.1z"/>
<linearGradient id="SVGID_00000103968636487996551490000013826952038590962341_" gradientUnits="userSpaceOnUse" x1="33.4384" y1="49.1165" x2="-5.5698" y2="110.266" gradientTransform="matrix(1 0 0 -1 0 224.3517)">
	<stop  offset="0" style="stop-color:#FFFFFF"/>
	<stop  offset="1" style="stop-color:#EEEEEE"/>
</linearGradient>
<path style="fill:url(#SVGID_00000103968636487996551490000013826952038590962341_);" d="M12.1,156.4c5.4,5.5,15.5,4.3,15.5,4.3
	s1.3-10.1-4.1-15.6c-5.4-5.5-15.5-4.3-15.5-4.3S6.7,150.9,12.1,156.4L12.1,156.4z"/>
<circle class="st2" cx="335.3" cy="81" r="4.2"/>
<ellipse class="st2" cx="66.1" cy="238.1" rx="11.2" ry="10.9"/>
<ellipse class="st2" cx="348.8" cy="135.9" rx="24.4" ry="23.6"/>
<circle class="st2" cx="65.9" cy="72.5" r="8.2"/>
<circle class="st2" cx="263.5" cy="62.6" r="7.6"/>
<circle class="st6" cx="201.5" cy="260.4" r="6.9"/>
<circle class="st6" cx="11.2" cy="186" r="7.2"/>
<circle class="st6" cx="290.8" cy="42.6" r="5.4"/>
<circle class="st6" cx="142.9" cy="124.2" r="3.5"/>
<circle class="st6" cx="22.1" cy="72.4" r="3.4"/>
<ellipse class="st6" cx="361.3" cy="187.8" rx="3.6" ry="2.9"/>
<ellipse class="st6" cx="311.7" cy="142.8" rx="2.9" ry="3.6"/>
<circle class="st6" cx="239.2" cy="21.7" r="7.4"/>
<path class="st6" d="M302.2,64.1L302.2,64.1c0.7,8,6.6,8.1,6.6,8.1s-6.5,0.1-6.5,9.3c0-9.2-6.5-9.3-6.5-9.3S301.7,72.1,302.2,64.1
	L302.2,64.1z M93.1,6.5h0.1c0.7,9.5,7.6,9.7,7.6,9.7s-7.7,0.2-7.7,11.2c0-11-7.7-11.2-7.7-11.2S92.5,16.1,93.1,6.5L93.1,6.5z
	 M164.5,61.1L164.5,61.1c0.6,6.7,5.6,6.8,5.6,6.8s-5.5,0.1-5.5,7.9c0-7.8-5.5-7.9-5.5-7.9S164.1,67.8,164.5,61.1L164.5,61.1z
	 M233.8,42.7L233.8,42.7c0.6,6.7,5.6,6.8,5.6,6.8s-5.5,0.1-5.5,7.9c0-7.8-5.5-7.9-5.5-7.9S233.3,49.4,233.8,42.7L233.8,42.7z"/>
<path class="st2" d="M57.1,96.9L57.1,96.9c13.9,0,25.1,11.2,25.1,25.1l0,0c0,13.9-11.2,25.1-25.1,25.1l0,0
	c-13.9,0-25.1-11.2-25.1-25.1l0,0C32,108.2,43.2,96.9,57.1,96.9z"/>
<path class="st16" d="M68.5,132.6v1.7c0,0.9-0.7,1.7-1.7,1.7H47c-0.9,0-1.7-0.8-1.7-1.7v-1.7c0-5.1,5.7-8.4,11.6-8.4
	C62.8,124.2,68.5,127.5,68.5,132.6 M61.1,109.4c2.3,2.3,2.3,6,0,8.3c-2.3,2.3-6,2.3-8.3,0c-2.3-2.3-2.3-6,0-8.3
	C55,107.1,58.8,107.1,61.1,109.4z"/>
</svg>
