<?xml version="1.0" encoding="utf-8"?>
<!-- Generator: Adobe Illustrator 27.8.1, SVG Export Plug-In . SVG Version: 6.00 Build 0)  -->
<svg version="1.1" id="Layer_1" xmlns="http://www.w3.org/2000/svg" xmlns:xlink="http://www.w3.org/1999/xlink" x="0px" y="0px"
	 viewBox="0 0 544.1 394" style="enable-background:new 0 0 544.1 394;" xml:space="preserve">
<style type="text/css">
	.st0{fill:url(#SVGID_1_);}
	.st1{fill:url(#SVGID_00000083081920565006812310000009768182236396946855_);}
	.st2{fill:#6D8C8A;}
	.st3{fill:#FFFFFF;}
	.st4{fill:url(#SVGID_00000170979416551679064560000002936525443012229257_);}
	.st5{fill:url(#SVGID_00000142858254751103670010000012935739626474264494_);}
	.st6{fill:#E1E4E5;}
	.st7{fill:none;stroke:#E1E4E5;stroke-width:2.961;stroke-linecap:round;stroke-linejoin:round;}
	.st8{fill:url(#SVGID_00000057129532251540753120000005194310166265561531_);}
	.st9{fill:url(#SVGID_00000041995393678322705410000002042010178000708263_);}
	.st10{fill:url(#SVGID_00000023257098357342149770000007245264922303561869_);}
	.st11{fill:none;}
	.st12{fill:#F8AE9D;}
	.st13{fill:#23443B;}
	.st14{fill:#CC6144;}
	.st15{fill:#FFFFFF;stroke:#E1E4E5;stroke-width:2.5135;}
	.st16{fill-rule:evenodd;clip-rule:evenodd;fill:#FFFFFF;}
	.st17{fill:url(#SVGID_00000047036777293893060900000015987000733398651280_);}
	.st18{fill:url(#SVGID_00000110468994622626303440000010203387700935594936_);}
	.st19{fill:url(#SVGID_00000019657340924133729320000002801213305314508463_);}
	.st20{fill:#FFFFFF;filter:url(#Adobe_OpacityMaskFilter);}
	.st21{mask:url(#a_00000158005664807144497710000012810765801847242428_);fill:none;stroke:#E1E4E5;stroke-width:2.2321;}
	.st22{fill:#31446C;}
	.st23{fill:none;stroke:#E1E4E5;stroke-width:2.2321;stroke-linecap:round;stroke-linejoin:round;}
	.st24{fill:url(#SVGID_00000067937700991971532420000009901124849760986514_);}
	.st25{fill:url(#SVGID_00000060023598744612711080000014364529428153825981_);}
	.st26{fill:url(#SVGID_00000080165284971504544350000000072241016485162156_);}
	.st27{fill-rule:evenodd;clip-rule:evenodd;fill:#FFFFFF;stroke:#E1E4E5;stroke-width:2.3281;}
	.st28{fill:none;stroke:#E1E4E5;stroke-width:2.3281;stroke-linecap:round;stroke-linejoin:round;}
	.st29{fill-rule:evenodd;clip-rule:evenodd;fill:#6D8C8A;stroke:#6D8C8A;stroke-width:31.4287;stroke-miterlimit:10;}
	.st30{fill:none;stroke:#FFFFFF;stroke-width:28.0775;stroke-linecap:round;stroke-linejoin:round;}
	.st31{fill:url(#SVGID_00000129889996448521282440000013684432285625191831_);}
	.st32{fill:url(#SVGID_00000101062152921594232800000006989852220773534394_);}
	.st33{fill:url(#SVGID_00000152965516919218556400000002829519356527288754_);}
	.st34{fill:url(#SVGID_00000037694931037890618530000008151275979221760191_);}
	.st35{fill:url(#SVGID_00000012470140676143705780000000903789836036369298_);}
	.st36{fill:url(#SVGID_00000108284600372754558990000013535172762414840738_);}
	.st37{fill:none;stroke:#E1E4E5;stroke-width:5.1494;stroke-linecap:round;stroke-linejoin:round;}
	.st38{fill:none;stroke:#E1E4E5;stroke-width:3.8286;stroke-miterlimit:10;}
	.st39{fill:#6D8C8A;stroke:#6D8C8A;stroke-width:12.28;stroke-linecap:round;stroke-linejoin:round;stroke-miterlimit:10;}
	.st40{fill:url(#SVGID_00000158737915710733359750000012005202252512905905_);}
	.st41{fill:url(#SVGID_00000080903418670798012900000012017887260046011279_);}
	.st42{fill:url(#SVGID_00000121246358965135209710000017090252232325021873_);}
	.st43{opacity:0.1;enable-background:new    ;}
	.st44{fill:url(#SVGID_00000134937371863810669990000012985876177858710424_);}
	.st45{fill:#DBDBDB;stroke:#E1E4E5;stroke-width:1.148;}
	.st46{fill:none;stroke:#E1E4E5;stroke-width:11.481;stroke-miterlimit:10;}
</style>
<linearGradient id="SVGID_1_" gradientUnits="userSpaceOnUse" x1="311.6818" y1="-1351.0601" x2="312.9828" y2="-1083.5331" gradientTransform="matrix(1 0 0 -1 0 -1185.5824)">
	<stop  offset="0" style="stop-color:#FFFFFF"/>
	<stop  offset="1" style="stop-color:#EEEEEE"/>
</linearGradient>
<path class="st0" d="M191.1,108.8c4.2-17,43.9-41.9,65.2-26.9c6.5-32.5,12.6-52.7,33.9-68.7c21.3-16,56.8,4.9,62.5,48.7
	c5.7-18,34.7-42.3,58-21.8c21.6,18.9,23.7,50.7,21.5,68.7L191.1,108.8L191.1,108.8z"/>
<linearGradient id="SVGID_00000096738855738944316410000008866754256201576353_" gradientUnits="userSpaceOnUse" x1="133.3611" y1="-1370.2385" x2="132.3251" y2="-1157.1965" gradientTransform="matrix(1 0 0 -1 0 -1185.5824)">
	<stop  offset="0" style="stop-color:#FFFFFF"/>
	<stop  offset="1" style="stop-color:#EEEEEE"/>
</linearGradient>
<path style="fill:url(#SVGID_00000096738855738944316410000008866754256201576353_);" d="M229.4,139.5c-3.4-13.6-35-33.4-51.9-21.4
	c-5.2-25.9-10-42-27-54.7c-17-12.7-45.3,3.9-49.8,38.8C96.1,87.8,73,68.5,54.5,84.8c-17.2,15.1-18.9,40.3-17.1,54.7L229.4,139.5
	L229.4,139.5z"/>
<linearGradient id="SVGID_00000064352961777841672520000008408993618292754610_" gradientUnits="userSpaceOnUse" x1="433.1073" y1="-1442.1843" x2="432.0513" y2="-1224.9844" gradientTransform="matrix(1 0 0 -1 0 -1185.5824)">
	<stop  offset="0" style="stop-color:#FFFFFF"/>
	<stop  offset="1" style="stop-color:#EEEEEE"/>
</linearGradient>
<path style="fill:url(#SVGID_00000064352961777841672520000008408993618292754610_);" d="M531.1,210.6c-3.4-13.8-35.7-34-52.9-21.9
	c-5.3-26.4-10.2-42.8-27.5-55.8c-17.3-13-46.2,4-50.8,39.5c-4.6-14.6-28.2-34.3-47.1-17.7c-17.5,15.4-19.3,41.1-17.4,55.8
	L531.1,210.6L531.1,210.6L531.1,210.6z"/>
<path class="st2" d="M215.4,164.5l-9.6,154.1H31L49.1,256l58.3-13.3c3.1-0.8,5.5-2.5,6.6-4.7l34.8-64.6L215.4,164.5z"/>
<path class="st3" d="M196.2,180.7l-4.4,55.6l-63.1,4.3l27.2-57.8L196.2,180.7L196.2,180.7z M41.4,256.2l14.2-1.6l-8.3,21.2l-7.3-0.6
	c-1.6-0.1-2.8-1.2-2.7-2.3l1.6-14.6C38.9,257.1,40,256.3,41.4,256.2z"/>
<path class="st2" d="M120.9,224.5c3.4,2.9,0.3,29-2.1,28.6c-2.4-0.4-7.6-1.4-9.7-3.1s-13.9-22.8-11-27.2
	C100.9,218.5,118.3,222.3,120.9,224.5L120.9,224.5z"/>
<path class="st43" d="M120.9,224.5c3.4,2.9,0.3,29-2.1,28.6c-2.4-0.4-7.6-1.4-9.7-3.1s-13.9-22.8-11-27.2
	C100.9,218.5,118.3,222.3,120.9,224.5L120.9,224.5z"/>
<path class="st2" d="M210.7,318.5h295.7l-21.4-74H223.8L210.7,318.5L210.7,318.5z"/>
<linearGradient id="SVGID_00000042719285224324771390000016234426492495222159_" gradientUnits="userSpaceOnUse" x1="265.5516" y1="-1524.7874" x2="265.5666" y2="-1481.5713" gradientTransform="matrix(1 0 0 -1 0 -1185.5824)">
	<stop  offset="0" style="stop-color:#FFFFFF"/>
	<stop  offset="1" style="stop-color:#EEEEEE"/>
</linearGradient>
<path style="fill:url(#SVGID_00000042719285224324771390000016234426492495222159_);" d="M508.2,330.1H22.9v-16.3h485.2L508.2,330.1
	L508.2,330.1z"/>
<path class="st45" d="M65.7,332v-22.2L12,306.5L8.1,332H65.7z M518.6,306.8l-33.5,3.5V332h37.6L518.6,306.8L518.6,306.8z"/>
<path class="st46" d="M362.5,335c0,0,5.1-37.8,42.5-37.8s43,37.8,43,37.8"/>
<path class="st13" d="M405.2,298.4c53.5,0,53.6,83.2,0,83.2C351.7,381.6,351.6,298.4,405.2,298.4z"/>
<path class="st6" d="M405.2,321.1c24.3,0,24.3,37.8,0,37.8C380.9,358.9,380.9,321.1,405.2,321.1z"/>
<path class="st46" d="M105.6,335c0,0,5.1-37.8,42.5-37.8c37.4,0,43,37.8,43,37.8"/>
<path class="st13" d="M148.2,298.4c53.5,0,53.6,83.2,0,83.2C94.6,381.6,94.5,298.4,148.2,298.4z"/>
<path class="st6" d="M148.2,321.1c24.3,0,24.3,37.8,0,37.8C123.9,358.9,123.8,321.1,148.2,321.1z"/>
<path class="st2" d="M215.4,304.8l17-4l9.1-127.4l-16.1-9.6L215.4,304.8L215.4,304.8z"/>
</svg>
