<?xml version="1.0" encoding="utf-8"?>
<!-- Generator: Adobe Illustrator 27.8.1, SVG Export Plug-In . SVG Version: 6.00 Build 0)  -->
<svg version="1.1" id="Layer_1" xmlns="http://www.w3.org/2000/svg" xmlns:xlink="http://www.w3.org/1999/xlink" x="0px" y="0px"
	 viewBox="0 0 595.1 481.1" style="enable-background:new 0 0 595.1 481.1;" xml:space="preserve">
<style type="text/css">
	.st0{fill:none;}
	.st1{fill:url(#SVGID_1_);}
	.st2{fill:url(#SVGID_00000003066110624334760930000008118294460498127767_);}
	.st3{fill:#6D8C8A;}
	.st4{fill:#FFFFFF;}
	.st5{fill:url(#SVGID_00000059267699574280503650000002799617952178116271_);}
	.st6{fill:url(#SVGID_00000172407245961191412980000014427423996931090343_);}
	.st7{fill:#E1E4E5;}
	.st8{fill:none;stroke:#E1E4E5;stroke-width:5.029;stroke-linecap:round;stroke-linejoin:round;}
	.st9{fill:url(#SVGID_00000168830073514411609570000011514727685036061626_);}
	.st10{fill:url(#SVGID_00000065780354286624720680000015829243402493795461_);}
	.st11{fill:url(#SVGID_00000083053790575984944150000005505217628157236878_);}
</style>
<path class="st0" d="M-134.9-63h900v600h-900V-63z"/>
<linearGradient id="SVGID_1_" gradientUnits="userSpaceOnUse" x1="366.0375" y1="-185.7487" x2="174.9415" y2="676.4083" gradientTransform="matrix(1 0 0 -1 0 475.9561)">
	<stop  offset="0" style="stop-color:#FFFFFF"/>
	<stop  offset="1" style="stop-color:#EEEEEE"/>
</linearGradient>
<path class="st1" d="M489.7,348.1c2.8,52.3-99.3,158.5-225.2,119.2c-58.6-18.3-53.6-48.7-98.1-88.7c-26.5-23.8-64.7-41.9-75.3-76.5
	c-9.2-29.9-3.5-62.1,12.3-83c35.7-47,107.9-79.3,178.9-5.1S482.4,213.4,489.7,348.1z"/>
<linearGradient id="SVGID_00000076562093585186066380000016397148994504646544_" gradientUnits="userSpaceOnUse" x1="391.4928" y1="253.3582" x2="316.6499" y2="589.6692" gradientTransform="matrix(1 0 0 -1 0 475.9561)">
	<stop  offset="0" style="stop-color:#FFFFFF"/>
	<stop  offset="1" style="stop-color:#EEEEEE"/>
</linearGradient>
<path style="fill:url(#SVGID_00000076562093585186066380000016397148994504646544_);" d="M448.2,125.4c-8.4,15-26.8,17-56.2,14.2
	c-22.2-2.1-42.4-3.8-64.5-15.9c-15.5-8.4-27.8-19.9-36.7-31c-9.7-12-23.3-25.8-16.6-39.4c9.1-18.7,61.9-34.5,113.2-8.7
	C443.6,73,456.5,110.8,448.2,125.4L448.2,125.4z"/>
<path class="st3" d="M399.6,25.5c-0.5-0.2-1.1-0.4-1.7-0.5c-0.2-0.1-0.4-0.1-0.6-0.2c-0.4-0.1-0.8-0.2-1.2-0.3
	c-0.2,0-0.4-0.1-0.6-0.1c-0.4-0.1-0.8-0.1-1.2-0.2c-0.2,0-0.5-0.1-0.7-0.1c-0.2,0-0.3,0-0.5-0.1c-0.3,0-0.5,0-0.8-0.1
	c-0.1,0-0.3,0-0.4,0c-0.4,0-0.8,0-1.3,0H196.6c-1.8,0-3.5,0.2-5.3,0.5c-11.1,2.3-19.6,11.6-20.8,23c-0.1,0.9-0.1,1.8-0.1,2.7v397.7
	c0,11.4,7.2,21,17.3,24.7c0,0,0.1,0,0.1,0c0.5,0.2,1,0.3,1.5,0.5c0.2,0.1,0.4,0.1,0.6,0.2c0.2,0,0.4,0.1,0.6,0.1
	c0.2,0,0.4,0.1,0.6,0.1c0.2,0,0.4,0.1,0.6,0.1c0.4,0.1,0.8,0.1,1.2,0.2c0.2,0,0.5,0.1,0.7,0.1c0.4,0.1,0.9,0.1,1.3,0.1
	c0.1,0,0.3,0,0.4,0c0.4,0,0.8,0,1.3,0h194.1c0.9,0,1.8,0,2.7-0.1c12.3-1.3,22.1-11.1,23.4-23.4c0.1-0.9,0.1-1.8,0.1-2.7V50.2
	C416.8,38.9,409.6,29.2,399.6,25.5L399.6,25.5z"/>
<path class="st4" d="M293.6,455.1c8.3,0,15.1-6.8,15.1-15.1s-6.8-15.1-15.1-15.1s-15.1,6.8-15.1,15.1S285.3,455.1,293.6,455.1z"/>
<path class="st4" d="M271,46.5h46.5c1.4,0,2.5,1.1,2.5,2.5v0c0,1.4-1.1,2.5-2.5,2.5H271c-1.4,0-2.5-1.1-2.5-2.5v0
	C268.5,47.6,269.6,46.5,271,46.5z"/>
<linearGradient id="SVGID_00000166657064127013851120000015780936568275109053_" gradientUnits="userSpaceOnUse" x1="519.492" y1="247.7786" x2="518.709" y2="410.9686" gradientTransform="matrix(1 0 0 -1 0 475.9561)">
	<stop  offset="0" style="stop-color:#FFFFFF"/>
	<stop  offset="1" style="stop-color:#EEEEEE"/>
</linearGradient>
<path style="fill:url(#SVGID_00000166657064127013851120000015780936568275109053_);" d="M594.1,193.6
	c-2.6-10.4-27.2-25.6-40.3-16.4c-4-19.8-7.8-32.2-21-41.9c-13.2-9.8-35.2,3-38.7,29.7c-3.5-11-21.5-25.8-35.9-13.3
	c-13.3,11.5-14.7,30.9-13.3,41.9L594.1,193.6L594.1,193.6z"/>
<linearGradient id="SVGID_00000091009315872052667790000010725305057036106382_" gradientUnits="userSpaceOnUse" x1="87.2909" y1="350.8473" x2="87.8189" y2="460.7513" gradientTransform="matrix(1 0 0 -1 0 475.9561)">
	<stop  offset="0" style="stop-color:#FFFFFF"/>
	<stop  offset="1" style="stop-color:#EEEEEE"/>
</linearGradient>
<path style="fill:url(#SVGID_00000091009315872052667790000010725305057036106382_);" d="M37.1,101.8c1.7-7,18.3-17.2,27.1-11.1
	c2.7-13.3,5.2-21.7,14.1-28.2c8.9-6.6,23.6,2,26,20c2.4-7.4,14.4-17.4,24.1-9c9,7.8,9.9,20.8,8.9,28.2L37.1,101.8L37.1,101.8z"/>
<path class="st4" d="M232,318.1h129.5c2.8,0,5,2.3,5,5v0c0,2.8-2.3,5-5,5H232c-2.8,0-5-2.3-5-5v0C227,320.3,229.2,318.1,232,318.1z"
	/>
<path class="st4" d="M242.1,287.9h119.4c2.8,0,5,2.3,5,5v0c0,2.8-2.3,5-5,5H242.1c-2.8,0-5-2.3-5-5v0
	C237,290.2,239.3,287.9,242.1,287.9z"/>
<path class="st4" d="M225.7,257.7h135.8c2.8,0,5,2.3,5,5v0c0,2.8-2.3,5-5,5H225.7c-2.8,0-5-2.3-5-5v0
	C220.7,260,222.9,257.7,225.7,257.7z"/>
<circle class="st7" cx="130.2" cy="293" r="7.5"/>
<circle class="st3" cx="460.2" cy="317.5" r="4.4"/>
<circle class="st3" cx="69.8" cy="187.6" r="5.7"/>
<circle class="st7" cx="143.8" cy="155.6" r="5.7"/>
<circle class="st7" cx="456.4" cy="387.9" r="5.7"/>
<circle class="st7" cx="138.8" cy="412.6" r="5.7"/>
<circle class="st7" cx="443.9" cy="93.7" r="5.7"/>
<path class="st8" d="M464.6,252.7l-8.8-8.8l8.8-8.8l8.8,8.8L464.6,252.7z"/>
<linearGradient id="SVGID_00000018231676268210380580000004627215959296334481_" gradientUnits="userSpaceOnUse" x1="490.0465" y1="241.2943" x2="571.9366" y2="279.9823" gradientTransform="matrix(1 0 0 -1 0 475.9561)">
	<stop  offset="0" style="stop-color:#FFFFFF"/>
	<stop  offset="1" style="stop-color:#EEEEEE"/>
</linearGradient>
<path style="fill:url(#SVGID_00000018231676268210380580000004627215959296334481_);" d="M525.2,228.9c-9.4,2.2-19.2-5.7-19.2-5.7
	s5.3-11.5,14.6-13.7c9.4-2.2,19.2,5.7,19.2,5.7S534.5,226.7,525.2,228.9L525.2,228.9z"/>
<linearGradient id="SVGID_00000139993155332648337520000012919828958742376329_" gradientUnits="userSpaceOnUse" x1="540.3486" y1="155.256" x2="475.0796" y2="224.08" gradientTransform="matrix(1 0 0 -1 0 475.9561)">
	<stop  offset="0" style="stop-color:#FFFFFF"/>
	<stop  offset="1" style="stop-color:#EEEEEE"/>
</linearGradient>
<path style="fill:url(#SVGID_00000139993155332648337520000012919828958742376329_);" d="M508.3,301.8c8.3,5.7,21,1.7,21,1.7
	s-0.8-13.2-9.1-19c-8.3-5.7-21-1.7-21-1.7S500,296,508.3,301.8z"/>
<linearGradient id="SVGID_00000089539187369474244400000011277563381707092363_" gradientUnits="userSpaceOnUse" x1="88.8466" y1="165.2531" x2="-43.6245" y2="372.9131" gradientTransform="matrix(1 0 0 -1 0 475.9561)">
	<stop  offset="0" style="stop-color:#FFFFFF"/>
	<stop  offset="1" style="stop-color:#EEEEEE"/>
</linearGradient>
<path style="fill:url(#SVGID_00000089539187369474244400000011277563381707092363_);" d="M16.4,246.6C34.7,265.2,69,261.3,69,261.3
	s4.5-34.2-13.8-52.8c-18.3-18.6-52.6-14.7-52.6-14.7S-1.9,227.9,16.4,246.6z"/>
<ellipse class="st3" cx="557.7" cy="268" rx="13.6" ry="13"/>
<ellipse class="st3" cx="118.7" cy="377.3" rx="18.4" ry="17.8"/>
<circle class="st3" cx="108" cy="136.7" r="13.4"/>
<circle class="st3" cx="473.6" cy="170.4" r="12.4"/>
<circle class="st7" cx="505.3" cy="378.2" r="11.2"/>
<circle class="st7" cx="62.9" cy="305.7" r="11.8"/>
<circle class="st7" cx="524.9" cy="161.8" r="5.8"/>
<circle class="st7" cx="491.4" cy="93.8" r="8.8"/>
<circle class="st7" cx="114.3" cy="226.8" r="5.8"/>
<circle class="st7" cx="36.6" cy="136.5" r="5.5"/>
<ellipse class="st7" cx="550" cy="339.7" rx="5.9" ry="4.7"/>
<circle class="st7" cx="390.8" cy="53.7" r="12"/>
<path class="st7" d="M560.7,112h0.2c0.9,13,10.6,13.2,10.6,13.2s-10.7,0.2-10.7,15.2c0-15-10.7-15.2-10.7-15.2S559.8,125,560.7,112z
	 M156.5,7h0.2c1.1,15.5,12.4,15.8,12.4,15.8S156.6,23,156.6,41c0-18-12.5-18.2-12.5-18.2S155.5,22.5,156.5,7z"/>
<g>
	<path class="st4" d="M325.3,218c0,4.8-13.1,8.7-29.2,8.7c-16.1,0-29.2-3.9-29.2-8.7c0-3.9,8.9-7.3,21.1-8.3c3,3.7,5.1,6,5.2,6.2
		l0.9,1c1.1,1.3,3.1,1.3,4.3,0l0.9-1c0.2-0.2,2.2-2.5,5.2-6.2C316.5,210.8,325.3,214.1,325.3,218z"/>
	<path class="st4" d="M311.5,165.5c0,8.4-6.9,15.2-15.3,15.2c-8.5,0-15.3-6.8-15.3-15.2c0-8.4,6.9-15.2,15.3-15.2
		C304.6,150.3,311.5,157.1,311.5,165.5z"/>
	<path class="st4" d="M339.9,153c1.1,16.3-6.7,30.9-19,39.3c-1.4,1-3.2-0.7-2.3-2.1c5.8-9.4,8.8-16.9,8.8-22.4
		c0-1.3-0.1-2.6-0.2-3.9c-1.9-15.3-15.1-27.2-31-27.2c-15.9,0-29.1,11.9-31,27.2c-0.2,1.3-0.2,2.6-0.2,3.9c0,5.5,2.9,13,8.8,22.4
		c0.9,1.4-0.8,3.1-2.2,2.2c-11.5-7.9-19.1-21.2-19.1-36.2c0-24.8,20.6-44.7,45.5-43.8C320.1,113.1,338.4,130.8,339.9,153z"/>
	<path class="st4" d="M311.5,165.5c0,8.4-6.9,15.2-15.3,15.2c-8.5,0-15.3-6.8-15.3-15.2c0-8.4,6.9-15.2,15.3-15.2
		C304.6,150.3,311.5,157.1,311.5,165.5z"/>
	<g>
		<path class="st4" d="M311.5,165.5c0,8.4-6.9,15.2-15.3,15.2c-8.5,0-15.3-6.8-15.3-15.2c0-8.4,6.9-15.2,15.3-15.2
			C304.6,150.3,311.5,157.1,311.5,165.5z"/>
	</g>
	<path class="st4" d="M311.5,165.5c0,8.4-6.9,15.2-15.3,15.2c-8.5,0-15.3-6.8-15.3-15.2c0-8.4,6.9-15.2,15.3-15.2
		C304.6,150.3,311.5,157.1,311.5,165.5z"/>
</g>
</svg>
