<?xml version="1.0" encoding="utf-8"?>
<!-- Generator: Adobe Illustrator 27.8.1, SVG Export Plug-In . SVG Version: 6.00 Build 0)  -->
<svg version="1.1" id="Layer_1" xmlns="http://www.w3.org/2000/svg" xmlns:xlink="http://www.w3.org/1999/xlink" x="0px" y="0px"
	 viewBox="0 0 447.8 260.7" style="enable-background:new 0 0 447.8 260.7;" xml:space="preserve">
<style type="text/css">
	.st0{fill:url(#SVGID_1_);}
	.st1{fill:url(#SVGID_00000048482617572024663560000012144516632607548305_);}
	.st2{fill:#6D8C8A;}
	.st3{fill:#FFFFFF;}
	.st4{fill:url(#SVGID_00000047741031256239752980000005702115627230580667_);}
	.st5{fill:url(#SVGID_00000131330244033036695460000014897265844401784467_);}
	.st6{fill:#E1E4E5;}
	.st7{fill:none;stroke:#E1E4E5;stroke-width:2.961;stroke-linecap:round;stroke-linejoin:round;}
	.st8{fill:url(#SVGID_00000017512253642144573260000003325425082632805268_);}
	.st9{fill:url(#SVGID_00000090283758481359671070000017403861003698318481_);}
	.st10{fill:url(#SVGID_00000013901573951626437600000006359815850673435781_);}
	.st11{fill:none;}
	.st12{fill:#F8AE9D;}
	.st13{fill:#23443B;}
	.st14{fill:#CC6144;}
	.st15{fill:#FFFFFF;stroke:#E1E4E5;stroke-width:2.5135;}
	.st16{fill-rule:evenodd;clip-rule:evenodd;fill:#FFFFFF;}
	.st17{fill:url(#SVGID_00000183954338626835296150000008212584663671424149_);}
	.st18{fill:url(#SVGID_00000044865534979189686340000001772795422467159191_);}
	.st19{fill:url(#SVGID_00000035500378253997555480000006462731200937321141_);}
	.st20{fill:#FFFFFF;filter:url(#Adobe_OpacityMaskFilter);}
	.st21{mask:url(#a_00000158005664807144497710000012810765801847242428_);fill:none;stroke:#E1E4E5;stroke-width:2.2321;}
	.st22{fill:#31446C;}
	.st23{fill:none;stroke:#E1E4E5;stroke-width:2.2321;stroke-linecap:round;stroke-linejoin:round;}
	.st24{fill:url(#SVGID_00000117678906807962516610000000271787813818328245_);}
	.st25{fill:url(#SVGID_00000115514956443016438950000000446613333505870524_);}
	.st26{fill:url(#SVGID_00000044175911778217769000000009133815355291644569_);}
	.st27{fill-rule:evenodd;clip-rule:evenodd;fill:#FFFFFF;stroke:#E1E4E5;stroke-width:2.3281;}
	.st28{fill:none;stroke:#E1E4E5;stroke-width:2.3281;stroke-linecap:round;stroke-linejoin:round;}
	.st29{fill-rule:evenodd;clip-rule:evenodd;fill:#6D8C8A;stroke:#6D8C8A;stroke-width:31.4287;stroke-miterlimit:10;}
	.st30{fill:none;stroke:#FFFFFF;stroke-width:28.0775;stroke-linecap:round;stroke-linejoin:round;}
</style>
<linearGradient id="SVGID_1_" gradientUnits="userSpaceOnUse" x1="-1304.1752" y1="-148.3674" x2="-1416.6887" y2="359.2536" gradientTransform="matrix(1 0 0 -1 0 201.4066)">
	<stop  offset="0" style="stop-color:#FFFFFF"/>
	<stop  offset="1" style="stop-color:#EEEEEE"/>
</linearGradient>
<path class="st0" d="M-1231.3,165.1c1.7,30.8-58.5,93.3-132.6,70.2c-34.5-10.8-31.6-28.6-57.8-52.2c-15.6-14-38.1-24.7-44.3-45.1
	c-5.4-17.6-2.1-36.6,7.3-48.9c21-27.7,63.5-46.7,105.3-3C-1311.6,129.8-1235.7,85.8-1231.3,165.1z"/>
<linearGradient id="SVGID_00000084531966170603277250000017262759247066281344_" gradientUnits="userSpaceOnUse" x1="-1289.1875" y1="110.17" x2="-1333.2537" y2="308.1833" gradientTransform="matrix(1 0 0 -1 0 201.4066)">
	<stop  offset="0" style="stop-color:#FFFFFF"/>
	<stop  offset="1" style="stop-color:#EEEEEE"/>
</linearGradient>
<path style="fill:url(#SVGID_00000084531966170603277250000017262759247066281344_);" d="M-1255.8,34c-4.9,8.8-15.8,10-33.1,8.4
	c-13-1.3-24.9-2.2-38-9.4c-9.1-5-16.4-11.7-21.6-18.2c-5.7-7.1-13.7-15.2-9.8-23.2c5.4-11,36.5-20.3,66.7-5.1
	C-1258.5,3.2-1250.9,25.4-1255.8,34L-1255.8,34z"/>
<path class="st2" d="M-1284.4-24.8c-0.3-0.1-0.6-0.2-1-0.3c-0.1,0-0.2-0.1-0.3-0.1c-0.2-0.1-0.5-0.1-0.7-0.2c-0.1,0-0.2,0-0.3-0.1
	c-0.2,0-0.5-0.1-0.7-0.1c-0.1,0-0.3,0-0.4-0.1c-0.1,0-0.2,0-0.3,0c-0.2,0-0.3,0-0.5,0c-0.1,0-0.2,0-0.3,0c-0.2,0-0.5,0-0.7,0H-1404
	c-1,0-2.1,0.1-3.1,0.3c-6.5,1.3-11.5,6.8-12.2,13.6c-0.1,0.5-0.1,1-0.1,1.6v234.1c0,6.7,4.2,12.4,10.2,14.5c0,0,0.1,0,0.1,0
	c0.3,0.1,0.6,0.2,0.9,0.3c0.1,0,0.2,0.1,0.3,0.1c0.1,0,0.2,0.1,0.3,0.1c0.1,0,0.2,0.1,0.4,0.1c0.1,0,0.2,0,0.3,0.1
	c0.2,0,0.5,0.1,0.7,0.1c0.1,0,0.3,0,0.4,0.1c0.3,0,0.5,0.1,0.8,0.1c0.1,0,0.2,0,0.3,0c0.2,0,0.5,0,0.7,0h114.3c0.5,0,1.1,0,1.6-0.1
	c7.3-0.7,13-6.5,13.8-13.8c0.1-0.5,0.1-1,0.1-1.6V-10.3C-1274.3-16.9-1278.5-22.6-1284.4-24.8L-1284.4-24.8z"/>
<path class="st3" d="M-1346.8,228.2c4.9,0,8.9-4,8.9-8.9s-4-8.9-8.9-8.9c-4.9,0-8.9,4-8.9,8.9S-1351.7,228.2-1346.8,228.2z"/>
<path class="st3" d="M-1360.1-12.4h27.4c0.8,0,1.5,0.7,1.5,1.5v0c0,0.8-0.7,1.5-1.5,1.5h-27.4c-0.8,0-1.5-0.7-1.5-1.5v0
	C-1361.6-11.8-1361-12.4-1360.1-12.4z"/>
<linearGradient id="SVGID_00000084509357288473861530000015520341026437725627_" gradientUnits="userSpaceOnUse" x1="-1213.8241" y1="106.8849" x2="-1214.2852" y2="202.968" gradientTransform="matrix(1 0 0 -1 0 201.4066)">
	<stop  offset="0" style="stop-color:#FFFFFF"/>
	<stop  offset="1" style="stop-color:#EEEEEE"/>
</linearGradient>
<path style="fill:url(#SVGID_00000084509357288473861530000015520341026437725627_);" d="M-1169.9,74.2c-1.5-6.1-16-15.1-23.7-9.7
	c-2.4-11.7-4.6-18.9-12.4-24.7c-7.8-5.7-20.7,1.8-22.8,17.5c-2.1-6.5-12.6-15.2-21.1-7.8c-7.9,6.8-8.6,18.2-7.8,24.7L-1169.9,74.2
	L-1169.9,74.2z"/>
<linearGradient id="SVGID_00000177474023369597230850000011389892112918356121_" gradientUnits="userSpaceOnUse" x1="-1468.2957" y1="167.5697" x2="-1467.9847" y2="232.279" gradientTransform="matrix(1 0 0 -1 0 201.4066)">
	<stop  offset="0" style="stop-color:#FFFFFF"/>
	<stop  offset="1" style="stop-color:#EEEEEE"/>
</linearGradient>
<path style="fill:url(#SVGID_00000177474023369597230850000011389892112918356121_);" d="M-1497.8,20.1c1-4.1,10.8-10.1,16-6.5
	c1.6-7.9,3.1-12.8,8.3-16.6c5.2-3.9,13.9,1.2,15.3,11.8c1.4-4.4,8.5-10.2,14.2-5.3c5.3,4.6,5.8,12.3,5.3,16.6L-1497.8,20.1
	L-1497.8,20.1z"/>
<path class="st3" d="M-1383.1,147.5h76.3c1.6,0,3,1.3,3,3v0c0,1.6-1.3,3-3,3h-76.3c-1.6,0-3-1.3-3-3v0
	C-1386.1,148.8-1384.7,147.5-1383.1,147.5z"/>
<path class="st3" d="M-1377.2,129.7h70.3c1.6,0,3,1.3,3,3v0c0,1.6-1.3,3-3,3h-70.3c-1.6,0-3-1.3-3-3v0
	C-1380.1,131-1378.8,129.7-1377.2,129.7z"/>
<path class="st3" d="M-1386.8,111.9h80c1.6,0,3,1.3,3,3v0c0,1.6-1.3,3-3,3h-80c-1.6,0-3-1.3-3-3v0
	C-1389.8,113.3-1388.4,111.9-1386.8,111.9z"/>
<circle class="st6" cx="-1443.1" cy="132.7" r="4.4"/>
<circle class="st2" cx="-1248.7" cy="147.1" r="2.6"/>
<circle class="st2" cx="-1478.6" cy="70.7" r="3.3"/>
<circle class="st6" cx="-1435" cy="51.8" r="3.3"/>
<circle class="st6" cx="-1250.9" cy="188.6" r="3.3"/>
<circle class="st6" cx="-1438" cy="203.1" r="3.3"/>
<circle class="st6" cx="-1258.3" cy="15.3" r="3.3"/>
<path class="st7" d="M-1246.1,109l-5.2-5.2l5.2-5.2l5.2,5.2L-1246.1,109z"/>
<linearGradient id="SVGID_00000015315087036671279810000000024917803680898228_" gradientUnits="userSpaceOnUse" x1="-1231.161" y1="103.0671" x2="-1182.9458" y2="125.8458" gradientTransform="matrix(1 0 0 -1 0 201.4066)">
	<stop  offset="0" style="stop-color:#FFFFFF"/>
	<stop  offset="1" style="stop-color:#EEEEEE"/>
</linearGradient>
<path style="fill:url(#SVGID_00000015315087036671279810000000024917803680898228_);" d="M-1210.5,94.9c-5.5,1.3-11.3-3.4-11.3-3.4
	s3.1-6.8,8.6-8.1c5.5-1.3,11.3,3.4,11.3,3.4S-1205,93.6-1210.5,94.9L-1210.5,94.9z"/>
<linearGradient id="SVGID_00000170267062942251461410000017899964485393389962_" gradientUnits="userSpaceOnUse" x1="-1201.5442" y1="52.4094" x2="-1239.9734" y2="92.9316" gradientTransform="matrix(1 0 0 -1 0 201.4066)">
	<stop  offset="0" style="stop-color:#FFFFFF"/>
	<stop  offset="1" style="stop-color:#EEEEEE"/>
</linearGradient>
<path style="fill:url(#SVGID_00000170267062942251461410000017899964485393389962_);" d="M-1220.4,137.8c4.9,3.4,12.3,1,12.3,1
	s-0.5-7.8-5.3-11.2c-4.9-3.4-12.3-1-12.3-1S-1225.3,134.5-1220.4,137.8z"/>
<linearGradient id="SVGID_00000016061196387951208560000005412869987647265702_" gradientUnits="userSpaceOnUse" x1="-1467.3796" y1="58.2955" x2="-1545.376" y2="180.5616" gradientTransform="matrix(1 0 0 -1 0 201.4066)">
	<stop  offset="0" style="stop-color:#FFFFFF"/>
	<stop  offset="1" style="stop-color:#EEEEEE"/>
</linearGradient>
<path style="fill:url(#SVGID_00000016061196387951208560000005412869987647265702_);" d="M-1510,105.4c10.8,11,31,8.7,31,8.7
	s2.7-20.1-8.1-31.1c-10.8-11-31-8.7-31-8.7S-1520.8,94.4-1510,105.4z"/>
<ellipse class="st2" cx="-1191.3" cy="118" rx="8" ry="7.7"/>
<ellipse class="st2" cx="-1449.8" cy="182.3" rx="10.8" ry="10.5"/>
<circle class="st2" cx="-1456.1" cy="40.6" r="7.9"/>
<circle class="st2" cx="-1240.9" cy="60.5" r="7.3"/>
<circle class="st6" cx="-1222.2" cy="182.8" r="6.6"/>
<circle class="st6" cx="-1482.7" cy="140.2" r="6.9"/>
<circle class="st6" cx="-1210.6" cy="55.4" r="3.4"/>
<circle class="st6" cx="-1230.4" cy="15.4" r="5.2"/>
<circle class="st6" cx="-1452.4" cy="93.7" r="3.4"/>
<circle class="st6" cx="-1498.1" cy="40.5" r="3.2"/>
<ellipse class="st6" cx="-1195.8" cy="160.2" rx="3.5" ry="2.8"/>
<circle class="st6" cx="-1289.6" cy="-8.2" r="7.1"/>
<path class="st6" d="M-1189.6,26.1L-1189.6,26.1c0.6,7.7,6.3,7.8,6.3,7.8s-6.3,0.1-6.3,9c0-8.8-6.3-9-6.3-9
	S-1190.1,33.8-1189.6,26.1z M-1427.5-35.7h0.1c0.6,9.2,7.3,9.3,7.3,9.3s-7.4,0.1-7.4,10.7c0-10.6-7.4-10.7-7.4-10.7
	S-1428.2-26.6-1427.5-35.7z"/>
<g>
	<path class="st3" d="M-1328.2,88.5c0,2.8-7.7,5.1-17.2,5.1s-17.2-2.3-17.2-5.1c0-2.3,5.2-4.3,12.4-4.9c1.8,2.2,3,3.5,3.1,3.6
		l0.5,0.6c0.7,0.8,1.9,0.8,2.5,0l0.5-0.6c0.1-0.1,1.3-1.5,3.1-3.6C-1333.4,84.3-1328.2,86.2-1328.2,88.5z"/>
	<path class="st3" d="M-1336.3,57.6c0,5-4,9-9,9c-5,0-9-4-9-9s4-9,9-9C-1340.3,48.7-1336.3,52.7-1336.3,57.6z"/>
	<path class="st3" d="M-1319.6,50.2c0.7,9.6-3.9,18.2-11.2,23.1c-0.8,0.6-1.9-0.4-1.3-1.3c3.4-5.5,5.2-9.9,5.2-13.2
		c0-0.8,0-1.5-0.1-2.3c-1.1-9-8.9-16-18.3-16c-9.4,0-17.1,7-18.3,16c-0.1,0.8-0.1,1.5-0.1,2.3c0,3.2,1.7,7.7,5.2,13.2
		c0.5,0.9-0.5,1.8-1.3,1.3c-6.8-4.6-11.3-12.5-11.3-21.3c0-14.6,12.1-26.3,26.8-25.8C-1331.2,26.8-1320.5,37.2-1319.6,50.2z"/>
	<path class="st3" d="M-1336.3,57.6c0,5-4,9-9,9c-5,0-9-4-9-9s4-9,9-9C-1340.3,48.7-1336.3,52.7-1336.3,57.6z"/>
	<g>
		<path class="st3" d="M-1336.3,57.6c0,5-4,9-9,9c-5,0-9-4-9-9s4-9,9-9C-1340.3,48.7-1336.3,52.7-1336.3,57.6z"/>
	</g>
	<path class="st3" d="M-1336.3,57.6c0,5-4,9-9,9c-5,0-9-4-9-9s4-9,9-9C-1340.3,48.7-1336.3,52.7-1336.3,57.6z"/>
</g>
<path class="st11" d="M-1203.9-81.7h565.5v377h-565.5V-81.7z"/>
<path class="st12" d="M-932.1,45.2c-2.7,4.2-9.6,9-14.6,9c-16.8-0.3-22.3-11.8-24.2-15.9c0.3-0.1,0.9-0.1,1.3-0.2
	c3.1-0.4,6.3-3.5,7.2-7c1.2-4.5,2.7-13.3,2.5-18.9l21.3,11.8c0,1.6-0.1,3.4-0.3,5.2c-0.1,1.1-0.2,2.1-0.3,3.2
	c-0.1,0.9-0.2,1.9-0.4,2.8c-0.4,2.9,0.9,5.8,3.4,7.4L-932.1,45.2L-932.1,45.2z"/>
<path class="st13" d="M-930.3-0.5c-1.1,3-0.7,6.4,0.5,9.4c0.8,2.1,2.7,0.3,4.9,0.3c3.5,0.1,6.3-3.6,8.4-13.3
	c1.4-7.1,1.7-10.8,1.4-11.5c-1-2.5-4.2-3.8-6.8-4"/>
<path class="st12" d="M-924.9-21.9c5.6,6.7,7.6,25.5,2.9,38.7c-3.3,9.3-7.2,15.4-11.7,15.2c-6.9-0.3-20.2-5.9-24.5-10.7
	c-7.8-8.5-5.5-25.2-3.9-35.6c1.5-9.5,5.9-21.9,17.9-19.5C-936.5-32.4-929.9-27.9-924.9-21.9L-924.9-21.9z"/>
<path class="st13" d="M-956.4-14.5c1.2,1.6,3.4,1.9,5.2,2.2c2.4,0.4,3.6,1.3,4.8,3.7c0.8,1.5,1.6,3.2,3,4c1.2,0.7,1.1-1,1.3-2.3
	c0-0.1,0-0.2,0.1-0.3c0.3-1.1,1.4-0.9,1.7,0.2c0.3,0.9,0.9,1.7,1.8,2.2c0.1,0.1,0.3,0.1,0.4,0.1c0.2,0,0.3-0.2,0.5-0.4
	c0.3-0.3,0.5-0.8,0.8-1.2c0.9-1.5,2.6-1,3.5,0.5c0.6,0.9,1.3,1.8,2.4,2c0.3,0.1,0.7,0,0.9-0.3c0.2-0.4-0.1-0.8-0.1-1.2
	c0-0.4,0.2-0.5,0.4-0.8c0.7-1.2,2.3-1.3,3.2-0.3c0.7,0.7,1.4,1.4,2.1,2c0.3,0.3,0.8,0.5,1.1,0.3c0.2-0.1,0.2-0.4,0.2-0.6
	c0.2-1.1,0.3-2.3,0.5-3.4c0.1-0.6,0.4-1.5,1-1.3c0.3,0.1,0.4,0.4,0.6,0.6c0.2,0.3,3.6,4.2,3.7,3.9c0.5-2.2,1.6-4.2,2.2-6.4
	c3.4-14.2-11.9-25.6-23.5-25.6c-2.6,0-5,0-7.5,0.6c-2.7,0.6-5.5,1.7-8,3.1c-3.4,2-6,5.7-5.3,10"/>
<path class="st13" d="M-950.9-19.4c1.7,1.9,2.1,4.6,2.3,7.2c0.2,3.9-0.1,7.9-1.9,11.3c-0.5,1-0.9,5.8-1.7,5.5
	c-0.2-0.1-0.2-3.8-0.9-5.8c-1-3.1-5.7-4.3-7.8-2.3c-3.4,3.1-1.4,6.9-0.3,9.3c0.7,1.4,1.7,3,1.9,4.6c0.2,1.9,0.3,9-1,10.7
	c-1.1,1.4-2.2-5.3-3.1-6.6c-7.1-9.8-13.9-34.7-1.8-40.1c1.8-0.8,7.5-1.2,9.2-0.2 M-906.1,178.9c0.7,0.1,1.4,0.2,2.1,0.2
	c3.9,0.1,7.7-0.7,11.5-1.4c3.3-0.6,4.3-0.9,4.2-4.9c-0.6-32-5.3-63.8-13.7-94.7c-1.3-4.7-2.7-9.5-5.2-13.7
	c-4.2-7.2-13.9-13.4-21.3-16.9c-1-0.5-5.4,2.3-6.4,1.8c-0.9-0.4-1.7-1.1-2.7-1.5c-2.7-1.2-4.6,1.3-6.8,2.3c-1.2,0.5-2.5,0.9-3.8,0.8
	c-1.1,0-2-0.7-3-0.2c-4.3,2.2-15.1-14.4-15.1-14.4l-4.7,4.9l-13.7,14.3l-34.2,47.1c0,0-6.2,38.6-10.5,63.9
	c-0.7,4.4-3.7,13.8-4.3,17.1c0.1-0.7,29.2-0.9,30.7-0.9h59.2c3.3,0,12.3,1.4,14.6-1c2.9-3,6.2-16.7,6.4-20.6
	c0.6-13-0.3-25.8-0.5-38.8c0.1,5.3,1.6,10.1,2.2,15.3c0.8,6.7,2,13.4,3.1,20c0.9,5.3,1.7,10.7,2.4,16.1c0.3,2.4-0.1,3.9,2,4.8
	C-911.9,179.3-908.1,178.5-906.1,178.9L-906.1,178.9z"/>
<path class="st13" d="M-954.5,154c0,0,6.1,3.4,5.5,10.8s-2.7,15.8-11.9,14.9C-970,178.8-954.5,154-954.5,154z"/>
<path class="st3" d="M-983.8,85.5c0,4.6-0.6,9.2-1.8,13.7c-1.2,4.5-3,8.8-5,12.9c-1,2.1-2.1,4.1-3.2,6.1c-1.1,2-2.2,4-3.2,6.1
	c-0.5,1-0.9,2.1-1,3.1c0,0.5-0.1,1,0.1,1.5c0,0.2,0.2,0.4,0.3,0.6c0.2,0.2,0.3,0.4,0.5,0.6c1.5,1.5,3.6,2.5,5.6,3.5
	c8.3,3.8,17.1,6.6,25.5,10.4c4.2,1.9,8.4,3.9,12.2,6.5l0.7,0.5c0.2,0.2,0.5,0.4,0.7,0.6c0.4,0.4,0.8,0.9,1.1,1.4
	c0.6,1,1,2.1,1.4,3.2c0.6,2.2,0.9,4.5,0.9,6.8c-0.2-2.3-0.5-4.6-1.2-6.7c-0.7-2.2-1.8-4.3-3.9-5.3c-3.9-2.4-8.1-4.3-12.3-6.1
	c-4.2-1.7-8.5-3.4-12.8-5c-4.3-1.6-8.6-3.2-12.9-5.1c-2.1-1-4.2-2-6-3.8c-0.2-0.2-0.4-0.5-0.6-0.8c-0.1-0.3-0.3-0.6-0.4-0.9
	c-0.2-0.7-0.1-1.3-0.1-1.9c0.2-1.2,0.6-2.3,1.1-3.4c1-2.1,2.1-4.1,3.3-6.1c1.1-2,2.3-4,3.3-6C-987.2,103.6-984.3,94.7-983.8,85.5
	L-983.8,85.5z"/>
<path class="st13" d="M-926.9,48.4c-2.1,2.1-11.4,8.7-20.3,8.7c-1.5,0-3-0.1-4.7-0.4c-7.5-1.4-13.8-6.3-17.4-12.1
	c-0.7-1.1-1.3-2.1-1.8-3.3c-0.7-1.4-1.1-2.9-1.4-4.3c3.7-0.5,7.3-1.4,7.9-2.1c0.6,4.4,6,12.2,14.2,13.7c1,0.2,2,0.3,2.9,0.3h0
	c3.8,0.1,6.8-1.2,8.8-2.4c0,0,3.9-3.1,3.9-3.1L-926.9,48.4L-926.9,48.4z"/>
<path class="st3" d="M-921,143.5c0-0.4,0-0.8,0-1.2c0-0.4-0.1-0.9-0.1-1.3l-0.2-2.5c-0.2-1.7-0.3-3.4-0.4-5.2
	c-0.3-3.4-0.4-6.8-0.5-10.2c-0.2-6.8-0.1-13.7,0.4-20.5c0.1-1.9,0.3-3.8,0.5-5.7c0.1-1,0.2-2,0.3-2.9c0.1-1,0.3-1.9,0.3-2.9
	c0-0.6-0.9-0.6-1-0.1c-0.4,1.7-0.5,3.4-0.6,5.1c-0.2,1.7-0.3,3.4-0.4,5.1c-0.2,3.4-0.4,6.9-0.5,10.3c-0.1,6.9,0.1,13.7,0.7,20.6
	c0.2,1.9,0.4,3.8,0.6,5.8c0.1,1,0.2,1.9,0.4,2.9c0.1,0.4,0.1,0.9,0.2,1.3c0.1,0.5,0.3,1,0.4,1.4C-921.1,143.6-921,143.6-921,143.5
	L-921,143.5z"/>
<path class="st14" d="M-922.9,10.7C-922.9,10.7-922.7,10.6-922.9,10.7C-922.9,10.6-923,10.7-922.9,10.7z"/>
<path class="st15" d="M-772.2,249.4h-294.1c-8.8,0-15.7-6.3-15.7-13.7v-163c0-7.4,6.9-13.7,15.7-13.7h294.1
	c8.8,0,15.7,6.3,15.7,13.7v163C-756.5,243.2-763.4,249.4-772.2,249.4z"/>
<path class="st15" d="M-756.2,79.7H-1082v-4.9c0-8.7,7-15.7,15.7-15.7h294.4c8.7,0,15.7,7,15.7,15.7L-756.2,79.7L-756.2,79.7z"/>
<path class="st6" d="M-1066.3,73.7c2,0,3.6-1.6,3.6-3.6c0-2-1.6-3.6-3.6-3.6c0,0,0,0,0,0c-2,0-3.6,1.6-3.6,3.6
	C-1069.9,72.1-1068.3,73.7-1066.3,73.7z M-1051.1,73.7c2,0,3.7-1.6,3.7-3.6c0-2-1.6-3.7-3.6-3.7c0,0-0.1,0-0.1,0
	c-2,0-3.6,1.7-3.6,3.7C-1054.7,72.1-1053.1,73.7-1051.1,73.7z M-1036.5,73.7c2,0,3.6-1.6,3.7-3.6c0-2-1.6-3.6-3.6-3.7c0,0,0,0,0,0
	c-2,0-3.6,1.6-3.6,3.7C-1040.2,72.1-1038.5,73.7-1036.5,73.7z"/>
<path class="st15" d="M-1042.4,100.5h34.6c6.2,0,11.3,5.1,11.3,11.3v33.9c0,6.2-5.1,11.3-11.3,11.3h-34.6c-6.2,0-11.3-5.1-11.3-11.3
	v-33.9C-1053.7,105.6-1048.7,100.5-1042.4,100.5z"/>
<path class="st15" d="M-1042.4,168.4h34.6c6.2,0,11.3,5.1,11.3,11.3v33.9c0,6.2-5.1,11.3-11.3,11.3h-34.6c-6.2,0-11.3-5.1-11.3-11.3
	v-33.9C-1053.7,173.4-1048.7,168.4-1042.4,168.4z"/>
<path class="st15" d="M-973.9,100.5h34.6c6.2,0,11.3,5.1,11.3,11.3v33.9c0,6.2-5.1,11.3-11.3,11.3h-34.6c-6.2,0-11.3-5.1-11.3-11.3
	v-33.9C-985.2,105.6-980.2,100.5-973.9,100.5z"/>
<path class="st15" d="M-973.9,168.4h34.6c6.2,0,11.3,5.1,11.3,11.3v33.9c0,6.2-5.1,11.3-11.3,11.3h-34.6c-6.2,0-11.3-5.1-11.3-11.3
	v-33.9C-985.2,173.4-980.2,168.4-973.9,168.4z"/>
<path class="st15" d="M-906.1,100.5h34.6c6.2,0,11.3,5.1,11.3,11.3v33.9c0,6.2-5.1,11.3-11.3,11.3h-34.6c-6.2,0-11.3-5.1-11.3-11.3
	v-33.9C-917.4,105.6-912.3,100.5-906.1,100.5z"/>
<path class="st15" d="M-838.2,100.5h34.6c6.2,0,11.3,5.1,11.3,11.3v33.9c0,6.2-5.1,11.3-11.3,11.3h-34.6c-6.2,0-11.3-5.1-11.3-11.3
	v-33.9C-849.5,105.6-844.4,100.5-838.2,100.5z"/>
<path class="st2" d="M-906.1,167.1h34.6c6.9,0,12.6,5.6,12.6,12.6v33.9c0,6.9-5.6,12.6-12.6,12.6h-34.6c-6.9,0-12.6-5.6-12.6-12.6
	v-33.9C-918.6,172.8-913,167.1-906.1,167.1z"/>
<path class="st16" d="M-888.5,205.3l6,3.1c1.2,0.6,2.5-0.4,2.3-1.7l-1.2-6.7l4.9-4.7c1-0.9,0.4-2.5-0.9-2.7l-6.7-1l-3-6.1
	c-0.6-1.2-2.3-1.2-2.9,0l-3,6.1l-6.7,1c-1.3,0.2-1.8,1.8-0.9,2.7l4.9,4.7l-1.2,6.7c-0.2,1.3,1.1,2.3,2.3,1.7L-888.5,205.3
	L-888.5,205.3z"/>
<path class="st15" d="M-838.2,168.4h34.6c6.2,0,11.3,5.1,11.3,11.3v33.9c0,6.2-5.1,11.3-11.3,11.3h-34.6c-6.2,0-11.3-5.1-11.3-11.3
	v-33.9C-849.5,173.4-844.4,168.4-838.2,168.4z"/>
<path class="st12" d="M-971.5,157.2c0,0,11.8,1.7,17.6-0.6c5.7-2.3,19.1-11.2,32-12.8c0.2,0,0.5,0.1,0.6,0.4
	c0.3,0.8,0.4,2.9-3.4,4.9c-5,2.6-8.7,4.7-8.7,4.7s23.4,6.1,29.6,8.3c1.2,0.4,2.2,0.9,2.9,1.4c2.3,1.6,0.6,5.1-2.1,4.5l-15.7-3.9
	c0,0,1.4,1.2,0.8,2.8c-0.5,1.5-3.3,2.5-5.8,1.7c0,0,1.4,1.5,0.2,3.3c-1.2,1.7-4.2,1.7-5.7,1.4c0,0,1.7,1.2,1.1,2.7
	c-0.5,1.5-3.8,2.2-4.9,2.1c-1.1-0.1-10,0.6-22.9-4.4l-17.5,4C-973.3,177.5-978.6,173.2-971.5,157.2L-971.5,157.2z"/>
<path class="st13" d="M-959.4,178.9c-22,7.6-51.4,0.3-70.1-12.3c-11.7-7.9-19.1-18-17.9-27.8c3.3-25.5,23.3-84.1,40.7-92.6
	c11.8-5.8,26.1-8.2,34.1-9.2c3.7-0.5,6.1-0.6,6.1-0.6l-2.9,8.2l-14.5,40.9c-0.5,24.3-17.9,38.7-14.4,44.3c3.5,5.6,30.7,11.7,45,21.4
	C-949.3,153.9-944.2,173.3-959.4,178.9L-959.4,178.9z"/>
<linearGradient id="SVGID_00000126304392551163931570000007408602230702533311_" gradientUnits="userSpaceOnUse" x1="-787.0081" y1="122.3075" x2="-710.6465" y2="158.3832" gradientTransform="matrix(1 0 0 -1 0 201.4066)">
	<stop  offset="0" style="stop-color:#FFFFFF"/>
	<stop  offset="1" style="stop-color:#EEEEEE"/>
</linearGradient>
<path style="fill:url(#SVGID_00000126304392551163931570000007408602230702533311_);" d="M-754.3,73.7c-8.7,2.1-17.9-5.3-17.9-5.3
	s4.9-10.7,13.6-12.8c8.7-2.1,17.9,5.3,17.9,5.3S-745.6,71.7-754.3,73.7z"/>
<linearGradient id="SVGID_00000034798755431575630840000017938802160105308298_" gradientUnits="userSpaceOnUse" x1="-973.6141" y1="167.4227" x2="-1045.9043" y2="243.6504" gradientTransform="matrix(1 0 0 -1 0 201.4066)">
	<stop  offset="0" style="stop-color:#FFFFFF"/>
	<stop  offset="1" style="stop-color:#EEEEEE"/>
</linearGradient>
<path style="fill:url(#SVGID_00000034798755431575630840000017938802160105308298_);" d="M-1009.1,13c9.2,6.3,23.2,1.9,23.2,1.9
	s-0.9-14.7-10.1-21c-9.2-6.3-23.2-1.9-23.2-1.9S-1018.3,6.7-1009.1,13L-1009.1,13z"/>
<linearGradient id="SVGID_00000073686423592673240780000010783833898029297296_" gradientUnits="userSpaceOnUse" x1="-794.7047" y1="133.8696" x2="-866.6795" y2="246.697" gradientTransform="matrix(1 0 0 -1 0 201.4066)">
	<stop  offset="0" style="stop-color:#FFFFFF"/>
	<stop  offset="1" style="stop-color:#EEEEEE"/>
</linearGradient>
<path style="fill:url(#SVGID_00000073686423592673240780000010783833898029297296_);" d="M-834.1,32.7c10,10.1,28.6,8,28.6,8
	S-803,22.1-813,12c-10-10.1-28.6-8-28.6-8S-844,22.6-834.1,32.7L-834.1,32.7z"/>
<ellipse class="st2" cx="-776.7" cy="161.6" rx="7.4" ry="7.1"/>
<ellipse class="st2" cx="-1052.5" cy="198.8" rx="10" ry="9.7"/>
<circle class="st2" cx="-1109.2" cy="112.2" r="3.5"/>
<circle class="st2" cx="-777.4" cy="25" r="6.8"/>
<ellipse class="st6" cx="-777.4" cy="231.4" rx="6.8" ry="6.4"/>
<circle class="st6" cx="-1066.3" cy="158.3" r="3.8"/>
<circle class="st6" cx="-988.6" cy="237.2" r="2.3"/>
<circle class="st6" cx="-848.8" cy="-2.5" r="3.2"/>
<circle class="st6" cx="-1110.8" cy="187.3" r="3.1"/>
<circle class="st6" cx="-1055.2" cy="36.2" r="4.2"/>
<ellipse class="st6" cx="-774.6" cy="101.8" rx="3.2" ry="2.6"/>
<circle class="st6" cx="-873.5" cy="36.3" r="6.5"/>
<path class="st6" d="M-740.1,112.6L-740.1,112.6c0.6,7.1,5.8,7.2,5.8,7.2s-5.8,0.1-5.8,8.3c0-8.2-5.8-8.3-5.8-8.3
	S-740.6,119.6-740.1,112.6L-740.1,112.6z M-1097.2,40.2h0.1c0.9,12.4,9.9,12.5,9.9,12.5s-10,0.2-10,14.5c0-14.3-10-14.5-10-14.5
	S-1098.1,52.6-1097.2,40.2z"/>
<image style="overflow:visible;" width="4516" height="3728" xlink:href="Pallet.png"  transform="matrix(0.25 0 0 0.25 -1121.6833 970.7096)">
</image>
<path class="st6" d="M-466,221.4c-0.2-0.3-0.2-0.7,0-0.9c0.2-0.2,0.6-0.2,0.9,0c1.3,1,2.6,2,3.9,3c0.3,0.2,0.4,0.6,0.1,0.9
	c-0.2,0.3-0.6,0.4-0.9,0.1C-463.4,223.5-464.7,222.5-466,221.4C-466,221.4-466,221.4-466,221.4L-466,221.4z M-458.1,227.1
	c-0.2-0.2-0.2-0.6-0.1-0.8c0.2-0.3,0.6-0.4,0.9-0.2c1.4,0.9,2.7,1.7,4.2,2.5c0.3,0.2,0.4,0.6,0.2,0.9c-0.2,0.3-0.6,0.4-0.9,0.2
	c-1.4-0.8-2.8-1.7-4.2-2.6C-458,227.2-458,227.2-458.1,227.1L-458.1,227.1z M-449.6,232c-0.2-0.3-0.2-0.7,0-0.9
	c0.2-0.2,0.5-0.2,0.7-0.1c1.4,0.7,2.9,1.4,4.4,2.1c0.3,0.1,0.5,0.5,0.3,0.9c-0.1,0.3-0.5,0.5-0.9,0.3c-1.5-0.7-3-1.4-4.5-2.1
	C-449.5,232.1-449.5,232.1-449.6,232L-449.6,232z M-440.6,235.9c-0.2-0.3-0.2-0.7,0-0.9c0.2-0.2,0.4-0.2,0.7-0.1
	c1.5,0.6,3.1,1,4.6,1.5c0.3,0.1,0.6,0.5,0.5,0.8c-0.1,0.3-0.5,0.6-0.8,0.5c-1.6-0.4-3.2-0.9-4.7-1.5
	C-440.4,236-440.5,236-440.6,235.9z M-431.1,238.5c-0.2-0.3-0.2-0.7,0-0.9c0.2-0.1,0.4-0.2,0.6-0.2c1.6,0.3,3.2,0.5,4.8,0.7
	c0.4,0,0.6,0.4,0.6,0.7c0,0.4-0.4,0.6-0.7,0.6l0,0c-1.6-0.1-3.3-0.4-4.9-0.7C-430.9,238.7-431,238.6-431.1,238.5z M-421.4,239.3
	c-0.2-0.3-0.2-0.7,0-0.9c0.1-0.1,0.3-0.2,0.4-0.2c1.6,0,3.2-0.1,4.8-0.3c0.4,0,0.7,0.2,0.7,0.6c0,0.4-0.2,0.7-0.6,0.7
	c-1.6,0.2-3.3,0.3-5,0.4C-421.1,239.6-421.3,239.5-421.4,239.3L-421.4,239.3z M-411.7,238.1c-0.2-0.3-0.2-0.7,0-0.9
	c0.1-0.1,0.2-0.1,0.3-0.2c1.6-0.4,3.1-0.9,4.6-1.5c0.3-0.1,0.7,0,0.8,0.4c0,0,0,0,0,0c0.1,0.3,0,0.7-0.4,0.8
	c-1.5,0.6-3.1,1.1-4.7,1.5C-411.3,238.3-411.5,238.2-411.7,238.1L-411.7,238.1z M-402.6,234.5c-0.2-0.3-0.2-0.7,0-0.9
	c0,0,0.1-0.1,0.1-0.1c1.4-0.8,2.8-1.6,4.1-2.5c0.3-0.2,0.7-0.1,0.9,0.2c0.2,0.3,0.1,0.7-0.2,0.9c-1.4,0.9-2.8,1.8-4.2,2.6
	C-402.1,234.8-402.4,234.8-402.6,234.5z M-394.5,229.1C-394.5,229.1-394.5,229-394.5,229.1c-0.3-0.3-0.2-0.7,0.1-1c0,0,0,0,0,0
	c1.3-1,2.5-2.1,3.6-3.2c0.3-0.3,0.7-0.3,0.9,0c0.3,0.3,0.3,0.7,0,0.9c0,0,0,0,0,0c-1.2,1.1-2.4,2.2-3.7,3.3
	C-393.9,229.3-394.3,229.3-394.5,229.1z M-387.5,222.2c-0.2-0.2-0.2-0.6,0-0.9c1-1.2,2-2.5,2.8-3.9c0.2-0.3,0.6-0.4,0.9-0.2
	c0.3,0.2,0.4,0.6,0.2,0.9c-0.9,1.4-1.9,2.8-2.9,4C-386.7,222.5-387.2,222.5-387.5,222.2C-387.5,222.3-387.5,222.2-387.5,222.2
	L-387.5,222.2z M-382.3,213.9c-0.2-0.2-0.2-0.5-0.1-0.7c0.6-1.5,1.1-3,1.4-4.5c0.1-0.4,0.4-0.6,0.8-0.5c0.4,0.1,0.6,0.4,0.5,0.8
	c-0.4,1.6-0.9,3.2-1.5,4.8c-0.1,0.3-0.5,0.5-0.9,0.3c0,0,0,0,0,0C-382.2,214-382.3,214-382.3,213.9L-382.3,213.9z M-396.4,197.7
	c-0.2-0.3-0.2-0.7,0.1-0.9c0.2-0.2,0.6-0.2,0.9,0c1.1,1,2.4,2,3.9,2.7c0.3,0.2,0.4,0.6,0.3,0.9c-0.2,0.3-0.5,0.4-0.8,0.3
	C-393.7,199.9-395.1,198.9-396.4,197.7C-396.3,197.7-396.4,197.7-396.4,197.7L-396.4,197.7z M-399.1,193.7c-0.1-0.1-0.1-0.1-0.1-0.2
	c-0.8-2.1-0.6-3.9,0.6-5.3c0.2-0.3,0.6-0.3,0.9-0.1c0.3,0.2,0.3,0.7,0.1,0.9c0,0,0,0,0,0c-1.1,1.2-0.8,2.8-0.4,4
	c0.1,0.3,0,0.7-0.4,0.8C-398.7,194-399,193.9-399.1,193.7L-399.1,193.7z M-387.7,202c-0.1-0.1-0.2-0.3-0.2-0.5
	c0.1-0.4,0.4-0.6,0.7-0.5c1.6,0.2,3.1,0.2,4.7,0c0.4-0.1,0.7,0.2,0.8,0.5c0,0,0,0,0,0c0.1,0.4-0.2,0.7-0.5,0.8
	c-1.7,0.3-3.4,0.3-5.1,0C-387.5,202.1-387.6,202.1-387.7,202L-387.7,202z M-380.3,204.4c-0.1-0.1-0.2-0.3-0.2-0.4
	c0-1.6-0.2-3.2-0.6-4.7c-0.1-0.4,0.1-0.7,0.5-0.8c0.3-0.1,0.7,0.1,0.8,0.5c0.4,1.6,0.6,3.3,0.6,5c0,0.4-0.3,0.7-0.7,0.7c0,0,0,0,0,0
	C-380,204.6-380.2,204.5-380.3,204.4L-380.3,204.4z M-394.2,187.2c-0.2-0.3-0.2-0.7,0-0.9c0.1-0.1,0.2-0.2,0.4-0.2
	c1.7-0.1,3.4,0.2,5.1,1c0.3,0.2,0.5,0.6,0.3,0.9c-0.2,0.3-0.5,0.4-0.8,0.3c-1.5-0.7-3-1-4.4-0.9
	C-393.9,187.5-394.1,187.4-394.2,187.2L-394.2,187.2z M-378.2,200.3c-0.2-0.3-0.2-0.7,0-0.9c0,0,0.1-0.1,0.1-0.1
	c1.3-0.7,2.6-1.6,3.9-2.7c0.3-0.2,0.7-0.2,0.9,0l0,0c0.2,0.3,0.2,0.7,0,0.9c0,0,0,0,0,0c-1.3,1.2-2.7,2.2-4.1,2.9
	C-377.7,200.6-378,200.5-378.2,200.3z M-382.7,195c0,0-0.1-0.1-0.1-0.1c-0.8-1.4-1.7-2.7-2.8-3.8c-0.3-0.3-0.2-0.7,0-0.9
	c0,0,0,0,0,0c0.3-0.3,0.7-0.2,0.9,0c0,0,0,0,0,0c1.2,1.2,2.2,2.6,3,4.1c0.2,0.3,0,0.7-0.3,0.9C-382.1,195.3-382.5,195.2-382.7,195z
	 M-370.9,193.9c-0.2-0.2-0.2-0.6,0-0.8c0.9-1.2,1.8-2.6,2.6-4c0.2-0.3,0.6-0.4,0.9-0.2c0.3,0.2,0.4,0.6,0.2,0.9
	c-0.9,1.5-1.8,2.9-2.7,4.2C-370.1,194.1-370.5,194.2-370.9,193.9C-370.9,193.9-370.9,193.9-370.9,193.9L-370.9,193.9z M-366.1,185.4
	c-0.2-0.2-0.2-0.5-0.1-0.7c0.6-1.5,1.2-3,1.8-4.5c0.1-0.3,0.5-0.5,0.8-0.4c0.3,0.1,0.5,0.5,0.4,0.8c-0.5,1.6-1.1,3.1-1.8,4.6
	c-0.1,0.3-0.5,0.5-0.9,0.3C-365.9,185.5-366,185.5-366.1,185.4z M-362.9,176.1c-0.1-0.2-0.2-0.4-0.2-0.6c0.3-1.6,0.6-3.2,0.7-4.8
	c0-0.4,0.4-0.6,0.7-0.6c0.3,0,0.6,0.3,0.6,0.7c-0.1,1.7-0.4,3.3-0.7,4.9c-0.1,0.4-0.4,0.6-0.8,0.5
	C-362.7,176.3-362.8,176.2-362.9,176.1L-362.9,176.1z M-362.1,166.4c-0.1-0.1-0.2-0.3-0.2-0.4c-0.1-1.6-0.2-3.2-0.5-4.8
	c-0.1-0.4,0.2-0.7,0.5-0.7c0,0,0,0,0,0c0.4-0.1,0.7,0.2,0.7,0.5c0,0,0,0,0,0c0.3,1.7,0.4,3.3,0.5,4.9c0,0.4-0.3,0.7-0.6,0.7
	c0,0,0,0,0,0C-361.8,166.6-362,166.5-362.1,166.4z M-432.2,83.3c-0.2-0.2-0.2-0.5-0.1-0.7c0.2-0.3,0.5-0.5,0.9-0.3
	c1.3,0.6,2.7,1.4,4.4,2.3c0.3,0.2,0.4,0.6,0.2,0.9c-0.2,0.3-0.6,0.4-0.9,0.2c-1.6-0.9-3-1.7-4.3-2.3
	C-432.1,83.4-432.2,83.4-432.2,83.3z M-363.5,156.7c-0.1-0.1-0.1-0.2-0.2-0.3c-0.4-1.6-0.9-3.1-1.4-4.6c-0.1-0.3,0.1-0.7,0.4-0.8
	c0,0,0,0,0,0c0.3-0.1,0.7,0.1,0.8,0.4c0,0,0,0,0,0c0.6,1.6,1,3.2,1.4,4.7c0.1,0.3-0.1,0.7-0.5,0.8
	C-363.1,157-363.4,156.9-363.5,156.7L-363.5,156.7z M-423.7,88.2c-0.2-0.2-0.2-0.5-0.1-0.8c0.2-0.3,0.6-0.4,0.9-0.2c0,0,0,0,0,0
	c1.4,0.9,2.8,1.8,4.1,2.7c0.3,0.2,0.4,0.6,0.2,0.9c0,0,0,0,0,0c-0.2,0.3-0.6,0.4-0.9,0.2c0,0,0,0,0,0c-1.3-0.9-2.7-1.8-4.1-2.7
	C-423.6,88.2-423.7,88.2-423.7,88.2L-423.7,88.2z M-366.8,147.5c0-0.1-0.1-0.1-0.1-0.2c-0.7-1.5-1.4-2.9-2.1-4.4
	c-0.2-0.3,0-0.7,0.3-0.9c0.3-0.2,0.7,0,0.9,0.3c0.8,1.5,1.5,2.9,2.1,4.4c0.1,0.3,0,0.7-0.3,0.9
	C-366.3,147.7-366.6,147.7-366.8,147.5z M-415.6,93.6c-0.2-0.3-0.2-0.7,0-0.9c0.2-0.2,0.6-0.2,0.8-0.1c1.3,1,2.7,1.9,4,2.9
	c0.3,0.2,0.3,0.6,0.1,0.9c-0.2,0.3-0.6,0.3-0.9,0.1C-412.9,95.6-414.2,94.7-415.6,93.6C-415.5,93.7-415.6,93.7-415.6,93.6
	L-415.6,93.6z M-407.8,99.5c-0.2-0.2-0.2-0.6,0-0.8c0.2-0.3,0.6-0.3,0.9-0.1c1.3,1,2.6,2,3.8,3.1c0.3,0.2,0.3,0.6,0.1,0.9
	c-0.2,0.3-0.6,0.3-0.9,0.1c0,0,0,0,0,0C-405.1,101.6-406.4,100.6-407.8,99.5C-407.7,99.6-407.7,99.6-407.8,99.5L-407.8,99.5z
	 M-371.3,138.8c0,0-0.1-0.1-0.1-0.1c-0.8-1.4-1.7-2.8-2.6-4.1c-0.2-0.3-0.1-0.7,0.2-0.9c0.3-0.2,0.7-0.1,0.9,0.2
	c0.9,1.4,1.8,2.8,2.6,4.2c0.2,0.3,0.1,0.7-0.2,0.9C-370.7,139.1-371.1,139-371.3,138.8z M-400.2,105.8c-0.3-0.3-0.2-0.7,0-0.9
	c0.2-0.2,0.6-0.2,0.9,0c1.2,1.1,2.5,2.2,3.7,3.3c0.3,0.2,0.3,0.7,0,0.9c-0.2,0.3-0.6,0.3-0.9,0C-397.7,108-398.9,106.9-400.2,105.8
	C-400.2,105.8-400.2,105.8-400.2,105.8L-400.2,105.8z M-376.7,130.7C-376.8,130.6-376.8,130.6-376.7,130.7c-1-1.4-2-2.6-3-3.9
	c-0.2-0.3-0.2-0.7,0.1-0.9c0,0,0,0,0,0c0.3-0.2,0.7-0.2,0.9,0.1c0,0,0,0,0,0c1,1.3,2,2.6,3,3.9c0.2,0.3,0.1,0.7-0.1,0.9
	C-376.2,130.9-376.5,130.9-376.7,130.7L-376.7,130.7z M-393,112.4c-0.2-0.3-0.2-0.7,0.1-0.9c0.3-0.2,0.6-0.2,0.9,0
	c1.2,1.1,2.3,2.3,3.5,3.5c0.2,0.3,0.2,0.7,0,0.9c-0.3,0.3-0.7,0.3-0.9,0c0,0,0,0,0,0C-390.6,114.7-391.8,113.5-393,112.4
	C-393,112.4-393,112.4-393,112.4z M-382.9,123L-382.9,123c-1.1-1.2-2.2-2.5-3.3-3.7c-0.2-0.3-0.2-0.7,0-0.9c0.3-0.2,0.7-0.2,0.9,0
	c0,0,0,0,0,0l0,0c1.1,1.2,2.2,2.4,3.3,3.7c0.2,0.3,0.2,0.7-0.1,0.9C-382.2,123.3-382.6,123.3-382.9,123L-382.9,123z"/>
<defs>
	<filter id="Adobe_OpacityMaskFilter" filterUnits="userSpaceOnUse" x="-467.3" y="81.1" width="107.5" height="159.6">
		<feColorMatrix  type="matrix" values="1 0 0 0 0  0 1 0 0 0  0 0 1 0 0  0 0 0 1 0"/>
	</filter>
</defs>
<mask maskUnits="userSpaceOnUse" x="-467.3" y="81.1" width="107.5" height="159.6" id="a_00000158005664807144497710000012810765801847242428_">
	<path class="st20" d="M-521.8,73.7h189.5v189.8h-189.5V73.7z"/>
	<path d="M-466,221.4c-0.2-0.3-0.2-0.7,0-0.9c0.2-0.2,0.6-0.2,0.9,0c1.3,1,2.6,2,3.9,3c0.3,0.2,0.4,0.6,0.1,0.9
		c-0.2,0.3-0.6,0.4-0.9,0.1C-463.4,223.5-464.7,222.5-466,221.4C-466,221.4-466,221.4-466,221.4L-466,221.4z M-458.1,227.1
		c-0.2-0.2-0.2-0.6-0.1-0.8c0.2-0.3,0.6-0.4,0.9-0.2c1.4,0.9,2.7,1.7,4.2,2.5c0.3,0.2,0.4,0.6,0.2,0.9c-0.2,0.3-0.6,0.4-0.9,0.2
		c-1.4-0.8-2.8-1.7-4.2-2.6C-458,227.2-458,227.2-458.1,227.1L-458.1,227.1z M-449.6,232c-0.2-0.3-0.2-0.7,0-0.9
		c0.2-0.2,0.5-0.2,0.7-0.1c1.4,0.7,2.9,1.4,4.4,2.1c0.3,0.1,0.5,0.5,0.3,0.9c-0.1,0.3-0.5,0.5-0.9,0.3c-1.5-0.7-3-1.4-4.5-2.1
		C-449.5,232.1-449.5,232.1-449.6,232L-449.6,232z M-440.6,235.9c-0.2-0.3-0.2-0.7,0-0.9c0.2-0.2,0.4-0.2,0.7-0.1
		c1.5,0.6,3.1,1,4.6,1.5c0.3,0.1,0.6,0.5,0.5,0.8c-0.1,0.3-0.5,0.6-0.8,0.5c-1.6-0.4-3.2-0.9-4.7-1.5
		C-440.4,236-440.5,236-440.6,235.9z M-431.1,238.5c-0.2-0.3-0.2-0.7,0-0.9c0.2-0.1,0.4-0.2,0.6-0.2c1.6,0.3,3.2,0.5,4.8,0.7
		c0.4,0,0.6,0.4,0.6,0.7c0,0.4-0.4,0.6-0.7,0.6l0,0c-1.6-0.1-3.3-0.4-4.9-0.7C-430.9,238.7-431,238.6-431.1,238.5z M-421.4,239.3
		c-0.2-0.3-0.2-0.7,0-0.9c0.1-0.1,0.3-0.2,0.4-0.2c1.6,0,3.2-0.1,4.8-0.3c0.4,0,0.7,0.2,0.7,0.6c0,0.4-0.2,0.7-0.6,0.7
		c-1.6,0.2-3.3,0.3-5,0.4C-421.1,239.6-421.3,239.5-421.4,239.3L-421.4,239.3z M-411.7,238.1c-0.2-0.3-0.2-0.7,0-0.9
		c0.1-0.1,0.2-0.1,0.3-0.2c1.6-0.4,3.1-0.9,4.6-1.5c0.3-0.1,0.7,0,0.8,0.4c0,0,0,0,0,0c0.1,0.3,0,0.7-0.4,0.8
		c-1.5,0.6-3.1,1.1-4.7,1.5C-411.3,238.3-411.5,238.2-411.7,238.1L-411.7,238.1z M-402.6,234.5c-0.2-0.3-0.2-0.7,0-0.9
		c0,0,0.1-0.1,0.1-0.1c1.4-0.8,2.8-1.6,4.1-2.5c0.3-0.2,0.7-0.1,0.9,0.2c0.2,0.3,0.1,0.7-0.2,0.9c-1.4,0.9-2.8,1.8-4.2,2.6
		C-402.1,234.8-402.4,234.8-402.6,234.5z M-394.5,229.1C-394.5,229.1-394.5,229-394.5,229.1c-0.3-0.3-0.2-0.7,0.1-1c0,0,0,0,0,0
		c1.3-1,2.5-2.1,3.6-3.2c0.3-0.3,0.7-0.3,0.9,0c0.3,0.3,0.3,0.7,0,0.9c0,0,0,0,0,0c-1.2,1.1-2.4,2.2-3.7,3.3
		C-393.9,229.3-394.3,229.3-394.5,229.1z M-387.5,222.2c-0.2-0.2-0.2-0.6,0-0.9c1-1.2,2-2.5,2.8-3.9c0.2-0.3,0.6-0.4,0.9-0.2
		c0.3,0.2,0.4,0.6,0.2,0.9c-0.9,1.4-1.9,2.8-2.9,4C-386.7,222.5-387.2,222.5-387.5,222.2C-387.5,222.3-387.5,222.2-387.5,222.2
		L-387.5,222.2z M-382.3,213.9c-0.2-0.2-0.2-0.5-0.1-0.7c0.6-1.5,1.1-3,1.4-4.5c0.1-0.4,0.4-0.6,0.8-0.5c0.4,0.1,0.6,0.4,0.5,0.8
		c-0.4,1.6-0.9,3.2-1.5,4.8c-0.1,0.3-0.5,0.5-0.9,0.3c0,0,0,0,0,0C-382.2,214-382.3,214-382.3,213.9L-382.3,213.9z M-396.4,197.7
		c-0.2-0.3-0.2-0.7,0.1-0.9c0.2-0.2,0.6-0.2,0.9,0c1.1,1,2.4,2,3.9,2.7c0.3,0.2,0.4,0.6,0.3,0.9c-0.2,0.3-0.5,0.4-0.8,0.3
		C-393.7,199.9-395.1,198.9-396.4,197.7C-396.3,197.7-396.4,197.7-396.4,197.7L-396.4,197.7z M-399.1,193.7
		c-0.1-0.1-0.1-0.1-0.1-0.2c-0.8-2.1-0.6-3.9,0.6-5.3c0.2-0.3,0.6-0.3,0.9-0.1c0.3,0.2,0.3,0.7,0.1,0.9c0,0,0,0,0,0
		c-1.1,1.2-0.8,2.8-0.4,4c0.1,0.3,0,0.7-0.4,0.8C-398.7,194-399,193.9-399.1,193.7L-399.1,193.7z M-387.7,202
		c-0.1-0.1-0.2-0.3-0.2-0.5c0.1-0.4,0.4-0.6,0.7-0.5c1.6,0.2,3.1,0.2,4.7,0c0.4-0.1,0.7,0.2,0.8,0.5c0,0,0,0,0,0
		c0.1,0.4-0.2,0.7-0.5,0.8c-1.7,0.3-3.4,0.3-5.1,0C-387.5,202.1-387.6,202.1-387.7,202L-387.7,202z M-380.3,204.4
		c-0.1-0.1-0.2-0.3-0.2-0.4c0-1.6-0.2-3.2-0.6-4.7c-0.1-0.4,0.1-0.7,0.5-0.8c0.3-0.1,0.7,0.1,0.8,0.5c0.4,1.6,0.6,3.3,0.6,5
		c0,0.4-0.3,0.7-0.7,0.7c0,0,0,0,0,0C-380,204.6-380.2,204.5-380.3,204.4L-380.3,204.4z M-394.2,187.2c-0.2-0.3-0.2-0.7,0-0.9
		c0.1-0.1,0.2-0.2,0.4-0.2c1.7-0.1,3.4,0.2,5.1,1c0.3,0.2,0.5,0.6,0.3,0.9c-0.2,0.3-0.5,0.4-0.8,0.3c-1.5-0.7-3-1-4.4-0.9
		C-393.9,187.5-394.1,187.4-394.2,187.2L-394.2,187.2z M-378.2,200.3c-0.2-0.3-0.2-0.7,0-0.9c0,0,0.1-0.1,0.1-0.1
		c1.3-0.7,2.6-1.6,3.9-2.7c0.3-0.2,0.7-0.2,0.9,0l0,0c0.2,0.3,0.2,0.7,0,0.9c0,0,0,0,0,0c-1.3,1.2-2.7,2.2-4.1,2.9
		C-377.7,200.6-378,200.5-378.2,200.3z M-382.7,195c0,0-0.1-0.1-0.1-0.1c-0.8-1.4-1.7-2.7-2.8-3.8c-0.3-0.3-0.2-0.7,0-0.9
		c0,0,0,0,0,0c0.3-0.3,0.7-0.2,0.9,0c0,0,0,0,0,0c1.2,1.2,2.2,2.6,3,4.1c0.2,0.3,0,0.7-0.3,0.9C-382.1,195.3-382.5,195.2-382.7,195z
		 M-370.9,193.9c-0.2-0.2-0.2-0.6,0-0.8c0.9-1.2,1.8-2.6,2.6-4c0.2-0.3,0.6-0.4,0.9-0.2c0.3,0.2,0.4,0.6,0.2,0.9
		c-0.9,1.5-1.8,2.9-2.7,4.2C-370.1,194.1-370.5,194.2-370.9,193.9C-370.9,193.9-370.9,193.9-370.9,193.9L-370.9,193.9z
		 M-366.1,185.4c-0.2-0.2-0.2-0.5-0.1-0.7c0.6-1.5,1.2-3,1.8-4.5c0.1-0.3,0.5-0.5,0.8-0.4c0.3,0.1,0.5,0.5,0.4,0.8
		c-0.5,1.6-1.1,3.1-1.8,4.6c-0.1,0.3-0.5,0.5-0.9,0.3C-365.9,185.5-366,185.5-366.1,185.4z M-362.9,176.1c-0.1-0.2-0.2-0.4-0.2-0.6
		c0.3-1.6,0.6-3.2,0.7-4.8c0-0.4,0.4-0.6,0.7-0.6c0.3,0,0.6,0.3,0.6,0.7c-0.1,1.7-0.4,3.3-0.7,4.9c-0.1,0.4-0.4,0.6-0.8,0.5
		C-362.7,176.3-362.8,176.2-362.9,176.1L-362.9,176.1z M-362.1,166.4c-0.1-0.1-0.2-0.3-0.2-0.4c-0.1-1.6-0.2-3.2-0.5-4.8
		c-0.1-0.4,0.2-0.7,0.5-0.7c0,0,0,0,0,0c0.4-0.1,0.7,0.2,0.7,0.5c0,0,0,0,0,0c0.3,1.7,0.4,3.3,0.5,4.9c0,0.4-0.3,0.7-0.6,0.7
		c0,0,0,0,0,0C-361.8,166.6-362,166.5-362.1,166.4z M-432.2,83.3c-0.2-0.2-0.2-0.5-0.1-0.7c0.2-0.3,0.5-0.5,0.9-0.3
		c1.3,0.6,2.7,1.4,4.4,2.3c0.3,0.2,0.4,0.6,0.2,0.9c-0.2,0.3-0.6,0.4-0.9,0.2c-1.6-0.9-3-1.7-4.3-2.3
		C-432.1,83.4-432.2,83.4-432.2,83.3z M-363.5,156.7c-0.1-0.1-0.1-0.2-0.2-0.3c-0.4-1.6-0.9-3.1-1.4-4.6c-0.1-0.3,0.1-0.7,0.4-0.8
		c0,0,0,0,0,0c0.3-0.1,0.7,0.1,0.8,0.4c0,0,0,0,0,0c0.6,1.6,1,3.2,1.4,4.7c0.1,0.3-0.1,0.7-0.5,0.8
		C-363.1,157-363.4,156.9-363.5,156.7L-363.5,156.7z M-423.7,88.2c-0.2-0.2-0.2-0.5-0.1-0.8c0.2-0.3,0.6-0.4,0.9-0.2c0,0,0,0,0,0
		c1.4,0.9,2.8,1.8,4.1,2.7c0.3,0.2,0.4,0.6,0.2,0.9c0,0,0,0,0,0c-0.2,0.3-0.6,0.4-0.9,0.2c0,0,0,0,0,0c-1.3-0.9-2.7-1.8-4.1-2.7
		C-423.6,88.2-423.7,88.2-423.7,88.2L-423.7,88.2z M-366.8,147.5c0-0.1-0.1-0.1-0.1-0.2c-0.7-1.5-1.4-2.9-2.1-4.4
		c-0.2-0.3,0-0.7,0.3-0.9c0.3-0.2,0.7,0,0.9,0.3c0.8,1.5,1.5,2.9,2.1,4.4c0.1,0.3,0,0.7-0.3,0.9
		C-366.3,147.7-366.6,147.7-366.8,147.5z M-415.6,93.6c-0.2-0.3-0.2-0.7,0-0.9c0.2-0.2,0.6-0.2,0.8-0.1c1.3,1,2.7,1.9,4,2.9
		c0.3,0.2,0.3,0.6,0.1,0.9c-0.2,0.3-0.6,0.3-0.9,0.1C-412.9,95.6-414.2,94.7-415.6,93.6C-415.5,93.7-415.6,93.7-415.6,93.6
		L-415.6,93.6z M-407.8,99.5c-0.2-0.2-0.2-0.6,0-0.8c0.2-0.3,0.6-0.3,0.9-0.1c1.3,1,2.6,2,3.8,3.1c0.3,0.2,0.3,0.6,0.1,0.9
		c-0.2,0.3-0.6,0.3-0.9,0.1c0,0,0,0,0,0C-405.1,101.6-406.4,100.6-407.8,99.5C-407.7,99.6-407.7,99.6-407.8,99.5L-407.8,99.5z
		 M-371.3,138.8c0,0-0.1-0.1-0.1-0.1c-0.8-1.4-1.7-2.8-2.6-4.1c-0.2-0.3-0.1-0.7,0.2-0.9c0.3-0.2,0.7-0.1,0.9,0.2
		c0.9,1.4,1.8,2.8,2.6,4.2c0.2,0.3,0.1,0.7-0.2,0.9C-370.7,139.1-371.1,139-371.3,138.8z M-400.2,105.8c-0.3-0.3-0.2-0.7,0-0.9
		c0.2-0.2,0.6-0.2,0.9,0c1.2,1.1,2.5,2.2,3.7,3.3c0.3,0.2,0.3,0.7,0,0.9c-0.2,0.3-0.6,0.3-0.9,0C-397.7,108-398.9,106.9-400.2,105.8
		C-400.2,105.8-400.2,105.8-400.2,105.8L-400.2,105.8z M-376.7,130.7C-376.8,130.6-376.8,130.6-376.7,130.7c-1-1.4-2-2.6-3-3.9
		c-0.2-0.3-0.2-0.7,0.1-0.9c0,0,0,0,0,0c0.3-0.2,0.7-0.2,0.9,0.1c0,0,0,0,0,0c1,1.3,2,2.6,3,3.9c0.2,0.3,0.1,0.7-0.1,0.9
		C-376.2,130.9-376.5,130.9-376.7,130.7L-376.7,130.7z M-393,112.4c-0.2-0.3-0.2-0.7,0.1-0.9c0.3-0.2,0.6-0.2,0.9,0
		c1.2,1.1,2.3,2.3,3.5,3.5c0.2,0.3,0.2,0.7,0,0.9c-0.3,0.3-0.7,0.3-0.9,0c0,0,0,0,0,0C-390.6,114.7-391.8,113.5-393,112.4
		C-393,112.4-393,112.4-393,112.4z M-382.9,123L-382.9,123c-1.1-1.2-2.2-2.5-3.3-3.7c-0.2-0.3-0.2-0.7,0-0.9c0.3-0.2,0.7-0.2,0.9,0
		c0,0,0,0,0,0l0,0c1.1,1.2,2.2,2.4,3.3,3.7c0.2,0.3,0.2,0.7-0.1,0.9C-382.2,123.3-382.6,123.3-382.9,123L-382.9,123z"/>
</mask>
<path class="st21" d="M-466,221.4c-0.2-0.3-0.2-0.7,0-0.9c0.2-0.2,0.6-0.2,0.9,0c1.3,1,2.6,2,3.9,3c0.3,0.2,0.4,0.6,0.1,0.9
	c-0.2,0.3-0.6,0.4-0.9,0.1C-463.4,223.5-464.7,222.5-466,221.4C-466,221.4-466,221.4-466,221.4L-466,221.4z M-458.1,227.1
	c-0.2-0.2-0.2-0.6-0.1-0.8c0.2-0.3,0.6-0.4,0.9-0.2c1.4,0.9,2.7,1.7,4.2,2.5c0.3,0.2,0.4,0.6,0.2,0.9c-0.2,0.3-0.6,0.4-0.9,0.2
	c-1.4-0.8-2.8-1.7-4.2-2.6C-458,227.2-458,227.2-458.1,227.1L-458.1,227.1z M-449.6,232c-0.2-0.3-0.2-0.7,0-0.9
	c0.2-0.2,0.5-0.2,0.7-0.1c1.4,0.7,2.9,1.4,4.4,2.1c0.3,0.1,0.5,0.5,0.3,0.9c-0.1,0.3-0.5,0.5-0.9,0.3c-1.5-0.7-3-1.4-4.5-2.1
	C-449.5,232.1-449.5,232.1-449.6,232L-449.6,232z M-440.6,235.9c-0.2-0.3-0.2-0.7,0-0.9c0.2-0.2,0.4-0.2,0.7-0.1
	c1.5,0.6,3.1,1,4.6,1.5c0.3,0.1,0.6,0.5,0.5,0.8c-0.1,0.3-0.5,0.6-0.8,0.5c-1.6-0.4-3.2-0.9-4.7-1.5
	C-440.4,236-440.5,236-440.6,235.9z M-431.1,238.5c-0.2-0.3-0.2-0.7,0-0.9c0.2-0.1,0.4-0.2,0.6-0.2c1.6,0.3,3.2,0.5,4.8,0.7
	c0.4,0,0.6,0.4,0.6,0.7c0,0.4-0.4,0.6-0.7,0.6l0,0c-1.6-0.1-3.3-0.4-4.9-0.7C-430.9,238.7-431,238.6-431.1,238.5z M-421.4,239.3
	c-0.2-0.3-0.2-0.7,0-0.9c0.1-0.1,0.3-0.2,0.4-0.2c1.6,0,3.2-0.1,4.8-0.3c0.4,0,0.7,0.2,0.7,0.6c0,0.4-0.2,0.7-0.6,0.7
	c-1.6,0.2-3.3,0.3-5,0.4C-421.1,239.6-421.3,239.5-421.4,239.3L-421.4,239.3z M-411.7,238.1c-0.2-0.3-0.2-0.7,0-0.9
	c0.1-0.1,0.2-0.1,0.3-0.2c1.6-0.4,3.1-0.9,4.6-1.5c0.3-0.1,0.7,0,0.8,0.4c0,0,0,0,0,0c0.1,0.3,0,0.7-0.4,0.8
	c-1.5,0.6-3.1,1.1-4.7,1.5C-411.3,238.3-411.5,238.2-411.7,238.1L-411.7,238.1z M-402.6,234.5c-0.2-0.3-0.2-0.7,0-0.9
	c0,0,0.1-0.1,0.1-0.1c1.4-0.8,2.8-1.6,4.1-2.5c0.3-0.2,0.7-0.1,0.9,0.2c0.2,0.3,0.1,0.7-0.2,0.9c-1.4,0.9-2.8,1.8-4.2,2.6
	C-402.1,234.8-402.4,234.8-402.6,234.5z M-394.5,229.1C-394.5,229.1-394.5,229-394.5,229.1c-0.3-0.3-0.2-0.7,0.1-1c0,0,0,0,0,0
	c1.3-1,2.5-2.1,3.6-3.2c0.3-0.3,0.7-0.3,0.9,0c0.3,0.3,0.3,0.7,0,0.9c0,0,0,0,0,0c-1.2,1.1-2.4,2.2-3.7,3.3
	C-393.9,229.3-394.3,229.3-394.5,229.1z M-387.5,222.2c-0.2-0.2-0.2-0.6,0-0.9c1-1.2,2-2.5,2.8-3.9c0.2-0.3,0.6-0.4,0.9-0.2
	c0.3,0.2,0.4,0.6,0.2,0.9c-0.9,1.4-1.9,2.8-2.9,4C-386.7,222.5-387.2,222.5-387.5,222.2C-387.5,222.3-387.5,222.2-387.5,222.2
	L-387.5,222.2z M-382.3,213.9c-0.2-0.2-0.2-0.5-0.1-0.7c0.6-1.5,1.1-3,1.4-4.5c0.1-0.4,0.4-0.6,0.8-0.5c0.4,0.1,0.6,0.4,0.5,0.8
	c-0.4,1.6-0.9,3.2-1.5,4.8c-0.1,0.3-0.5,0.5-0.9,0.3c0,0,0,0,0,0C-382.2,214-382.3,214-382.3,213.9L-382.3,213.9z M-396.4,197.7
	c-0.2-0.3-0.2-0.7,0.1-0.9c0.2-0.2,0.6-0.2,0.9,0c1.1,1,2.4,2,3.9,2.7c0.3,0.2,0.4,0.6,0.3,0.9c-0.2,0.3-0.5,0.4-0.8,0.3
	C-393.7,199.9-395.1,198.9-396.4,197.7C-396.3,197.7-396.4,197.7-396.4,197.7L-396.4,197.7z M-399.1,193.7c-0.1-0.1-0.1-0.1-0.1-0.2
	c-0.8-2.1-0.6-3.9,0.6-5.3c0.2-0.3,0.6-0.3,0.9-0.1c0.3,0.2,0.3,0.7,0.1,0.9c0,0,0,0,0,0c-1.1,1.2-0.8,2.8-0.4,4
	c0.1,0.3,0,0.7-0.4,0.8C-398.7,194-399,193.9-399.1,193.7L-399.1,193.7z M-387.7,202c-0.1-0.1-0.2-0.3-0.2-0.5
	c0.1-0.4,0.4-0.6,0.7-0.5c1.6,0.2,3.1,0.2,4.7,0c0.4-0.1,0.7,0.2,0.8,0.5c0,0,0,0,0,0c0.1,0.4-0.2,0.7-0.5,0.8
	c-1.7,0.3-3.4,0.3-5.1,0C-387.5,202.1-387.6,202.1-387.7,202L-387.7,202z M-380.3,204.4c-0.1-0.1-0.2-0.3-0.2-0.4
	c0-1.6-0.2-3.2-0.6-4.7c-0.1-0.4,0.1-0.7,0.5-0.8c0.3-0.1,0.7,0.1,0.8,0.5c0.4,1.6,0.6,3.3,0.6,5c0,0.4-0.3,0.7-0.7,0.7c0,0,0,0,0,0
	C-380,204.6-380.2,204.5-380.3,204.4L-380.3,204.4z M-394.2,187.2c-0.2-0.3-0.2-0.7,0-0.9c0.1-0.1,0.2-0.2,0.4-0.2
	c1.7-0.1,3.4,0.2,5.1,1c0.3,0.2,0.5,0.6,0.3,0.9c-0.2,0.3-0.5,0.4-0.8,0.3c-1.5-0.7-3-1-4.4-0.9
	C-393.9,187.5-394.1,187.4-394.2,187.2L-394.2,187.2z M-378.2,200.3c-0.2-0.3-0.2-0.7,0-0.9c0,0,0.1-0.1,0.1-0.1
	c1.3-0.7,2.6-1.6,3.9-2.7c0.3-0.2,0.7-0.2,0.9,0l0,0c0.2,0.3,0.2,0.7,0,0.9c0,0,0,0,0,0c-1.3,1.2-2.7,2.2-4.1,2.9
	C-377.7,200.6-378,200.5-378.2,200.3z M-382.7,195c0,0-0.1-0.1-0.1-0.1c-0.8-1.4-1.7-2.7-2.8-3.8c-0.3-0.3-0.2-0.7,0-0.9
	c0,0,0,0,0,0c0.3-0.3,0.7-0.2,0.9,0c0,0,0,0,0,0c1.2,1.2,2.2,2.6,3,4.1c0.2,0.3,0,0.7-0.3,0.9C-382.1,195.3-382.5,195.2-382.7,195z
	 M-370.9,193.9c-0.2-0.2-0.2-0.6,0-0.8c0.9-1.2,1.8-2.6,2.6-4c0.2-0.3,0.6-0.4,0.9-0.2c0.3,0.2,0.4,0.6,0.2,0.9
	c-0.9,1.5-1.8,2.9-2.7,4.2C-370.1,194.1-370.5,194.2-370.9,193.9C-370.9,193.9-370.9,193.9-370.9,193.9L-370.9,193.9z M-366.1,185.4
	c-0.2-0.2-0.2-0.5-0.1-0.7c0.6-1.5,1.2-3,1.8-4.5c0.1-0.3,0.5-0.5,0.8-0.4c0.3,0.1,0.5,0.5,0.4,0.8c-0.5,1.6-1.1,3.1-1.8,4.6
	c-0.1,0.3-0.5,0.5-0.9,0.3C-365.9,185.5-366,185.5-366.1,185.4z M-362.9,176.1c-0.1-0.2-0.2-0.4-0.2-0.6c0.3-1.6,0.6-3.2,0.7-4.8
	c0-0.4,0.4-0.6,0.7-0.6c0.3,0,0.6,0.3,0.6,0.7c-0.1,1.7-0.4,3.3-0.7,4.9c-0.1,0.4-0.4,0.6-0.8,0.5
	C-362.7,176.3-362.8,176.2-362.9,176.1L-362.9,176.1z M-362.1,166.4c-0.1-0.1-0.2-0.3-0.2-0.4c-0.1-1.6-0.2-3.2-0.5-4.8
	c-0.1-0.4,0.2-0.7,0.5-0.7c0,0,0,0,0,0c0.4-0.1,0.7,0.2,0.7,0.5c0,0,0,0,0,0c0.3,1.7,0.4,3.3,0.5,4.9c0,0.4-0.3,0.7-0.6,0.7
	c0,0,0,0,0,0C-361.8,166.6-362,166.5-362.1,166.4z M-432.2,83.3c-0.2-0.2-0.2-0.5-0.1-0.7c0.2-0.3,0.5-0.5,0.9-0.3
	c1.3,0.6,2.7,1.4,4.4,2.3c0.3,0.2,0.4,0.6,0.2,0.9c-0.2,0.3-0.6,0.4-0.9,0.2c-1.6-0.9-3-1.7-4.3-2.3
	C-432.1,83.4-432.2,83.4-432.2,83.3z M-363.5,156.7c-0.1-0.1-0.1-0.2-0.2-0.3c-0.4-1.6-0.9-3.1-1.4-4.6c-0.1-0.3,0.1-0.7,0.4-0.8
	c0,0,0,0,0,0c0.3-0.1,0.7,0.1,0.8,0.4c0,0,0,0,0,0c0.6,1.6,1,3.2,1.4,4.7c0.1,0.3-0.1,0.7-0.5,0.8
	C-363.1,157-363.4,156.9-363.5,156.7L-363.5,156.7z M-423.7,88.2c-0.2-0.2-0.2-0.5-0.1-0.8c0.2-0.3,0.6-0.4,0.9-0.2c0,0,0,0,0,0
	c1.4,0.9,2.8,1.8,4.1,2.7c0.3,0.2,0.4,0.6,0.2,0.9c0,0,0,0,0,0c-0.2,0.3-0.6,0.4-0.9,0.2c0,0,0,0,0,0c-1.3-0.9-2.7-1.8-4.1-2.7
	C-423.6,88.2-423.7,88.2-423.7,88.2L-423.7,88.2z M-366.8,147.5c0-0.1-0.1-0.1-0.1-0.2c-0.7-1.5-1.4-2.9-2.1-4.4
	c-0.2-0.3,0-0.7,0.3-0.9c0.3-0.2,0.7,0,0.9,0.3c0.8,1.5,1.5,2.9,2.1,4.4c0.1,0.3,0,0.7-0.3,0.9
	C-366.3,147.7-366.6,147.7-366.8,147.5z M-415.6,93.6c-0.2-0.3-0.2-0.7,0-0.9c0.2-0.2,0.6-0.2,0.8-0.1c1.3,1,2.7,1.9,4,2.9
	c0.3,0.2,0.3,0.6,0.1,0.9c-0.2,0.3-0.6,0.3-0.9,0.1C-412.9,95.6-414.2,94.7-415.6,93.6C-415.5,93.7-415.6,93.7-415.6,93.6
	L-415.6,93.6z M-407.8,99.5c-0.2-0.2-0.2-0.6,0-0.8c0.2-0.3,0.6-0.3,0.9-0.1c1.3,1,2.6,2,3.8,3.1c0.3,0.2,0.3,0.6,0.1,0.9
	c-0.2,0.3-0.6,0.3-0.9,0.1c0,0,0,0,0,0C-405.1,101.6-406.4,100.6-407.8,99.5C-407.7,99.6-407.7,99.6-407.8,99.5L-407.8,99.5z
	 M-371.3,138.8c0,0-0.1-0.1-0.1-0.1c-0.8-1.4-1.7-2.8-2.6-4.1c-0.2-0.3-0.1-0.7,0.2-0.9c0.3-0.2,0.7-0.1,0.9,0.2
	c0.9,1.4,1.8,2.8,2.6,4.2c0.2,0.3,0.1,0.7-0.2,0.9C-370.7,139.1-371.1,139-371.3,138.8z M-400.2,105.8c-0.3-0.3-0.2-0.7,0-0.9
	c0.2-0.2,0.6-0.2,0.9,0c1.2,1.1,2.5,2.2,3.7,3.3c0.3,0.2,0.3,0.7,0,0.9c-0.2,0.3-0.6,0.3-0.9,0C-397.7,108-398.9,106.9-400.2,105.8
	C-400.2,105.8-400.2,105.8-400.2,105.8L-400.2,105.8z M-376.7,130.7C-376.8,130.6-376.8,130.6-376.7,130.7c-1-1.4-2-2.6-3-3.9
	c-0.2-0.3-0.2-0.7,0.1-0.9c0,0,0,0,0,0c0.3-0.2,0.7-0.2,0.9,0.1c0,0,0,0,0,0c1,1.3,2,2.6,3,3.9c0.2,0.3,0.1,0.7-0.1,0.9
	C-376.2,130.9-376.5,130.9-376.7,130.7L-376.7,130.7z M-393,112.4c-0.2-0.3-0.2-0.7,0.1-0.9c0.3-0.2,0.6-0.2,0.9,0
	c1.2,1.1,2.3,2.3,3.5,3.5c0.2,0.3,0.2,0.7,0,0.9c-0.3,0.3-0.7,0.3-0.9,0c0,0,0,0,0,0C-390.6,114.7-391.8,113.5-393,112.4
	C-393,112.4-393,112.4-393,112.4z M-382.9,123L-382.9,123c-1.1-1.2-2.2-2.5-3.3-3.7c-0.2-0.3-0.2-0.7,0-0.9c0.3-0.2,0.7-0.2,0.9,0
	c0,0,0,0,0,0l0,0c1.1,1.2,2.2,2.4,3.3,3.7c0.2,0.3,0.2,0.7-0.1,0.9C-382.2,123.3-382.6,123.3-382.9,123L-382.9,123z"/>
<path class="st3" d="M-446.9,63.6l-3.6,7.2l-40-17.5L-446.9,63.6L-446.9,63.6z"/>
<path class="st2" d="M-455.5,78.4l-7.8,2.4l-25.3-26.6L-455.5,78.4L-455.5,78.4z"/>
<path class="st2" d="M-490.5,53.4l49.8,40.5l-4.8-21.8L-490.5,53.4L-490.5,53.4z"/>
<path class="st2" d="M-446.9,63.6l-43.6-10.2l41.4-4L-446.9,63.6L-446.9,63.6z"/>
<path class="st12" d="M-204.1,202.7l-39.3,39.3l-12-5.5c-4.3-1.9-9.1-2.1-13.5-0.4c-4.1,1.6-10.3,3.1-18.2,2.6
	c-15.3-0.9-27.8-5.7-27.8-5.7l24.2-24.5c0,0-15.8-11.4-21.8-41.6c-0.6-3.2-2.4-6.1-4.9-8.3l-14.3-12c0,0-17.4-1-23.8-17.4
	c0,0-1.8-11.5,2.5-11c0,0,49.2,20.1,55.7,23.9c6.5,3.8,11.5,5.3,25.9,23.3c3.8,4.8,7.2,8.5,10.2,11.4c5.7,5.6,12.5,9.9,20,12.6
	L-204.1,202.7z"/>
<path class="st22" d="M-396,199.9c-0.7,0.3-1.4,0.6-2.1,0.9l-0.2-0.5c0.7-0.3,1.4-0.6,2-0.9L-396,199.9z"/>
<path class="st12" d="M-431.4,160.5c0,0-12.6,2.5-11,7.5c1.6,5,24.8,5.3,24.8,5.3L-431.4,160.5L-431.4,160.5z M-409.3,182.6
	c0,0-12.6,2.5-11,7.5c1.6,5,24.8,5.3,24.8,5.3L-409.3,182.6L-409.3,182.6z M-394.4,197.5c0,0-12.6,2.5-11,7.5
	c1.6,5,24.8,5.3,24.8,5.3L-394.4,197.5z"/>
<path class="st13" d="M-436.9,143.4l45.7-45.7c3.4-3.4,8.9-3.4,12.3,0l76,76l17.3,17.3c3.4,3.4,3.4,8.9,0,12.3l-45.7,45.7
	c-3.4,3.4-8.9,3.4-12.3,0l-76-76l-17.3-17.3C-440.3,152.3-440.3,146.8-436.9,143.4L-436.9,143.4z"/>
<path class="st3" d="M-431.7,155l52-52l86.8,86.8l-52,52L-431.7,155z"/>
<path class="st12" d="M-321.9,152.6c0,0,0.9,1.5,0.7,2.8l-10.5-8.9c0,0-12.8-0.7-20.5-11.3c-2.6-3.6-3.9-8-3.6-12.5
	c0.2-2.5,0.9-4.8,2.9-4.6c0,0,23.2,9.5,39.8,16.6L-321.9,152.6L-321.9,152.6z"/>
<circle class="st2" cx="-364.8" cy="170.3" r="27.3"/>
<path class="st16" d="M-350.4,172.4l-8.5,4.1l-2.8,8c-0.8,2.2-3.8,2.4-4.8,0.3l-10.4-21.6c-1-2.1,1-4.4,3.2-3.6l23.1,8.1
	C-348.5,168.4-348.3,171.4-350.4,172.4L-350.4,172.4z"/>
<path class="st23" d="M-396.3,41h30.6c1.9,0,3.4,1.5,3.4,3.4v20.1c0,1.9-1.5,3.4-3.4,3.4h-30.6c-1.9,0-3.4-1.5-3.4-3.4c0,0,0,0,0,0
	V44.4C-399.7,42.5-398.2,41-396.3,41L-396.3,41z"/>
<path class="st23" d="M-399.5,43.4l15.5,11.1c1.7,1.2,4.1,1.2,5.8,0l15.6-11.1"/>
<path class="st23" d="M-330.7,76h30.6c1.9,0,3.4,1.5,3.4,3.4v20.1c0,1.9-1.5,3.4-3.4,3.4c0,0,0,0,0,0h-30.6c-1.9,0-3.4-1.5-3.4-3.4
	V79.4C-334.1,77.5-332.6,76-330.7,76z"/>
<path class="st23" d="M-333.9,78.3l15.5,11.1c1.7,1.2,4.1,1.2,5.8,0l15.6-11.1"/>
<path class="st23" d="M-488.1,129h30.6c1.9,0,3.4,1.5,3.4,3.4v20.1c0,1.9-1.5,3.4-3.4,3.4l0,0h-30.6c-1.9,0-3.4-1.5-3.4-3.4
	c0,0,0,0,0,0v-20.1C-491.5,130.5-490,129-488.1,129z"/>
<path class="st23" d="M-491.3,131.3l15.5,11.1c1.7,1.2,4.1,1.2,5.8,0l15.6-11.1"/>
<path class="st23" d="M-536.1,155.6h25.1c1.5,0,2.8,1.2,2.8,2.8v16.5c0,1.5-1.2,2.8-2.8,2.8l0,0h-25.1c-1.5,0-2.8-1.2-2.8-2.8
	c0,0,0,0,0,0v-16.5C-538.8,156.9-537.6,155.6-536.1,155.6z"/>
<path class="st23" d="M-538.6,157.5l12.7,9.1c1.4,1,3.3,1,4.8,0l12.8-9.1"/>
<path class="st23" d="M-491.3,193.6h20.1c1.2,0,2.2,1,2.2,2.2v12.8c0,1.2-1,2.2-2.2,2.2h-20.1c-1.2,0-2.2-1-2.2-2.2v-12.8
	C-493.5,194.6-492.5,193.6-491.3,193.6z"/>
<path class="st23" d="M-493.5,194.9l10.3,7.3c1.2,0.8,2.7,0.8,3.9,0l10.3-7.4"/>
<linearGradient id="SVGID_00000171718651544790933070000005538964160144425150_" gradientUnits="userSpaceOnUse" x1="-324.8692" y1="75.8845" x2="-274.6777" y2="99.5966" gradientTransform="matrix(1 0 0 -1 0 201.4066)">
	<stop  offset="0" style="stop-color:#FFFFFF"/>
	<stop  offset="1" style="stop-color:#EEEEEE"/>
</linearGradient>
<path style="fill:url(#SVGID_00000171718651544790933070000005538964160144425150_);" d="M-303.4,122c-5.7,1.4-11.8-3.5-11.8-3.5
	s3.2-7.1,9-8.4c5.7-1.4,11.8,3.5,11.8,3.5S-297.6,120.6-303.4,122z"/>
<linearGradient id="SVGID_00000127042312471571991210000006597650238090119578_" gradientUnits="userSpaceOnUse" x1="-419.1912" y1="-20.8674" x2="-459.1943" y2="21.3153" gradientTransform="matrix(1 0 0 -1 0 201.4066)">
	<stop  offset="0" style="stop-color:#FFFFFF"/>
	<stop  offset="1" style="stop-color:#EEEEEE"/>
</linearGradient>
<path style="fill:url(#SVGID_00000127042312471571991210000006597650238090119578_);" d="M-438.9,210.7c5.1,3.5,12.8,1.1,12.8,1.1
	s-0.5-8.1-5.6-11.6c-5.1-3.5-12.8-1.1-12.8-1.1S-443.9,207.2-438.9,210.7L-438.9,210.7z"/>
<linearGradient id="SVGID_00000097467584804277571660000014818141318511471517_" gradientUnits="userSpaceOnUse" x1="-548.6406" y1="37.644" x2="-587.6487" y2="98.7934" gradientTransform="matrix(1 0 0 -1 0 201.4066)">
	<stop  offset="0" style="stop-color:#FFFFFF"/>
	<stop  offset="1" style="stop-color:#EEEEEE"/>
</linearGradient>
<path style="fill:url(#SVGID_00000097467584804277571660000014818141318511471517_);" d="M-570,144.9c5.4,5.5,15.5,4.3,15.5,4.3
	s1.3-10.1-4.1-15.6c-5.4-5.5-15.5-4.3-15.5-4.3S-575.4,139.4-570,144.9L-570,144.9z"/>
<circle class="st2" cx="-246.8" cy="69.6" r="4.2"/>
<ellipse class="st2" cx="-516" cy="226.6" rx="11.2" ry="10.9"/>
<ellipse class="st2" cx="-233.2" cy="124.5" rx="24.4" ry="23.6"/>
<circle class="st2" cx="-516.2" cy="61.1" r="8.2"/>
<circle class="st2" cx="-318.5" cy="51.1" r="7.6"/>
<circle class="st6" cx="-380.6" cy="248.9" r="6.9"/>
<circle class="st6" cx="-570.9" cy="174.5" r="7.2"/>
<circle class="st6" cx="-291.3" cy="31.1" r="5.4"/>
<circle class="st6" cx="-439.2" cy="112.7" r="3.5"/>
<circle class="st6" cx="-560" cy="60.9" r="3.4"/>
<ellipse class="st6" cx="-220.8" cy="176.3" rx="3.6" ry="2.9"/>
<ellipse class="st6" cx="-270.4" cy="131.3" rx="2.9" ry="3.6"/>
<circle class="st6" cx="-342.9" cy="10.2" r="7.4"/>
<path class="st6" d="M-279.8,52.7L-279.8,52.7c0.7,8,6.6,8.1,6.6,8.1s-6.5,0.1-6.5,9.3c0-9.2-6.5-9.3-6.5-9.3
	S-280.4,60.6-279.8,52.7L-279.8,52.7z M-489-4.9h0.1c0.7,9.5,7.6,9.7,7.6,9.7s-7.7,0.2-7.7,11.2c0-11-7.7-11.2-7.7-11.2
	S-489.6,4.6-489-4.9L-489-4.9z M-417.5,49.6L-417.5,49.6c0.6,6.7,5.6,6.8,5.6,6.8s-5.5,0.1-5.5,7.9c0-7.8-5.5-7.9-5.5-7.9
	S-418,56.3-417.5,49.6L-417.5,49.6z M-348.3,31.2L-348.3,31.2c0.6,6.7,5.6,6.8,5.6,6.8s-5.5,0.1-5.5,7.9c0-7.8-5.5-7.9-5.5-7.9
	S-348.7,37.9-348.3,31.2L-348.3,31.2z"/>
<path class="st2" d="M-525,85.5L-525,85.5c13.9,0,25.1,11.2,25.1,25.1l0,0c0,13.9-11.2,25.1-25.1,25.1l0,0
	c-13.9,0-25.1-11.2-25.1-25.1l0,0C-550.1,96.7-538.9,85.5-525,85.5z"/>
<path class="st16" d="M-513.6,121.1v1.7c0,0.9-0.7,1.7-1.7,1.7h-19.9c-0.9,0-1.7-0.8-1.7-1.7v-1.7c0-5.1,5.7-8.4,11.6-8.4
	C-519.3,112.7-513.6,116-513.6,121.1 M-521,97.9c2.3,2.3,2.3,6,0,8.3c-2.3,2.3-6,2.3-8.3,0c-2.3-2.3-2.3-6,0-8.3
	C-527,95.6-523.3,95.6-521,97.9z"/>
<g>
	<path class="st27" d="M246.1,31.5c0,12.9-10.4,23.3-23.3,23.3c-12.9,0-23.3-10.4-23.3-23.3c0-12.9,10.4-23.3,23.3-23.3
		C235.7,8.2,246.1,18.6,246.1,31.5z M396.9,77.9c8.2,0,4.4-13-6-9.9c-0.6-18.1-30.1-31.3-42.2-6.9c-3.4-2.7-11.2,2.4-9.5,6.9
		c-3.8,0.3-6.8,0.8-9.2,1.4c-5.4,1.4-4.3,8.5,1.2,8.4L396.9,77.9L396.9,77.9z M242.1,77.9c-7.8,0-4.1-12.3,5.7-9.4
		c0.5-17.1,28.4-29.6,39.9-6.5c3.3-2.6,10.6,2.3,9,6.5c3.6,0.3,6.5,0.7,8.7,1.3c5.1,1.3,4.1,8-1.2,8L242.1,77.9L242.1,77.9z
		 M336.5,32.8c-3.7,0-2-5.9,2.7-4.5c0.3-8.1,13.5-14.1,19-3.1c1.6-1.2,5,1.1,4.3,3.1c1.7,0.1,3.1,0.3,4.1,0.6c2.4,0.6,2,3.8-0.6,3.8
		L336.5,32.8L336.5,32.8z M303.9,54.5H325c1.9,0,2.7-2.4,1.2-3.5l-0.1,0c-2.2-1.5-5.1-1.4-5.1-1.4s-0.4-8.2-8.2-8.2
		c-7,0-9.8,6.9-10.8,10.7C301.7,53.3,302.6,54.5,303.9,54.5L303.9,54.5z M74.6,77.2H51.3c-1.9,0-2.7-2.4-1.2-3.5l0.1,0
		c2.2-1.5,5.1-1.4,5.1-1.4s0.4-8.2,8.2-8.2c3.8,0,6.9,6.6,6.9,6.6s5.2,0,6.1,4.1C76.7,76,75.9,77.2,74.6,77.2L74.6,77.2z
		 M107.4,79.2h93c8.7,0,8.3-7.2,5.5-9.7c-2.9-2.6-8.7-1.5-8.7-1.5s-1.7-4.9-7.4-7.2c-5-2.1-10.2-1.1-10.2-1.1s0-3.3-3.2-6.1
		c-3.2-2.8-7.5-2.5-7.5-2.5s-2.9-18.4-22.6-18.4c-19.6,0-21.9,17.3-21.9,17.3s-4.4,0-7.6,3c-3.2,3-3.6,6.3-3.6,6.3
		s-10.7-1.5-13.9,7.8C97.4,72.6,101.3,79.2,107.4,79.2L107.4,79.2z M74.2,41.4h29.1c2.7,0,2.6-2.3,1.7-3.1c-0.9-0.8-2.7-0.5-2.7-0.5
		s-0.5-1.5-2.3-2.3c-1.6-0.7-3.2-0.3-3.2-0.3s0-1-1-1.9c-1-0.9-2.3-0.8-2.3-0.8s-0.9-5.8-7.1-5.8s-6.9,5.4-6.9,5.4s-1.4,0-2.4,0.9
		c-1,0.9-1.1,2-1.1,2s-3.4-0.5-4.4,2.5C71,39.3,72.2,41.4,74.2,41.4L74.2,41.4z"/>
	<path class="st28" d="M192.3,233.9v-63.3 M258.1,233.9v-63.3"/>
	<path class="st27" d="M181.4,198H269v-10.1h-87.6V198z M181.4,183.2H269v-10.8h-87.6V183.2z"/>
	<path class="st16" d="M172.8,214.3h104.8v-7.7H172.8V214.3z"/>
	<path class="st27" d="M172.8,214.3h104.8v-7.7H172.8V214.3z"/>
	<path class="st6" d="M386.5,239.8c-14.2,0.3-18,1.4-32.7,0.9c-7,0.1-14.5-0.1-21.4-0.3c-3.3-0.8-9,0-12.9-0.7l-1.5,0.5
		c-1.3-0.3-2.9-0.4-4.2-0.1l0.1,0.1c-2-0.3-4.2-0.1-5.2-0.3l0.1,0.1l-2.4-0.1l0.4,0.2c-3.5-0.4-7-0.4-10.2-0.3l0.3-0.6
		c-6.7,0.6-9.2-0.5-15.2,0.2l0.1,0.1c-7.7-1.5-12.1,1-20-0.4c1,0.2-0.4,0.3-0.3,0.5c-3.6-0.1-7.5-0.3-7.6-1.4
		c-2.7,0-2.2,0.3-2.5,0.8c0-0.5-2.3-0.7-4.4-0.7l0.9,0.2l-5.9-0.2l1.2-0.9c-3.2,0.3-0.8,1.1-3.8,0.9l0-0.8
		c-4.3,0.1-6.9,1.3-11.1,1.9c-17.5,0.3-36.3-1.6-52.6-0.3l-0.7,0.6c-0.3,0.8-4.5-1.2-5.1-0.5l-1.9-0.4c-0.5,0.1-1.7,0.3-0.7,0.5
		c-1.8,0.1-1.8-0.1-3.1-0.3l-1.9,0.5c-6.9,0.4-12.8-0.6-20.1-0.4c-8.7,1-25.2,0.1-34.7-0.5c-13.3-1.2-28.8,2.1-42.5,0.6
		c-0.5,0.1-1.6-0.1-1.6-0.3l-12.5,0.1c0,0-60.5,0.3-14.5-6.6l-0.3-0.2c6.8-0.5,11.1-0.5,15.9,0.4c0.7-1.1,5.6-0.1,7.2-0.5l-0.2-0.1
		c4.2,0.8,8.6-0.7,12.6,0.1c-0.2-0.1-0.2-0.4-1.2-0.4c2.9,0.1,6.9,0.4,7.2-0.3c7,0.2,16.8-0.1,21.2,0.9l-0.3-0.2
		c2.5,0.7,3.3,0.1,6.2,0.5c0.2-0.1,0.4-0.1,0.3-0.2c2.8,0.7,8.1,0.1,10.4,0.4l0.1-0.5l5.5,0.1l-2.1,0.1c0.7,1.2,4.2-0.8,8.2,0
		c3.8-0.1,7.6,2.5,11.5,1.9c1.9,0.6-1.6-0.9,1.1-0.5c0.1-0.6-1.3-0.4-0.6-0.9c2.7,0.3,4.5-0.6,7.9-0.2l0.1-0.5
		c4.4,0.9,8.3-0.6,11.2,0.2c4.5,0.4,3-1.4,7.8-0.5l1.8-0.6c2-0.1,1.4,0.8,3.7,0.5c-0.1-0.4,2.8-0.3,1.5-0.7c5.1-0.6,10.3,0.9,17-0.2
		c1.4,0.8,4.8,0.3,5.9,0.9c0.2-0.3,6.7-0.1,3-0.8c-0.3-0.1-0.9-0.1-0.9,0.1l-0.5-0.5c3.8-0.9,6.9,0.5,10.7,0.3
		c-1.1,0.1-2.6,0.1-1.6,0.5l3.5-0.1l-0.7-0.4l5.2-0.3l-0.7,0.5c2.5-0.3,3.4-1.1,6.3-0.4c1.3,0.4-2.4,0.6,0.3,0.8
		c3.4-0.3,8.5-0.8,12.9-1c-0.4,0.6,0.8,0.5,2,0.6l0.1-0.5c4.6,0.6,1.7-1,6.3-0.5l-0.4-0.3l1.2,1c4.1,1,2.2-1,6.8,0.3
		c-1.8-0.1-0.9,1,1.4,0.8l-0.6-0.5c1.2,0.1,1.6,0.3,2.5,0.2c-0.7-0.3-0.4-0.6,1.4-0.6l-1.2-0.6l3.4,0.8c2.7-0.5,6.9,0.1,8-0.5
		c0,0,5.7-0.3,7,0.4c-1.1-0.5,2-0.6,1.1-1.2c1.5,0.5,5.9,0.9,7.6,0.4l-0.3-0.1c6.5-0.6,11.1,0.8,16.9,0.1c-0.3,0.6,2.8,0.3,2,1
		c6,0.7,11-1.5,13.1,0.8c2.7,0.1,3.2-0.5,4.7-0.6l-0.7-0.1c5.1,0.2,6.6,0.2,10.4,0.1c1.9,0.2,2.2,1.2,5.6,1
		c-1.1-0.4,0.3-0.3,1.6-0.3c-0.8-0.1-1.1-0.2,0.6-0.5c0.2,0.1,0.6,0.2,0.9,0.3c0,0,0.1-0.1,0-0.1c2.1,0.1,1.8,0.3,0.8,0.3
		c0,0.1,0,0.1-0.3,0.3c2.2-0.5,6.1,0.1,6.4-0.6c6.4,0.2,11,0.9,16.3,1.2c0.6-0.4-0.7-0.7-2.2-0.8l3.8,0.1c0-0.5-2.2-0.3-3.3-0.4
		c4.5-0.8,9.3,0.8,14.5,0.1l1.1,0.4l0.3-0.1c0,0.2,1.2,0.5,1.9,0.6c0.7-0.5,0-1,2.6-1c2.1-0.5,5.9,0.2,8.6,0.5
		c-1.5,0.1-1,0.3-0.4,0.5c1.3,0,2-0.5,3.1-0.3l0.1-0.6c-0.5,0.6,3.4,0.6,3.9,0.8c0.7-0.5-2-0.4-2.3-0.7c5.2,0.1,2.6,0,7.9,0.1
		c2.8,0.5-0.5,0.6,0.8,1.1c2.5,0.1,4.9,0.5,7.7,0.2l-0.9,0.5c4.6,0.5,7.4,0.4,10.5-0.2c34.5,4.4,7.3,6,7.3,6
		C409.6,241.8,402.6,240.3,386.5,239.8L386.5,239.8z"/>
	<path class="st6" d="M394.1,243.4c-14.9,0.6-18.8,3.2-34.3,2.1c-7.4,0.2-15.2-0.3-22.4-0.6c-3.4-2-9.4,0-13.5-1.7l-1.6,1.1
		c-1.4-0.6-3-0.9-4.4-0.3l0.1,0.3c-2.1-0.8-4.4-0.3-5.4-0.8l0.1,0.3l-2.5-0.2l0.4,0.5c-3.6-0.9-7.4-0.9-10.7-0.6l0.3-1.4
		c-7.1,1.5-9.6-1.2-16,0.5l0.1,0.3c-8-3.5-12.7,2.4-21-0.9c1,0.5-0.4,0.6-0.4,1.1c-3.8-0.3-7.9-0.6-8-3.2c-2.8,0-2.3,0.8-2.6,1.8
		c0-1.1-2.4-1.7-4.6-1.7l1,0.5l-6.2-0.5l1.2-2.1c-3.3,0.6-0.8,2.6-4,2.1l0-1.8c-4.6,0.3-7.2,3-11.7,4.4c-18.4,0.8-38.1-3.8-55.1-0.6
		l-0.8,1.4c-0.3,2-4.7-2.9-5.4-1.1l-2-0.9c-0.6,0.3-1.7,0.8-0.8,1.2c-1.8,0.2-1.9-0.3-3.2-0.8l-2,1.2c-7.2,0.9-13.4-1.4-21-0.9
		c-9.2,2.4-26.4,0.2-36.3-1.1c-14-2.9-30.2,4.8-44.5,1.5c-0.5,0.3-1.7-0.3-1.7-0.6l-13.1,0.3c0,0-63.4,0.8-15.2-15.4l-0.3-0.5
		c7.2-1.1,11.7-1.2,16.6,0.9c0.8-2.6,5.9-0.3,7.5-1.1l-0.2-0.2c4.4,2,9-1.7,13.2,0.2c-0.2-0.2-0.3-0.9-1.2-0.9
		c3.1,0.3,7.3,0.9,7.5-0.6c7.3,0.5,17.6-0.3,22.2,2.1l-0.3-0.5c2.7,1.7,3.5,0.3,6.5,1.1c0.2-0.2,0.4-0.3,0.3-0.5
		c2.9,1.7,8.5,0.3,10.9,0.9l0.1-1.1l5.8,0.3l-2.2,0.2c0.8,2.7,4.4-1.8,8.6,0c3.9-0.3,8,5.7,12.1,4.4c2,1.4-1.7-2.1,1.2-1.1
		c0.1-1.5-1.4-0.9-0.6-2.1c2.9,0.8,4.7-1.5,8.2-0.5l0.1-1.1c4.6,2.1,8.7-1.5,11.7,0.5c4.7,0.9,3.2-3.3,8.1-1.2l1.9-1.5
		c2.1-0.3,1.5,1.8,3.9,1.1c-0.1-0.9,3-0.8,1.6-1.7c5.3-1.5,10.8,2.1,17.8-0.5c1.5,1.8,5,0.8,6.2,2.1c0.2-0.8,7.1-0.2,3.1-2
		c-0.3-0.2-0.9-0.2-0.9,0.2l-0.5-1.1c4-2.1,7.2,1.2,11.2,0.8c-1.2,0.3-2.7,0.3-1.7,1.1l3.7-0.2l-0.8-0.9l5.5-0.6l-0.8,1.2
		c2.7-0.6,3.6-2.6,6.6-0.9c1.4,0.9-2.5,1.5,0.3,2c3.6-0.8,8.9-2,13.5-2.3c-0.4,1.4,0.8,1.2,2.1,1.5l0.1-1.1c4.8,1.5,1.8-2.4,6.6-1.2
		l-0.4-0.8l1.3,2.4c4.3,2.3,2.3-2.3,7.1,0.8c-1.9-0.2-0.9,2.4,1.4,2l-0.6-1.1c1.3,0.3,1.7,0.8,2.6,0.5c-0.8-0.6-0.4-1.5,1.5-1.4
		l-1.3-1.4l3.6,2c2.8-1.2,7.2,0.3,8.4-1.2c0,0,6-0.8,7.4,0.9c-1.2-1.1,2.1-1.5,1.2-2.7c1.6,1.2,6.1,2.1,8,0.9l-0.4-0.2
		c6.8-1.4,11.6,1.8,17.7,0.2c-0.3,1.4,2.9,0.6,2.1,2.3c6.3,1.7,11.5-3.5,13.8,1.8c2.9,0.3,3.4-1.2,4.9-1.5l-0.7-0.3
		c5.4,0.5,6.9,0.5,10.9,0.3c2,0.5,2.3,2.9,5.9,2.3c-1.2-0.9,0.3-0.8,1.6-0.8c-0.8-0.2-1.1-0.5,0.6-1.2c0.2,0.3,0.6,0.5,1,0.6
		c0,0,0.1-0.2,0-0.3c2.2,0.3,1.8,0.6,0.8,0.8c0,0.2,0,0.3-0.4,0.6c2.3-1.2,6.4,0.2,6.7-1.5c6.7,0.5,11.5,2.1,17.1,2.7
		c0.6-0.9-0.7-1.7-2.3-2l4,0.3c0-1.2-2.3-0.8-3.5-0.9c4.7-2,9.7,2,15.2,0.2l1.2,0.9l0.3-0.2c0,0.5,1.2,1.2,2,1.4
		c0.8-1.1,0-2.4,2.7-2.4c2.2-1.1,6.1,0.5,9,1.1c-1.5,0.2-1,0.8-0.4,1.2c1.4,0,2.1-1.1,3.2-0.6l0.1-1.4c-0.5,1.4,3.6,1.5,4.1,2
		c0.8-1.1-2.1-0.9-2.5-1.7c5.5,0.2,2.7,0,8.2,0.2c2.9,1.1-0.5,1.4,0.9,2.6c2.6,0.3,5.1,1.2,8.1,0.5l-0.9,1.2c4.9,1.1,7.8,0.9,11-0.5
		c36.1,10.2,7.6,14,7.6,14C418.4,248.1,411.1,244.5,394.1,243.4L394.1,243.4z"/>
	<path class="st6" d="M314.6,233.8c0,0-8.6-11-12.2-12.7c-3.8-1.8-0.5,4.4-0.5,4.4s-8.2-8-10.1-6c-1.9,2,0.1,3.9,0.1,3.9
		s-6.9-1.3-7.9,1.3c-1.5,3.9,9.8,5.9,9.8,5.9s-5.4-1.2-4.3,1.3C291.1,235.5,314.6,233.8,314.6,233.8z M316.9,234
		c0,0,13.7,1,16.4-1.5c2.7-2.5,0-6.9,0-6.9s4.7-3.7,4.6-6.1c-0.1-2.4-3.1-1.2-3.1-1.2s5.2-6.7,4-8c-2.3-2.4-8.3,4.6-8.3,4.6
		s1.8-3.3-0.1-3.8c-2.8-0.8-4.9,7.4-4.9,7.4s0.5-3.2-1.4-2.8C320.6,216.4,316.9,234,316.9,234z"/>
	<path class="st16" d="M332.5,176.8c-1.4,2-0.5,7.1,1.1,12.2c-1.2-1.2-2.4-1.9-3.8-1.5c-3.8,1.1-0.2,7.7-0.2,7.7s-12.2-14-16.8-9.3
		c-2.5,2.6,8,16.1,8,16.1s-6.2-2.5-6.3,2.4c0,1.5,0.8,3.2,2,4.9c-0.5,1.6-0.9,2.7-0.9,2.7s0.7-4.5-2-3.9c-1.9,0.4-3.8,4.3-5.5,8.9
		c-3.3-2.7-7.3-5.2-8.7-3.7c-2.7,2.8,0.2,5.4,0.2,5.4s-9.5-1.8-10.9,1.8c-1.9,4.8,9.9,7.5,12.8,8.1c-1.8-0.3-6.6-0.9-5.3,1.9
		c0.6,1.4,3.6,2.3,7.5,2.7l-0.1,0.3c0,0,4.6,0.3,9.8,0.3c8.8,0.1,17.6-0.5,17.6-0.5l-0.1-0.1c7.7,1.2,18.7,0.9,23.6,0.6
		c14.2,0.4,33.5,0,35.6-4.7c1.8-4-5.2-3.2-7.8-2.7c4.3-0.9,21.5-4.8,18.8-11.8c-2-5.2-15.9-2.6-15.9-2.6s4.2-3.8,0.3-7.9
		c-2-2.1-7.2,1.1-11.9,4.7c-0.5-1.3-1.8-1.4-3-1.4c-1.1-0.1-2.1-0.1-2.2-1.2c-0.3-1.9,3.3-3,7-4.1c4.2-1.3,8.8-2.7,8.3-5.5
		c-0.5-2.7-4.1-1.3-7.5,0.1c-2.9,1.2-5.5,2.2-5.9,0.6c-0.2-0.9,2.7-1.7,6.2-2.6c5.2-1.4,11.9-3.1,11.9-6.2c0-3.2-5.2-2.1-9.8-1.1
		c-2.8,0.6-5.4,1.2-6.5,0.7c-1.1-0.5,2.2-2.4,6.5-4.9c7.3-4.3,17.7-10.4,15.5-14.5c-1.7-3.2-9.1,0.8-15.4,4.3
		c-4.1,2.2-7.6,4.2-8.9,3.8c-1.6-0.5,1-3.6,4.6-7.9c3.8-4.5,8.7-10.4,10.8-15.7c4.2-10.7-0.2-15.6-7.4-6.8c-1.6,1.9-3.3,4.2-5.2,6.6
		l0,0c-6.6,8.5-13.9,18-14.6,14.3c-0.3-1.6,0.4-4.9,1.2-8.4c1.4-6.5,3-13.8-1.6-12.6c-9.9,2.7-11.5,17.2-13.1,31.8
		c-0.4,3.6-0.8,7.2-1.3,10.6c-0.1,0.5-0.6-0.7-1.3-2.5C339.8,181.5,335.9,171.8,332.5,176.8z"/>
	<path class="st6" d="M333.6,189l-0.8,0.8l2-1.1L333.6,189z M332.5,176.8l-1-0.7L332.5,176.8z M329.8,187.5l0.3,1.1L329.8,187.5z
		 M329.6,195.3l-0.9,0.8l1.9-1.3L329.6,195.3L329.6,195.3z M312.8,186l-0.8-0.8l0,0L312.8,186z M320.8,202.1l-0.4,1.1l4,1.6
		l-2.6-3.4L320.8,202.1z M314.5,204.5l-1.2,0L314.5,204.5z M316.5,209.4l1.1,0.4l0.2-0.6l-0.4-0.5L316.5,209.4L316.5,209.4z
		 M315.6,212.2l-1.1-0.2l2.3,0.5L315.6,212.2z M313.6,208.3l0.2,1.1h0L313.6,208.3L313.6,208.3z M308.2,217.2l-0.7,0.9l1.3,1
		l0.5-1.5L308.2,217.2L308.2,217.2z M299.5,213.5l0.8,0.8L299.5,213.5z M299.6,218.9l-0.2,1.1l4,0.7l-3-2.7L299.6,218.9z
		 M288.8,220.7l-1.1-0.4L288.8,220.7z M301.6,228.8l-0.2,1.1l0.4-2.3L301.6,228.8z M296.3,230.7l1.1-0.5L296.3,230.7z M303.8,233.4
		l1.1,0.2l0.3-1.2l-1.3-0.2L303.8,233.4L303.8,233.4z M303.7,233.7l-1.1-0.2l-0.3,1.3l1.3,0.1L303.7,233.7z M313.5,234l0-1.2h0
		L313.5,234z M331,233.4l0.1,1.2l2.2-0.2l-1.3-1.7L331,233.4L331,233.4z M331,233.3l0.2-1.1l-2.9-0.5l1.8,2.3L331,233.3z M354.6,234
		l0-1.2l0,0l0,0L354.6,234L354.6,234z M390.2,229.3l-1.1-0.5v0L390.2,229.3z M382.4,226.6l-0.2-1.1l0.4,2.3L382.4,226.6L382.4,226.6
		z M401.2,214.8l1.1-0.4v0L401.2,214.8L401.2,214.8z M385.3,212.2l-0.8-0.9l-3,2.7l4-0.7L385.3,212.2z M385.5,204.3l-0.8,0.8
		L385.5,204.3z M373.6,209.1l-1.1,0.4l0.6,1.4l1.2-0.9L373.6,209.1L373.6,209.1z M370.7,207.6l-0.1,1.2L370.7,207.6z M368.4,206.4
		l-1.2,0.2v0L368.4,206.4z M375.4,202.3l-0.3-1.1L375.4,202.3z M383.7,196.8l1.1-0.2v0L383.7,196.8z M376.2,196.9l0.4,1.1
		L376.2,196.9z M370.3,197.4l1.1-0.2L370.3,197.4z M376.6,194.9l-0.3-1.1L376.6,194.9z M378.6,187.6l0.2,1.1L378.6,187.6z
		 M372.1,188.3l-0.5,1.1L372.1,188.3z M378.6,183.4l0.6,1l0,0l0,0L378.6,183.4L378.6,183.4z M378.6,183.4l-0.6-1l0,0l0,0
		L378.6,183.4L378.6,183.4z M394.2,168.9l-1,0.5L394.2,168.9z M378.7,173.2l0.6,1L378.7,173.2z M369.8,177l-0.4,1.1L369.8,177z
		 M374.4,169.1l-0.9-0.7L374.4,169.1z M385.2,153.4l-1.1-0.4L385.2,153.4z M377.7,146.6l-0.9-0.7L377.7,146.6z M372.6,153.2l0.9,0.7
		l0,0l0,0L372.6,153.2L372.6,153.2z M372.6,153.2l-0.9-0.7l0,0l0,0L372.6,153.2L372.6,153.2z M358,167.5l-1.1,0.2L358,167.5z
		 M359.2,159.1l1.1,0.2L359.2,159.1z M357.6,146.5l-0.3-1.1L357.6,146.5z M344.5,178.4l-1.2-0.1l0,0.1v0.1H344.5z M344.5,178.4
		l1.2,0.1l0-0.1v-0.1H344.5z M343.2,189l1.2,0.2v0L343.2,189z M341.9,186.5l-1.1,0.4l0,0l0,0L341.9,186.5L341.9,186.5z M341.9,186.5
		l1.1-0.4l0,0l0,0L341.9,186.5L341.9,186.5z M334.7,188.7c-0.8-2.6-1.4-5-1.6-7.1c-0.1-1-0.1-1.9-0.1-2.6c0.1-0.7,0.2-1.2,0.4-1.5
		l-1.9-1.3c-0.5,0.7-0.7,1.6-0.8,2.6c-0.1,0.9-0.1,2,0.1,3.1c0.3,2.3,0.9,4.9,1.7,7.5L334.7,188.7z M330.1,188.6
		c0.8-0.2,1.6,0.1,2.7,1.2l1.7-1.6c-1.3-1.3-3-2.3-5-1.8L330.1,188.6z M329.6,195.3l1-0.6l0,0l0,0c0,0,0,0,0-0.1
		c0,0-0.1-0.1-0.1-0.2c-0.1-0.2-0.2-0.5-0.3-0.7c-0.3-0.6-0.6-1.4-0.8-2.2c-0.2-0.8-0.2-1.6-0.1-2.1c0.1-0.4,0.3-0.7,0.8-0.8
		l-0.6-2.2c-1.4,0.4-2.2,1.4-2.5,2.5c-0.3,1-0.1,2.2,0.1,3.2c0.2,1,0.6,1.9,0.9,2.6c0.1,0.3,0.3,0.6,0.4,0.8c0,0.1,0.1,0.2,0.1,0.2
		l0,0.1l0,0l0,0l0,0l0,0L329.6,195.3L329.6,195.3z M313.6,186.8c0.7-0.7,1.7-0.9,3.4-0.3c1.6,0.6,3.4,1.8,5.2,3.2
		c1.8,1.4,3.4,3,4.6,4.2c0.6,0.6,1.2,1.3,1.8,1.9l0.1,0.1l0,0l0,0l0,0l0.9-0.8l0.9-0.8l0,0c0,0,0,0,0,0l0,0
		c-0.2-0.2-0.3-0.4-0.5-0.6c-0.3-0.4-0.9-0.9-1.5-1.6c-1.2-1.3-2.9-2.9-4.8-4.4c-1.8-1.5-3.9-2.9-5.9-3.6c-2-0.7-4.2-0.8-5.8,0.9
		L313.6,186.8L313.6,186.8z M320.8,202.1l0.9-0.7l0,0l0,0c0,0,0,0,0,0l0,0l-0.1-0.1c-0.5-0.7-1-1.3-1.5-2c-0.9-1.3-2.2-3-3.3-4.9
		c-1.1-1.8-2.2-3.7-2.8-5.2c-0.3-0.8-0.5-1.4-0.5-1.8c0-0.5,0.1-0.6,0-0.5l-1.7-1.6c-0.7,0.7-0.8,1.6-0.7,2.3
		c0.1,0.8,0.3,1.6,0.6,2.5c0.7,1.7,1.8,3.7,3,5.6c1.2,1.9,2.4,3.7,3.4,5c0.5,0.7,1,1.4,1.5,2l0.1,0.1l0,0l0,0l0,0l0,0
		C319.9,202.8,319.9,202.8,320.8,202.1L320.8,202.1z M315.6,204.5c0-1,0.3-1.4,0.6-1.6c0.3-0.2,0.8-0.4,1.5-0.4
		c0.6,0,1.3,0.1,1.9,0.3c0.3,0.1,0.5,0.2,0.8,0.3l0,0l0,0c0,0,0,0,0,0h0v0c0,0,0,0,0.4-1.1c0.4-1.1,0.4-1.1,0.4-1.1l0,0l0,0l0,0
		c0,0,0,0,0,0l-0.1,0c-0.3-0.1-0.7-0.2-1-0.3c-0.6-0.2-1.5-0.4-2.4-0.4c-0.9,0-2,0.2-2.9,0.8c-0.9,0.7-1.5,1.8-1.5,3.3L315.6,204.5
		L315.6,204.5z M317.4,208.7c-1.2-1.7-1.8-3.1-1.8-4.2l-2.3-0.1c-0.1,1.9,1,3.9,2.2,5.6L317.4,208.7L317.4,208.7z M315.6,212.2
		l1.1,0.3v0v0l0,0l0,0l0,0l0-0.1c0.2-0.8,0.5-1.6,0.8-2.5l-2.2-0.8c-0.2,0.7-0.5,1.3-0.7,2c-0.1,0.3-0.2,0.5-0.2,0.8l0,0l0,0v0
		L315.6,212.2L315.6,212.2z M313.9,209.4c0.2,0,0.3,0,0.3,0c0,0,0,0,0.1,0c0.1,0.1,0.2,0.3,0.3,0.7c0.1,0.4,0.1,0.9,0,1.2
		c0,0.2,0,0.3,0,0.4l0,0.1c0,0,0,0,0,0l0,0v0l1.1,0.2l1.1,0.2l0,0v0l0,0l0,0l0,0c0-0.2,0.1-0.5,0.1-0.7c0-0.5,0-1.1-0.1-1.7
		c-0.1-0.6-0.3-1.4-0.9-2c-0.6-0.7-1.5-0.9-2.6-0.7L313.9,209.4L313.9,209.4z M309.3,217.6c0.8-2.3,1.7-4.3,2.5-5.9
		c0.4-0.8,0.9-1.3,1.2-1.7c0.4-0.4,0.7-0.6,0.8-0.6l-0.5-2.3c-0.8,0.2-1.5,0.7-2,1.3c-0.6,0.6-1.1,1.3-1.6,2.2
		c-1,1.7-1.9,3.9-2.7,6.2L309.3,217.6L309.3,217.6z M300.3,214.3c0,0,0.1-0.1,0.5-0.1c0.4,0,1,0.2,1.8,0.6c1.5,0.7,3.2,2,4.9,3.3
		l1.5-1.8c-1.7-1.4-3.6-2.7-5.3-3.6c-0.8-0.4-1.7-0.7-2.5-0.8c-0.8-0.1-1.8,0.1-2.5,0.8L300.3,214.3z M299.6,218.9
		c0.8-0.9,0.8-0.9,0.8-0.9l0,0l0,0l0,0l0,0l0,0c-0.1-0.1-0.2-0.2-0.3-0.3c-0.2-0.3-0.4-0.6-0.5-0.9c-0.1-0.4-0.2-0.7-0.1-1.1
		c0.1-0.4,0.3-0.9,0.8-1.4l-1.7-1.6c-0.8,0.8-1.2,1.7-1.4,2.6c-0.1,0.9,0,1.7,0.2,2.3c0.2,0.5,0.5,1.1,0.9,1.5
		c0.1,0.2,0.3,0.4,0.5,0.5l0,0l0,0l0,0c0,0,0,0,0,0l0,0C298.9,219.8,298.9,219.8,299.6,218.9L299.6,218.9z M289.8,221.1
		c0.2-0.4,0.6-0.8,1.5-1.1c0.9-0.3,2.1-0.4,3.3-0.4c1.2,0,2.4,0.1,3.3,0.2c0.4,0.1,0.9,0.1,1.3,0.2l0.1,0l0,0l0,0l0.2-1.1l0.2-1.1
		l0,0h0c0,0,0,0,0,0l0,0c-0.1,0-0.3,0-0.4-0.1c-0.4-0.1-0.8-0.1-1.1-0.2c-0.9-0.1-2.2-0.2-3.6-0.2c-1.3,0-2.8,0.1-4,0.5
		c-1.2,0.4-2.5,1.1-3,2.5L289.8,221.1L289.8,221.1z M301.8,227.7c-1.4-0.3-5-1.1-8-2.4c-1.5-0.7-2.7-1.4-3.4-2.2
		c-0.7-0.7-0.8-1.3-0.6-2l-2.2-0.8c-0.7,1.7,0,3.3,1,4.4c1,1.1,2.6,2,4.2,2.7c3.2,1.4,7,2.2,8.5,2.5L301.8,227.7L301.8,227.7z
		 M297.3,230.2c-0.2-0.4,0-0.4-0.1-0.3c0,0,0,0,0.2-0.1c0.1-0.1,0.3-0.1,0.6-0.1c1.1-0.1,2.6,0.1,3.5,0.2l0.4-2.3
		c-0.9-0.2-2.7-0.4-4.1-0.2c-0.7,0.1-1.6,0.3-2.2,1c-0.7,0.8-0.7,1.8-0.3,2.8L297.3,230.2L297.3,230.2z M303.9,232.3
		c-1.9-0.2-3.6-0.6-4.7-1c-0.6-0.2-1-0.4-1.4-0.6c-0.3-0.2-0.4-0.4-0.5-0.5l-2.1,0.9c0.3,0.6,0.8,1.1,1.3,1.5
		c0.5,0.4,1.2,0.7,1.9,0.9c1.4,0.5,3.2,0.8,5.2,1.1L303.9,232.3L303.9,232.3z M303.7,233.7l1.1,0.2v0l0,0l0,0l0-0.1l0-0.2l-2.3-0.5
		l0,0.2c0,0,0,0,0,0.1l0,0v0h0L303.7,233.7L303.7,233.7z M313.5,232.8c-2.3,0-4.5,0-6.8-0.1c-0.7,0-1.4-0.1-2.1-0.1
		c-0.3,0-0.5,0-0.6,0l-0.2,0l0,0l0,0h0l-0.1,1.2l-0.1,1.2h0l0,0l0,0l0,0l0.2,0l0.6,0c0.5,0,1.3,0.1,2.2,0.1c1.8,0.1,4.3,0.1,6.9,0.1
		L313.5,232.8L313.5,232.8z M331,233.4l-0.1-1.2h0c0,0,0,0,0,0l-0.1,0l-0.3,0c-1.7,0.1-3.4,0.2-5.1,0.3c-3.3,0.1-7.6,0.3-12,0.2
		l0,2.3c4.4,0.1,8.8-0.1,12.1-0.2c1.7-0.1,3.4-0.2,5.1-0.3l0.3,0l0.1,0l0,0l0,0h0L331,233.4L331,233.4z M330,234.1L330,234.1
		L330,234.1l0.1,0.1l0,0l0,0l0.9-0.7l0.9-0.7v0l0,0l0,0l0,0l-0.1-0.1L330,234.1L330,234.1z M354.5,232.8c-4.9,0.2-15.9,0.6-23.4-0.6
		l-0.4,2.3c7.8,1.3,19,0.9,23.9,0.7L354.5,232.8L354.5,232.8z M389.1,228.8c-0.1,0.3-0.4,0.6-1.1,1c-0.6,0.4-1.5,0.7-2.6,1.1
		c-2.2,0.7-5.2,1.1-8.6,1.4c-6.8,0.6-15.1,0.6-22.2,0.5l-0.1,2.3c7.1,0.2,15.6,0.2,22.5-0.5c3.5-0.3,6.6-0.8,9-1.5
		c1.2-0.4,2.3-0.8,3.2-1.3c0.9-0.5,1.6-1.2,2-2.1L389.1,228.8z M382.6,227.7c1.3-0.2,3.5-0.5,5.2-0.3c0.9,0.1,1.3,0.3,1.4,0.5
		c0,0,0.1,0.1,0.1,0.2c0,0.1,0,0.4-0.2,0.7l2.1,0.9c0.3-0.6,0.4-1.2,0.4-1.8c0-0.6-0.3-1.2-0.7-1.6c-0.7-0.8-1.9-1.1-2.9-1.2
		c-2-0.3-4.6,0.1-5.9,0.3L382.6,227.7L382.6,227.7z M400.1,215.2c0.5,1.2,0.2,2.3-0.9,3.4c-1.1,1.2-3,2.3-5.2,3.2
		c-4.4,1.9-9.7,3.1-11.8,3.5l0.5,2.3c2.2-0.4,7.6-1.6,12.3-3.7c2.3-1,4.5-2.2,6-3.8c1.5-1.6,2.3-3.6,1.4-5.9L400.1,215.2
		L400.1,215.2z M385.3,212.2l0.2,1.1h0l0,0l0,0l0.1,0c0.1,0,0.2,0,0.4-0.1c0.4-0.1,0.9-0.1,1.6-0.2c1.3-0.2,3.1-0.3,4.9-0.3
		c1.8,0,3.6,0.2,5,0.6c1.4,0.4,2.3,1.1,2.6,1.9l2.2-0.8c-0.7-1.8-2.4-2.8-4.1-3.3c-1.7-0.5-3.8-0.7-5.7-0.7c-1.9,0-3.8,0.2-5.1,0.3
		c-0.5,0.1-1.1,0.1-1.6,0.2c-0.2,0-0.4,0.1-0.5,0.1l-0.1,0l0,0c0,0,0,0,0,0l0,0h0L385.3,212.2L385.3,212.2z M384.7,205.1
		c0.8,0.9,1.2,1.7,1.3,2.3c0.1,0.7,0,1.3-0.2,1.9c-0.2,0.6-0.5,1.1-0.8,1.4c-0.1,0.2-0.3,0.4-0.5,0.5l0,0l0,0l0,0l0,0
		c0,0,0,0,0.8,0.9c0.8,0.9,0.8,0.9,0.8,0.9l0,0l0,0c0.3-0.2,0.5-0.5,0.7-0.8c0.4-0.5,0.8-1.2,1.2-2.1c0.3-0.9,0.5-1.9,0.3-3.1
		c-0.2-1.2-0.8-2.4-1.9-3.6L384.7,205.1L384.7,205.1z M374.3,210c2.3-1.8,4.7-3.4,6.7-4.4c1-0.5,1.9-0.7,2.5-0.8
		c0.6,0,0.9,0.1,1.1,0.3l1.7-1.6c-0.8-0.8-1.9-1.1-3-1c-1,0.1-2.2,0.5-3.3,1c-2.3,1-4.8,2.8-7.2,4.6L374.3,210L374.3,210z
		 M370.6,208.8c0.6,0,1,0.1,1.4,0.2c0.3,0.1,0.4,0.2,0.6,0.5l2.1-0.9c-0.4-1-1.1-1.5-1.9-1.8c-0.7-0.3-1.5-0.3-2-0.3L370.6,208.8z
		 M367.3,206.6c0.1,0.4,0.2,0.9,0.5,1.2c0.3,0.3,0.6,0.6,1,0.7c0.6,0.2,1.3,0.3,1.8,0.3l0.1-2.3c-0.2,0-0.5,0-0.7-0.1
		c-0.2,0-0.3-0.1-0.4-0.1c-0.1,0-0.1,0,0,0c0,0,0,0,0-0.1L367.3,206.6L367.3,206.6z M375.1,201.2c-1.8,0.6-3.8,1.2-5.2,1.9
		c-0.7,0.4-1.4,0.8-1.9,1.3c-0.5,0.6-0.9,1.3-0.7,2.2l2.3-0.3c0,0,0-0.1,0.2-0.3c0.2-0.2,0.6-0.5,1.2-0.8c1.2-0.6,2.9-1.1,4.8-1.7
		L375.1,201.2L375.1,201.2z M382.5,197c0.1,0.3,0,0.6-0.3,0.9c-0.3,0.4-0.8,0.7-1.5,1.1c-1.5,0.8-3.5,1.4-5.7,2.1l0.7,2.2
		c2.1-0.6,4.4-1.4,6.1-2.3c0.9-0.5,1.7-1,2.2-1.8c0.6-0.8,0.9-1.7,0.7-2.8L382.5,197L382.5,197z M376.7,198c1.7-0.7,3.3-1.3,4.5-1.5
		c0.6-0.1,0.9,0,1.1,0.1c0.1,0,0.2,0.1,0.3,0.5l2.3-0.4c-0.2-1-0.7-1.8-1.5-2.2c-0.8-0.4-1.6-0.4-2.4-0.3c-1.6,0.2-3.5,1-5.1,1.6
		L376.7,198L376.7,198z M369.2,197.7c0.2,0.8,0.7,1.4,1.4,1.6c0.6,0.2,1.3,0.2,1.9,0c1.2-0.2,2.7-0.8,4.1-1.4l-0.9-2.2
		c-1.5,0.6-2.7,1.1-3.7,1.3c-0.5,0.1-0.7,0.1-0.7,0c0,0,0,0,0.1,0.1c0,0,0,0.1,0,0L369.2,197.7L369.2,197.7z M376.3,193.7
		c-1.7,0.5-3.4,0.9-4.6,1.3c-0.6,0.2-1.2,0.5-1.6,0.8c-0.4,0.3-1.1,0.9-0.9,1.9l2.3-0.5c0.1,0.5-0.3,0.7-0.1,0.5
		c0.2-0.1,0.5-0.3,1.1-0.5c1.1-0.4,2.6-0.8,4.4-1.3L376.3,193.7L376.3,193.7z M387.3,188.7c0,0.3-0.2,0.7-0.7,1.2
		c-0.6,0.5-1.4,1-2.5,1.5c-2.2,0.9-5.1,1.7-7.7,2.4l0.6,2.3c2.6-0.7,5.6-1.5,8.1-2.5c1.2-0.5,2.3-1.1,3.2-1.9c0.8-0.7,1.5-1.7,1.5-3
		H387.3z M378.9,188.7c2.4-0.5,4.7-1,6.4-1c0.9,0,1.4,0.1,1.7,0.3c0.2,0.1,0.3,0.2,0.3,0.7h2.3c0-1.2-0.5-2.1-1.5-2.7
		c-0.8-0.5-1.9-0.6-2.9-0.6c-2,0-4.6,0.6-6.9,1.1L378.9,188.7L378.9,188.7z M371.7,189.4c0.5,0.2,1,0.3,1.5,0.3c0.5,0,1.1,0,1.7-0.1
		c1.2-0.2,2.6-0.5,4-0.8l-0.5-2.3c-1.4,0.3-2.7,0.6-3.8,0.7c-0.5,0.1-1,0.1-1.3,0.1c-0.4,0-0.5-0.1-0.6-0.1L371.7,189.4z M378,182.4
		c-2.1,1.3-4.1,2.4-5.3,3.3c-0.6,0.4-1.2,0.9-1.5,1.3c-0.2,0.2-0.4,0.6-0.4,1.1c0,0.7,0.5,1.1,0.9,1.3l1-2.1
		c0.1,0.1,0.5,0.3,0.5,0.8c0,0.3-0.2,0.5-0.1,0.4c0.1-0.1,0.4-0.4,1-0.8c1.2-0.8,3-1.9,5.2-3.2L378,182.4z M378,182.4l1.2,2
		L378,182.4z M393.1,169.4c0.3,0.5,0.2,1.2-0.4,2.2c-0.7,1.1-1.9,2.2-3.5,3.5c-3.2,2.5-7.5,5.1-11.2,7.2l1.2,2
		c3.6-2.1,8.1-4.8,11.4-7.4c1.7-1.3,3.1-2.7,4-4.1c0.9-1.4,1.4-3,0.6-4.6L393.1,169.4z M379.3,174.2c3.2-1.7,6.5-3.6,9.3-4.6
		c1.4-0.5,2.5-0.8,3.3-0.7c0.8,0,1.1,0.2,1.2,0.6l2.1-1.1c-0.7-1.3-1.9-1.8-3.2-1.8c-1.3,0-2.7,0.4-4.2,0.9c-3,1.1-6.5,3-9.6,4.7
		L379.3,174.2L379.3,174.2z M369.4,178.1c0.7,0.2,1.4,0.1,2-0.1c0.7-0.2,1.4-0.5,2.2-0.9c1.6-0.7,3.6-1.8,5.6-2.9l-1.1-2
		c-2,1.1-3.9,2.1-5.4,2.8c-0.8,0.3-1.4,0.6-1.9,0.7c-0.5,0.2-0.7,0.1-0.7,0.1L369.4,178.1L369.4,178.1z M373.5,168.4
		c-1.8,2.1-3.4,4-4.3,5.5c-0.5,0.7-0.9,1.4-1,2.1c-0.1,0.4-0.1,0.8,0.2,1.3c0.2,0.5,0.7,0.8,1.1,0.9l0.7-2.2c0,0,0.2,0.1,0.3,0.3
		c0.1,0.2,0,0.3,0.1,0.2c0-0.2,0.2-0.6,0.6-1.3c0.9-1.3,2.3-3.1,4.2-5.2L373.5,168.4z M384.1,153c-2,5.1-6.7,10.8-10.6,15.4l1.8,1.5
		c3.8-4.5,8.8-10.5,10.9-16L384.1,153z M378.6,147.4c1.7-2.2,3.2-3.4,4.4-3.9c1.1-0.5,1.6-0.3,1.9,0c0.4,0.4,0.8,1.3,0.7,3
		c-0.1,1.7-0.5,3.9-1.5,6.5l2.2,0.8c1.1-2.8,1.6-5.2,1.7-7.2c0.1-1.9-0.3-3.7-1.4-4.8c-1.2-1.2-2.9-1.2-4.5-0.5
		c-1.6,0.7-3.4,2.2-5.2,4.5L378.6,147.4L378.6,147.4z M373.5,154c1.8-2.4,3.6-4.7,5.2-6.6l-1.8-1.5c-1.6,1.9-3.4,4.3-5.2,6.6
		L373.5,154z M373.5,154L373.5,154l-1.8-1.4l0,0L373.5,154z M356.9,167.7c0.1,0.6,0.5,1.4,1.4,1.7c0.8,0.2,1.5-0.1,2-0.4
		c1.1-0.6,2.3-1.8,3.7-3.3c2.8-3,6.3-7.5,9.6-11.8l-1.8-1.4c-3.3,4.3-6.7,8.7-9.4,11.6c-1.4,1.5-2.4,2.5-3.1,2.9
		c-0.4,0.2-0.4,0.1-0.2,0.2c0.4,0.1,0.3,0.4,0.3,0.1L356.9,167.7z M358,158.9c-0.4,1.7-0.8,3.5-1,5c-0.2,1.5-0.4,2.9-0.2,3.9
		l2.3-0.4c-0.1-0.6,0-1.6,0.2-3.1c0.2-1.4,0.6-3.1,1-4.8L358,158.9L358,158.9z M357.9,147.7c0.4-0.1,0.7-0.1,0.9-0.1
		c0.1,0,0.2,0.1,0.3,0.2c0.2,0.3,0.4,0.9,0.4,2.1c0,2.3-0.7,5.7-1.4,9l2.3,0.5c0.7-3.2,1.5-6.8,1.5-9.5c0-1.3-0.2-2.6-0.9-3.6
		c-0.4-0.5-1-0.9-1.6-1c-0.6-0.2-1.3-0.1-2,0.1L357.9,147.7z M345.6,178.5c0.8-7.3,1.6-14.5,3.4-20.2c1.8-5.7,4.5-9.5,8.9-10.7
		l-0.6-2.2c-5.5,1.5-8.6,6.3-10.5,12.2c-1.9,5.9-2.7,13.4-3.5,20.6L345.6,178.5L345.6,178.5z M345.6,178.4h-2.3H345.6z M344.3,189.2
		c0.5-3.5,0.9-7.1,1.3-10.7l-2.3-0.3c-0.4,3.6-0.8,7.2-1.3,10.6L344.3,189.2z M340.8,186.9c0.4,0.9,0.7,1.7,0.9,2.2
		c0.1,0.1,0.1,0.3,0.2,0.4c0.1,0.1,0.2,0.3,0.3,0.4c0.1,0.1,0.2,0.2,0.4,0.3c0.3,0.1,0.7,0.1,1,0c0.3-0.2,0.5-0.5,0.5-0.6
		c0.1-0.1,0.1-0.3,0.1-0.4l-2.3-0.4c0,0,0-0.1,0.1-0.2c0.1-0.2,0.3-0.4,0.5-0.5c0.3-0.2,0.7-0.2,1,0c0.2,0.1,0.3,0.2,0.3,0.2
		c0.1,0.1,0.1,0.1,0.1,0.1c0-0.1-0.1-0.1-0.1-0.2c-0.2-0.4-0.5-1.1-0.9-2.1L340.8,186.9L340.8,186.9z M340.8,186.9l2.2-0.7
		L340.8,186.9z M333.5,177.4c0.3-0.5,0.6-0.7,0.8-0.8c0.1-0.1,0.3-0.1,0.5,0c0.5,0.2,1.2,0.8,2,2c1.6,2.3,3,5.8,4,8.3l2.2-0.9
		c-1-2.4-2.5-6.2-4.3-8.8c-0.8-1.2-1.9-2.4-3.2-2.9c-0.7-0.2-1.4-0.2-2.2,0.1c-0.7,0.3-1.3,0.9-1.8,1.6L333.5,177.4L333.5,177.4z"/>
	<path class="st16" d="M145.2,205.9c5,5.4,3,33.1,3,33.1s-11.5-2.4-21.7-5.7c-5.8,0.4-47.1,2.9-50.2-4c-1.8-4,5.2-3.2,7.8-2.7
		c-4.3-0.9-21.5-4.8-18.8-11.8c2-5.2,15.9-2.6,15.9-2.6s-4.2-3.8-0.3-7.9c3.9-4.1,20.5,12.2,20.5,12.2s-6.7-12.6,1-9
		c1.1,0.5,2.5,1.5,4,2.8c1.7,0.4,3.1,1.2,3.1,1.2s-14-12.2-9.3-16.8c2.6-2.5,16.1,8,16.1,8s-2.5-6.2,2.4-6.3
		c4.9-0.1,12.4,9.4,12.4,9.4S140.3,200.5,145.2,205.9L145.2,205.9z"/>
	<path class="st6" d="M148.2,239l1.2,0.1l-0.1,1.3l-1.3-0.3L148.2,239L148.2,239z M145.2,205.9l-0.9,0.8L145.2,205.9z M126.5,233.3
		l-0.1-1.2l0.2,0l0.2,0.1L126.5,233.3z M76.3,229.3l1.1-0.5v0L76.3,229.3z M84.1,226.6l0.2-1.1l-0.4,2.3L84.1,226.6z M65.4,214.8
		l-1.1-0.4v0L65.4,214.8L65.4,214.8z M81.3,212.2l0.8-0.9l3,2.7l-4-0.7L81.3,212.2L81.3,212.2z M81,204.3l0.8,0.8L81,204.3z
		 M101.5,216.5l1-0.5l-1.8,1.4L101.5,216.5z M102.5,207.6l0.5-1.1h0L102.5,207.6L102.5,207.6z M106.5,210.4l-0.3,1.1l-0.3-0.1
		l-0.2-0.2L106.5,210.4z M109.7,211.6l0.8-0.9l-1.3,1.9L109.7,211.6z M100.4,194.8l-0.8-0.8l0,0L100.4,194.8z M116.5,202.8l1.1-0.4
		l1.6,4l-3.4-2.6L116.5,202.8z M118.9,196.5l0,1.2L118.9,196.5z M131.3,205.8l0.6,1l-0.9,0.5l-0.6-0.8L131.3,205.8L131.3,205.8z
		 M148.2,239l-1.2-0.1v0l0,0l0-0.1l0-0.2c0-0.2,0-0.5,0.1-0.9c0-0.8,0.1-1.9,0.2-3.2c0.1-2.7,0.2-6.3,0.1-10.1
		c-0.1-3.8-0.3-7.7-0.8-11c-0.3-1.6-0.6-3.1-1-4.3c-0.4-1.2-0.8-2.1-1.3-2.6l1.7-1.6c0.8,0.9,1.4,2.1,1.8,3.4c0.4,1.4,0.8,3,1.1,4.7
		c0.5,3.4,0.7,7.5,0.8,11.3c0.1,3.8,0,7.5-0.1,10.2c-0.1,1.4-0.1,2.8-0.2,4.1l0,0.2l0,0.1l0,0v0L148.2,239L148.2,239z M126.9,232.2
		c5.1,1.7,10.5,3.1,14.6,4.1c2.1,0.5,3.8,0.9,5,1.2c0.6,0.1,1.2,0.3,1.8,0.4l0.1,0c0,0,0,0,0,0l0,0l0,0l-0.2,1.1l-0.2,1.1h0l0,0l0,0
		l0,0c0,0-0.1,0-0.1,0l-0.4-0.1c-0.3-0.1-0.8-0.2-1.5-0.3c-1.7-0.4-3.4-0.8-5.1-1.2c-4.2-1-9.6-2.4-14.8-4.1L126.9,232.2
		L126.9,232.2z M77.4,228.8c0.2,0.4,0.8,1,2.2,1.6c1.3,0.5,3.1,1,5.3,1.4c4.3,0.7,9.9,1,15.6,1.1c11.4,0.2,23.1-0.5,26-0.7l0.2,2.3
		c-2.9,0.2-14.7,0.9-26.2,0.7c-5.7-0.1-11.4-0.4-15.9-1.2c-2.2-0.4-4.2-0.9-5.8-1.5c-1.5-0.6-2.8-1.5-3.4-2.8L77.4,228.8L77.4,228.8
		z M83.9,227.7c-1.3-0.2-3.5-0.5-5.2-0.3c-0.9,0.1-1.3,0.3-1.4,0.5c0,0-0.1,0.1-0.1,0.2c0,0.1,0,0.4,0.2,0.7l-2.1,0.9
		c-0.3-0.6-0.4-1.2-0.4-1.8c0-0.6,0.3-1.2,0.7-1.6c0.7-0.8,1.9-1.1,2.9-1.2c2-0.3,4.6,0.1,5.9,0.3L83.9,227.7L83.9,227.7z
		 M66.4,215.2c-0.5,1.2-0.2,2.3,0.9,3.4c1.1,1.2,3,2.3,5.2,3.2c4.4,1.9,9.7,3.1,11.8,3.5l-0.5,2.3c-2.2-0.4-7.6-1.6-12.3-3.7
		c-2.3-1-4.5-2.2-6-3.8c-1.5-1.6-2.3-3.6-1.4-5.9L66.4,215.2L66.4,215.2z M81.3,212.2l-0.2,1.1h0c0,0-0.1,0-0.1,0
		c-0.1,0-0.2,0-0.4-0.1c-0.4-0.1-0.9-0.1-1.6-0.2c-1.3-0.2-3.1-0.3-4.9-0.3c-1.8,0-3.6,0.2-5,0.6c-1.4,0.4-2.3,1.1-2.6,1.9l-2.2-0.8
		c0.7-1.8,2.4-2.8,4.1-3.3c1.7-0.5,3.8-0.7,5.7-0.7c1.9,0,3.8,0.2,5.1,0.3c0.5,0.1,1.1,0.1,1.6,0.2c0.2,0,0.4,0.1,0.5,0.1l0.1,0l0,0
		c0,0,0,0,0,0l0,0h0L81.3,212.2L81.3,212.2z M81.8,205.1c-0.8,0.9-1.2,1.7-1.3,2.3c-0.1,0.7,0,1.3,0.2,1.9c0.2,0.6,0.5,1.1,0.8,1.4
		c0.1,0.2,0.3,0.3,0.4,0.5l0,0l0,0l0,0l0,0l0,0c0,0,0,0-0.8,0.9c-0.3,0.3-0.5,0.6-0.8,0.9l0,0l0,0c0,0,0,0,0,0l0,0
		c-0.1-0.1-0.1-0.1-0.2-0.2c-0.2-0.2-0.3-0.4-0.5-0.6c-0.4-0.5-0.8-1.2-1.2-2.1c-0.3-0.9-0.5-1.9-0.3-3.1c0.2-1.2,0.8-2.4,1.9-3.6
		L81.8,205.1L81.8,205.1z M101.5,216.5l-0.8,0.8h0c0,0,0.9-1,0,0l0,0l-0.1-0.1c-0.1-0.1-0.3-0.3-0.5-0.5c-0.5-0.4-1.1-1-1.9-1.8
		c-1.6-1.4-3.8-3.3-6.1-5.1c-2.3-1.8-4.6-3.3-6.6-4.2c-1-0.5-1.8-0.7-2.4-0.7c-0.6,0-0.9,0.1-1.1,0.3l-1.7-1.6
		c0.8-0.8,1.9-1.1,2.9-1c1,0.1,2.1,0.4,3.2,0.9c2.2,1,4.7,2.7,7.1,4.5c2.3,1.8,4.6,3.7,6.2,5.2c0.8,0.8,1.7,1.5,2.5,2.3l0.1,0.1l0,0
		l0,0l0,0l0,0C102.3,215.7,102.3,215.7,101.5,216.5L101.5,216.5z M102,208.6c-0.9-0.4-1.5-0.5-1.8-0.5c-0.1,0-0.2,0-0.2,0
		c0,0,0,0,0,0c0,0,0,0,0,0c0,0-0.1,0.2-0.1,0.7c0,0.4,0.1,1,0.3,1.6c0.3,1.3,0.9,2.7,1.4,3.8c0.3,0.6,0.5,1.2,0.8,1.7l0.1,0.1l0,0
		l0,0c0,0,0,0,0,0l-1,0.5c-1,0.5-1,0.5-1,0.5v0l0,0l0,0c0,0,0,0,0,0l-0.1-0.1c-0.3-0.6-0.6-1.2-0.9-1.8c-0.5-1.1-1.1-2.7-1.5-4.1
		c-0.2-0.7-0.3-1.5-0.3-2.1c0-0.7,0.1-1.4,0.5-2.1c0.5-0.7,1.3-1,2.1-1c0.8,0,1.7,0.3,2.8,0.8L102,208.6L102,208.6z M105.8,211.2
		c-1.5-1.3-2.8-2.2-3.8-2.6l1-2.1c1.3,0.6,2.7,1.7,4.3,3L105.8,211.2L105.8,211.2z M109.7,211.6l-0.6,1l0,0l0,0l0,0l0,0
		c-0.3-0.1-0.5-0.3-0.8-0.4c-0.5-0.2-1.3-0.5-2-0.7l0.6-2.2c0.9,0.2,1.8,0.6,2.4,0.8c0.3,0.1,0.6,0.3,0.9,0.4c0,0,0.1,0,0.1,0l0,0
		l0,0h0L109.7,211.6L109.7,211.6z M101.2,195.6c-0.7,0.7-0.9,1.7-0.3,3.4c0.6,1.6,1.8,3.4,3.2,5.2c1.4,1.8,3,3.4,4.2,4.6
		c0.6,0.6,1.3,1.2,1.9,1.8l0.1,0.1l0,0l0,0l0,0l-0.8,0.9l-0.8,0.9l0,0l0,0l0,0l0,0c-0.2-0.2-0.4-0.3-0.6-0.5
		c-0.4-0.3-0.9-0.9-1.6-1.5c-1.3-1.2-2.9-2.9-4.4-4.8c-1.5-1.8-2.9-3.9-3.6-5.9c-0.7-2-0.8-4.2,0.9-5.8L101.2,195.6L101.2,195.6z
		 M116.5,202.8l-0.7,0.9l0,0l0,0c0,0,0,0,0,0l0,0l-0.1-0.1c-0.7-0.5-1.3-1-2-1.5c-1.3-0.9-3-2.2-4.9-3.3c-1.8-1.1-3.7-2.2-5.2-2.8
		c-0.8-0.3-1.4-0.5-1.8-0.5c-0.5,0-0.6,0.1-0.5,0l-1.6-1.7c0.7-0.7,1.6-0.8,2.3-0.7c0.8,0.1,1.6,0.3,2.5,0.6c1.7,0.7,3.7,1.8,5.6,3
		c1.9,1.2,3.7,2.4,5,3.4c0.7,0.5,1.4,1,2,1.5l0.1,0.1l0,0l0,0l0,0l0,0C117.2,201.9,117.2,201.9,116.5,202.8z M118.9,197.6
		c-1,0-1.4,0.3-1.6,0.6c-0.2,0.3-0.4,0.8-0.4,1.5c0,0.6,0.1,1.3,0.3,1.9c0.1,0.3,0.2,0.5,0.3,0.8l0,0l0,0c0,0,0,0,0,0v0l0,0
		l-1.1,0.4c-1.1,0.4-1.1,0.4-1.1,0.4l0,0l0,0l0,0c0,0,0,0,0,0l0-0.1c-0.1-0.3-0.2-0.7-0.3-1c-0.2-0.6-0.4-1.5-0.4-2.4
		c0-0.9,0.2-2,0.8-2.9c0.7-0.9,1.8-1.5,3.3-1.5L118.9,197.6L118.9,197.6z M131.3,205.8l-0.9,0.7l0,0c0,0,0,0,0,0l0,0l-0.1-0.1
		c-0.4-0.5-0.7-0.9-1.1-1.3c-1-1.1-2-2.2-3-3.2c-1.2-1.2-2.6-2.3-3.9-3.1c-1.3-0.8-2.5-1.3-3.4-1.2l-0.1-2.3c1.6,0,3.2,0.7,4.7,1.6
		c1.5,0.9,2.9,2.2,4.2,3.4c1.1,1.1,2.2,2.2,3.2,3.3c0.3,0.4,0.6,0.7,0.9,1.1c0.1,0.1,0.2,0.2,0.3,0.3l0.1,0.1c0,0,0,0,0,0l0,0v0
		C132.2,205.1,132.2,205.1,131.3,205.8L131.3,205.8z M144.4,206.7c-2.1-2.2-5-2.3-7.7-1.7c-1.3,0.3-2.5,0.8-3.4,1.2
		c-0.4,0.2-0.9,0.4-1.3,0.6l-0.1,0c0,0,0,0,0,0l0,0l0,0l-0.6-1c-0.6-1-0.6-1-0.6-1l0,0l0,0l0,0l0,0c0,0,0.1,0,0.1-0.1
		c0.1,0,0.2-0.1,0.3-0.2c0.3-0.1,0.7-0.3,1.2-0.6c1-0.4,2.3-1,3.8-1.3c3-0.7,7-0.8,9.9,2.4L144.4,206.7L144.4,206.7z"/>
	<path class="st29" d="M150.9,228.6c0,0-59.1-47.2-59.1-90.3c0-31.7,26.5-57.4,59.1-57.4s59.1,25.7,59.1,57.4
		C210,181.4,150.9,228.6,150.9,228.6z"/>
	<path class="st30" d="M150.9,133.1c-3.9,0-7.1,3.1-7.1,6.9c0,3.8,3.2,6.9,7.1,6.9s7.1-3.1,7.1-6.9
		C158.1,136.2,154.9,133.1,150.9,133.1"/>
	<path class="st12" d="M249.2,117.6c0.2,1.9,0.9,4.2,2,5c1.2,0.9,1.6,1.8,1.6,1.8l1.2-0.4l1.5-0.5c0,0,0-0.2,0-0.4
		c0-0.3,0-0.7-0.1-1c0,0-0.3-0.6,0.1-1.2c0.4-0.6,0.6-1.6,0.3-2.3c-0.3-0.7-0.3-2.3-0.6-2.3c-0.6,0-0.2,2.2-0.6,2.6
		c-0.3,0.3-0.6,0.1-0.6,0.1c0,0,0,0,0,0c-1.5-1.2-2.7-5.7-3.7-5.4C249.9,113.8,249.1,116.8,249.2,117.6L249.2,117.6z M311.9,164.9
		c0,0-1.3,2.3-0.7,3.6c0.6,1.3,2.6,3.1,3.2,3.8c0.5,0.7,2.3,2.5,3,1.3c0.7-1.2-0.5-4.3-1.4-5.4c-0.9-1.2-1-3.2-1-3.2L311.9,164.9
		L311.9,164.9z"/>
	<path class="st12" d="M311,168.1c0,0,0.1,2.5,0.2,3.2c0.1,0.7,0.2,0.5,0.7,0c0.5-0.5,0.5-1.8,0.6-1.9
		C312.7,169.4,311,168.1,311,168.1z"/>
	<path class="st13" d="M288,117.3c0,0-15.4,16.6-20.1,19.1l-12-14.2c0,0-2.3,0.2-3.7,2.1c0,0,4.7,20,13.2,22.8
		c8.5,2.8,25.9-16.7,25.9-16.7L288,117.3L288,117.3z M273.7,238.7h15.8c0.8-0.9,0.5-4.2,0.4-5.3c0-0.2,0-0.3,0-0.3s-5.4-4.2-6.1-1
		c0,0.1,0,0.2-0.1,0.3c-0.9,3-5.1,4.3-7.5,4.7C274.5,237.3,273.9,238.1,273.7,238.7L273.7,238.7z"/>
	<path class="st13" d="M284.3,238.7h15.8c0.8-0.9,0.5-4.2,0.4-5.3c0-0.2,0-0.3,0-0.3s-5.4-4.2-6.1-1c0,0.1,0,0.2-0.1,0.3
		c-0.9,3-5.1,4.3-7.5,4.7C285.1,237.3,284.5,238.1,284.3,238.7L284.3,238.7z"/>
	<path class="st2" d="M278,167.8c0,0,0.8,8.2,1.6,18c1.2,13.3,2.7,29.7,2.8,32.8c0.2,5.4,1.2,14,1.2,14s2.4,2,7.1,1.2
		c0,0,4.2-12.3,5.4-25.3l0.1-0.6c1.1-13.2,2.9-41.1,2.9-41.1L278,167.8L278,167.8z"/>
	<path class="st2" d="M282.3,168.3c0,0,1.4,8.1,3.1,17.8c2.3,13.2,5.1,29.4,5.5,32.5c0.7,5.3,2.4,13.9,2.4,13.9s2.6,1.9,7.3,0.8
		c0,0,3.3-12.5,3.5-25.5l0-0.6c0.1-13.2-0.4-41.1-0.4-41.1L282.3,168.3z"/>
	<path class="st12" d="M284.7,120.3c5.4,1.7,14.4-3.1,14.4-3.1s-4.6-3.5-4.3-11.3l-4.2,3.4l-2.8,2.3c0,0,0,1.4,0.3,3.7
		c0.1,0.6,0.2,1.6-0.2,2.1C286,119.3,284.7,120.3,284.7,120.3L284.7,120.3z"/>
	<path class="st12" d="M286.1,111.4c0,0,9,1.5,9.8-4.1c0.8-5.6,2.6-9.2-3.1-10.3c-5.7-1.2-7.1,0.8-7.8,2.6
		C284.2,101.3,283.8,110.9,286.1,111.4L286.1,111.4z"/>
	<path class="st13" d="M277.2,170.7c0.2,0.1,0.4,0.2,0.6,0.2c2,0,8,1.1,13,0.6c4.2-0.4,8-1.7,12-3.5c0.5-0.2,1.8-0.9,1.7-1.5
		c0-0.7-0.1-1.6-0.2-2.8c-0.3-4.2-0.8-11.3-0.3-19.5c0.1-1.5,0.1-3.1,0.1-4.6c0-11.2-2.2-21-6.6-24.3c-0.4-0.3-2.7,0.9-4.9,1.9
		c-2,1-3.5,1.1-5.4,0.7l-2.3,1.7c-2.3,2.1-4.8,5-5.9,9.4c-0.9,3.7-1.5,10.4-1.8,17.4c-0.1,3.1-0.2,6.3-0.3,9.3v0.1
		c0,0.3,0,0.6,0,0.9C276.9,164.4,277,170.5,277.2,170.7L277.2,170.7z"/>
	<path class="st13" d="M313.2,166.1c-1.7,0.2-3.5,0-3.5,0s-4.1-15.7-4.7-17.1c-0.6-1.4-13.8-18.9-13.8-18.9l6.8-14.4
		c0,0,13.8,26.5,15.2,30.2c2.2,6.1,2.4,19.5,2.4,19.5S314.6,165.9,313.2,166.1L313.2,166.1z M296.9,105.3c-0.5,1-1.9,1.2-1.8,0
		c0.1-1.3,0.1-2.9-0.9-2.6c-1,0.3-1.1,1.1-1.5,0.7c-0.4-0.5-0.4-2.5-3.5-2.6c-3.1-0.1-4.3,0.9-5.7,0.3c-0.9-0.4-1.2-1.3-1.4-2
		c0-0.2,0.1-0.5,0.2-0.3c0.1,0.1,0.4,0.1,0.3,0c-0.5-1-1.3-3.3,0.7-4.9c2.8-2.2,5.6-0.8,7.1-0.7c3.5,0.2,5.8,0.4,6.9,2.7
		C298.4,97.8,298.2,102.5,296.9,105.3L296.9,105.3z"/>
	<path class="st2" d="M251.5,109.7l-4.5,1.4c-0.3,0.1-0.5,0.4-0.4,0.8l3,9.9c0.1,0.3,0.4,0.5,0.8,0.4l4.5-1.4
		c0.3-0.1,0.5-0.4,0.4-0.8l-3-9.9C252.1,109.8,251.8,109.6,251.5,109.7z"/>
</g>
</svg>
