<?xml version="1.0" encoding="UTF-8"?>
<svg id="Layer_2" xmlns="http://www.w3.org/2000/svg" viewBox="0 0 37.28 48.68">
  <defs>
    <style>
      .cls-1 {
        fill: #231f20;
      }
    </style>
  </defs>
  <g id="Layer_1-2" data-name="Layer_1">
    <g>
      <path class="cls-1" d="M31.03,45c0,2.03-5.57,3.68-12.43,3.68s-12.43-1.65-12.43-3.68c0-1.72,3.97-3.16,9.34-3.57h0c1.05,1.27,1.76,2.07,1.82,2.14l1.28,1.43,1.28-1.43c.06-.07.77-.86,1.82-2.13h0c5.37.41,9.34,1.85,9.34,3.57Z"/>
      <path class="cls-1" d="M18.64,0C8.35,0,0,8.35,0,18.64c0,7.43,4.34,13.84,10.62,16.83.16.08.32.15.48.22-.18-.25-.35-.5-.52-.75-3.51-5.1-5.28-9.09-5.28-11.87,0-7.29,5.97-13.21,13.3-13.21s13.3,5.93,13.3,13.21c0,2.78-1.78,6.78-5.29,11.87-.18.26-.37.53-.56.81.21-.09.41-.18.61-.28,6.29-3,10.63-9.41,10.63-16.84C37.28,8.35,28.94,0,18.64,0Z"/>
      <path class="cls-1" d="M21.44,27.96c-3.24,1.58-7.13.26-8.7-2.96-1.57-3.21-.22-7.1,3.01-8.68,3.23-1.58,7.13-.26,8.7,2.95,1.57,3.21.22,7.1-3.01,8.68Z"/>
    </g>
  </g>
</svg>