<?xml version="1.0" encoding="UTF-8"?>
<svg id="Layer_2" xmlns="http://www.w3.org/2000/svg" viewBox="0 0 144.87 34.22">
  <defs>
    <style>
      .cls-1 {
        fill: #11665f;
      }

      .cls-2 {
        fill: #23443b;
      }
    </style>
  </defs>
  <g id="Layer_1-2" data-name="Layer_1">
    <g>
      <path class="cls-1" d="M17.37,17.4c0,2.91-.66,5.24-1.97,6.98-1.31,1.74-3.08,2.61-5.31,2.61-1.72,0-3.14-.63-4.25-1.89v8.75H0V7.89h5.46l.17,1.73c1.12-1.39,2.59-2.08,4.42-2.08,2.31,0,4.11.85,5.39,2.56,1.28,1.7,1.92,4.05,1.92,7.03v.28ZM11.53,17.04c0-3.33-.97-4.99-2.91-4.99-1.39,0-2.31.5-2.77,1.49v7.38c.51,1.04,1.44,1.56,2.81,1.56,1.86,0,2.82-1.61,2.88-4.82v-.62Z"/>
      <path class="cls-1" d="M30.51,26.64c-.21-.38-.39-.94-.55-1.68-1.07,1.35-2.58,2.03-4.51,2.03-1.77,0-3.27-.53-4.51-1.6-1.24-1.07-1.85-2.41-1.85-4.03,0-2.03.75-3.57,2.25-4.61,1.5-1.04,3.69-1.56,6.55-1.56h1.8v-.99c0-1.73-.75-2.6-2.24-2.6-1.39,0-2.08.69-2.08,2.06h-5.84c0-1.81.77-3.28,2.31-4.41,1.54-1.13,3.51-1.7,5.9-1.7s4.28.58,5.67,1.75c1.39,1.17,2.1,2.77,2.13,4.8v8.3c.02,1.72.29,3.04.8,3.95v.29h-5.84ZM26.85,22.83c.73,0,1.33-.16,1.81-.47.48-.31.82-.66,1.03-1.06v-3h-1.7c-2.03,0-3.05.91-3.05,2.74,0,.53.18.96.54,1.29.36.33.81.49,1.37.49Z"/>
      <path class="cls-1" d="M50.13,13.17l-1.92-.14c-1.84,0-3.02.58-3.54,1.73v11.87h-5.84V7.89h5.48l.19,2.41c.98-1.84,2.35-2.76,4.11-2.76.62,0,1.17.07,1.63.21l-.1,5.43Z"/>
      <path class="cls-1" d="M59.76,19.66l-1.65,1.65v5.34h-5.84V0h5.84v14.14l.59-.78,4.4-5.48h7l-6.57,7.71,7,11.04h-6.69l-4.09-6.99Z"/>
      <g>
        <path class="cls-2" d="M80.72,26.99c-2.88,0-5.21-.86-6.99-2.57-1.78-1.72-2.67-3.95-2.67-6.7v-.49c0-1.92.36-3.61,1.07-5.08.71-1.47,1.75-2.6,3.11-3.41,1.36-.8,2.98-1.2,4.85-1.2,2.63,0,4.71.82,6.24,2.45,1.53,1.64,2.29,3.91,2.29,6.84v2.27h-11.61c.21,1.05.66,1.88,1.37,2.48.7.6,1.62.9,2.74.9,1.85,0,3.29-.65,4.33-1.94l2.67,3.15c-.73,1.01-1.76,1.81-3.09,2.4-1.33.6-2.77.89-4.31.89ZM80.06,12.05c-1.71,0-2.73,1.13-3.05,3.4h5.89v-.45c.02-.94-.21-1.66-.71-2.18-.5-.51-1.21-.77-2.13-.77Z"/>
        <path class="cls-2" d="M101.54,26.64c-.21-.38-.39-.94-.55-1.68-1.07,1.35-2.58,2.03-4.51,2.03-1.77,0-3.27-.53-4.51-1.6-1.24-1.07-1.85-2.41-1.85-4.03,0-2.03.75-3.57,2.25-4.61,1.5-1.04,3.69-1.56,6.55-1.56h1.8v-.99c0-1.73-.75-2.6-2.24-2.6-1.39,0-2.08.69-2.08,2.06h-5.84c0-1.81.77-3.28,2.31-4.41,1.54-1.13,3.51-1.7,5.9-1.7s4.28.58,5.67,1.75c1.39,1.17,2.1,2.77,2.13,4.8v8.3c.02,1.72.29,3.04.8,3.95v.29h-5.84ZM97.88,22.83c.73,0,1.33-.16,1.81-.47.48-.31.82-.66,1.03-1.06v-3h-1.7c-2.03,0-3.05.91-3.05,2.74,0,.53.18.96.54,1.29.36.33.81.49,1.37.49Z"/>
        <path class="cls-2" d="M119.63,21.37c0-.5-.26-.9-.78-1.2-.52-.3-1.51-.61-2.96-.94-1.46-.32-2.66-.75-3.61-1.27-.95-.53-1.67-1.16-2.17-1.92-.5-.75-.75-1.61-.75-2.58,0-1.72.71-3.14,2.13-4.26,1.42-1.12,3.28-1.67,5.58-1.67,2.47,0,4.46.56,5.96,1.68,1.5,1.12,2.25,2.59,2.25,4.42h-5.86c0-1.5-.79-2.25-2.37-2.25-.61,0-1.13.17-1.54.51-.42.34-.62.77-.62,1.27s.25.94.76,1.27c.51.32,1.32.59,2.44.8,1.11.21,2.09.46,2.94.75,2.82.97,4.23,2.71,4.23,5.22,0,1.71-.76,3.1-2.28,4.18-1.52,1.07-3.49,1.61-5.9,1.61-1.61,0-3.04-.29-4.3-.87-1.26-.58-2.24-1.36-2.95-2.36-.7-.99-1.06-2.04-1.06-3.14h5.46c.02.87.31,1.5.87,1.9.55.4,1.27.6,2.13.6.8,0,1.4-.16,1.79-.49.4-.32.6-.75.6-1.27Z"/>
        <path class="cls-2" d="M135.49,18.46l3.12-10.57h6.26l-7.64,21.89-.33.8c-1.09,2.43-3,3.64-5.75,3.64-.76,0-1.57-.12-2.41-.35v-4.16h.76c.82,0,1.45-.12,1.88-.36.43-.24.75-.66.96-1.28l.47-1.25-6.52-18.94h6.24l2.96,10.57Z"/>
      </g>
    </g>
  </g>
</svg>