<?xml version="1.0" encoding="UTF-8"?>
<svg id="Layer_2" xmlns="http://www.w3.org/2000/svg" viewBox="0 0 183.59 45.63">
  <defs>
    <style>
      .cls-1 {
        fill: #fff;
      }

      .cls-2 {
        fill: #11665f;
      }

      .cls-3 {
        fill: #23443b;
      }
    </style>
  </defs>
  <g id="Layer_1-2" data-name="Layer_1">
    <g>
      <g>
        <ellipse class="cls-2" cx="167.07" cy="39.78" rx="10.99" ry="3.25"/>
        <path class="cls-2" d="M167.11,0c-9.1,0-16.48,7.38-16.48,16.48,0,6.56,3.84,12.23,9.39,14.88.14.07.28.13.42.19,2.04.9,4.29,1.41,6.67,1.41s4.54-.48,6.55-1.35c.18-.08.36-.16.54-.24,5.56-2.65,9.4-8.32,9.4-14.88,0-9.1-7.38-16.48-16.48-16.48ZM169.59,24.72c-2.86,1.4-6.3.23-7.69-2.61-1.39-2.84-.2-6.28,2.66-7.67,2.86-1.4,6.3-.23,7.69,2.61,1.39,2.84.2,6.28-2.66,7.68Z"/>
        <g>
          <path class="cls-1" d="M167.07,8.72c-6.48,0-11.76,5.24-11.76,11.68,0,2.46,1.57,5.99,4.67,10.49.15.22.3.44.46.66.09.13.18.26.27.38,1.33,1.85,2.64,3.5,3.62,4.69.93,1.12,1.55,1.83,1.61,1.89l1.13,1.27,1.13-1.27c.05-.06.68-.76,1.61-1.89.98-1.19,2.29-2.84,3.62-4.69.08-.11.16-.22.24-.33.17-.24.34-.48.5-.71,3.1-4.51,4.67-8.03,4.67-10.5,0-6.44-5.27-11.68-11.76-11.68ZM164.56,14.43c2.86-1.4,6.3-.23,7.69,2.61,1.39,2.84.2,6.28-2.66,7.68-2.86,1.4-6.3.23-7.69-2.61-1.39-2.84-.2-6.28,2.66-7.67Z"/>
          <path class="cls-3" d="M169.59,24.72c-2.86,1.4-6.3.23-7.69-2.61-1.39-2.84-.2-6.28,2.66-7.67,2.86-1.4,6.3-.23,7.69,2.61,1.39,2.84.2,6.28-2.66,7.68Z"/>
        </g>
      </g>
      <path class="cls-2" d="M17.61,28.58c0,2.95-.67,5.31-2,7.08-1.33,1.76-3.13,2.65-5.39,2.65-1.75,0-3.18-.64-4.31-1.92v8.88H0v-26.33h5.54l.18,1.76c1.14-1.41,2.63-2.11,4.48-2.11,2.34,0,4.17.86,5.47,2.59,1.3,1.73,1.95,4.1,1.95,7.13v.28ZM11.69,28.21c0-3.37-.98-5.06-2.95-5.06-1.41,0-2.34.5-2.81,1.51v7.49c.52,1.05,1.46,1.58,2.85,1.58,1.89,0,2.86-1.63,2.92-4.89v-.63Z"/>
      <path class="cls-2" d="M30.94,37.95c-.21-.39-.4-.95-.56-1.71-1.09,1.37-2.61,2.06-4.57,2.06-1.79,0-3.32-.54-4.57-1.63-1.25-1.08-1.88-2.45-1.88-4.09,0-2.06.76-3.62,2.29-4.68,1.52-1.05,3.74-1.58,6.64-1.58h1.83v-1.01c0-1.75-.76-2.63-2.27-2.63-1.41,0-2.11.69-2.11,2.08h-5.92c0-1.84.78-3.33,2.35-4.48,1.56-1.15,3.56-1.72,5.99-1.72s4.34.59,5.75,1.78c1.41,1.18,2.13,2.81,2.16,4.87v8.42c.02,1.75.29,3.08.81,4.01v.3h-5.92ZM27.23,34.08c.74,0,1.35-.16,1.84-.47.49-.32.84-.67,1.05-1.07v-3.04h-1.72c-2.06,0-3.09.93-3.09,2.78,0,.54.18.98.54,1.31.36.33.83.5,1.39.5Z"/>
      <path class="cls-2" d="M50.83,24.29l-1.95-.14c-1.86,0-3.06.59-3.59,1.76v12.04h-5.92v-19.02h5.55l.19,2.44c1-1.86,2.38-2.79,4.17-2.79.63,0,1.18.07,1.65.21l-.11,5.5Z"/>
      <path class="cls-2" d="M60.61,30.87l-1.67,1.67v5.41h-5.92V10.93h5.92v14.34l.6-.79,4.46-5.55h7.1l-6.66,7.82,7.1,11.2h-6.78l-4.15-7.08Z"/>
      <g>
        <path class="cls-3" d="M81.86,38.3c-2.92,0-5.28-.87-7.08-2.61-1.8-1.74-2.71-4-2.71-6.79v-.49c0-1.95.36-3.66,1.08-5.15.72-1.49,1.77-2.64,3.16-3.45,1.38-.81,3.02-1.22,4.92-1.22,2.67,0,4.78.83,6.33,2.49,1.55,1.66,2.32,3.97,2.32,6.93v2.3h-11.78c.21,1.07.67,1.9,1.39,2.51.71.61,1.64.91,2.78.91,1.87,0,3.34-.66,4.39-1.97l2.71,3.2c-.74,1.02-1.78,1.83-3.14,2.43-1.35.6-2.81.91-4.37.91ZM81.19,23.15c-1.73,0-2.77,1.15-3.09,3.45h5.98v-.46c.02-.95-.22-1.68-.72-2.21-.5-.52-1.22-.78-2.16-.78Z"/>
        <path class="cls-3" d="M102.97,37.95c-.21-.39-.4-.95-.56-1.71-1.09,1.37-2.61,2.06-4.57,2.06-1.79,0-3.32-.54-4.57-1.63-1.25-1.08-1.88-2.45-1.88-4.09,0-2.06.76-3.62,2.29-4.68,1.52-1.05,3.74-1.58,6.64-1.58h1.83v-1.01c0-1.75-.76-2.63-2.27-2.63-1.41,0-2.11.69-2.11,2.08h-5.92c0-1.84.78-3.33,2.35-4.48,1.56-1.15,3.56-1.72,5.99-1.72s4.34.59,5.75,1.78c1.41,1.18,2.13,2.81,2.16,4.87v8.42c.02,1.75.29,3.08.81,4.01v.3h-5.92ZM99.26,34.08c.74,0,1.35-.16,1.84-.47.49-.32.84-.67,1.05-1.07v-3.04h-1.72c-2.06,0-3.09.93-3.09,2.78,0,.54.18.98.54,1.31.36.33.83.5,1.39.5Z"/>
        <path class="cls-3" d="M121.32,32.61c0-.5-.26-.91-.79-1.21-.53-.3-1.53-.62-3.01-.95-1.48-.33-2.7-.76-3.66-1.29-.96-.53-1.69-1.18-2.2-1.94-.5-.76-.76-1.63-.76-2.62,0-1.75.72-3.18,2.16-4.32,1.44-1.13,3.33-1.7,5.66-1.7,2.51,0,4.52.57,6.05,1.71,1.52,1.14,2.29,2.63,2.29,4.48h-5.94c0-1.52-.8-2.29-2.41-2.29-.62,0-1.14.17-1.56.52-.42.35-.63.78-.63,1.29s.26.96.77,1.28c.52.33,1.34.6,2.47.81,1.13.21,2.12.46,2.98.76,2.86.98,4.29,2.75,4.29,5.29,0,1.73-.77,3.15-2.31,4.24-1.54,1.09-3.54,1.63-5.99,1.63-1.63,0-3.08-.29-4.36-.88-1.28-.59-2.27-1.38-2.99-2.39-.71-1.01-1.07-2.07-1.07-3.18h5.54c.02.88.32,1.52.88,1.92.56.4,1.28.61,2.16.61.81,0,1.41-.16,1.82-.49.4-.33.61-.76.61-1.28Z"/>
        <path class="cls-3" d="M137.41,29.65l3.16-10.72h6.35l-7.75,22.2-.33.81c-1.1,2.46-3.05,3.69-5.84,3.69-.77,0-1.59-.12-2.44-.35v-4.22h.77c.83,0,1.47-.12,1.91-.36.44-.24.76-.67.98-1.29l.47-1.27-6.61-19.21h6.33l3.01,10.72Z"/>
      </g>
    </g>
  </g>
</svg>