<?xml version="1.0" encoding="UTF-8"?>
<svg id="Layer_2" xmlns="http://www.w3.org/2000/svg" viewBox="0 0 187.28 48.68">
  <defs>
    <style>
      .cls-1 {
        fill: #fff;
      }
    </style>
  </defs>
  <g id="Layer_1-2" data-name="Layer_1">
    <g>
      <g>
        <path class="cls-1" d="M57.89,14.54c-1.29-1.71-3.09-2.56-5.4-2.56-1.83,0-3.31.7-4.43,2.09l-.17-1.74h-5.47v26.03h5.85v-8.77c1.11,1.26,2.53,1.89,4.26,1.89,2.24,0,4.01-.87,5.33-2.62,1.31-1.74,1.97-4.07,1.97-6.99v-.28c0-2.99-.64-5.34-1.93-7.05ZM53.96,22.13c-.06,3.22-1.02,4.83-2.88,4.83-1.37,0-2.31-.52-2.81-1.56v-7.4c.46-1,1.39-1.49,2.78-1.49,1.95,0,2.92,1.67,2.92,5v.63Z"/>
        <path class="cls-1" d="M78.04,26.87v-8.32c-.03-2.04-.75-3.64-2.14-4.81-1.39-1.17-3.28-1.76-5.68-1.76s-4.37.57-5.92,1.7c-1.55,1.13-2.32,2.61-2.32,4.43h5.85c0-1.37.7-2.06,2.09-2.06,1.49,0,2.24.87,2.24,2.6v1h-1.81c-2.87,0-5.06.52-6.57,1.56-1.51,1.04-2.26,2.58-2.26,4.62,0,1.62.62,2.97,1.86,4.04,1.24,1.07,2.75,1.61,4.52,1.61,1.93,0,3.44-.68,4.52-2.03.16.74.35,1.3.56,1.69h5.85v-.3c-.51-.92-.78-2.24-.8-3.96ZM72.17,25.78c-.21.39-.55.75-1.03,1.06-.48.31-1.09.47-1.82.47-.56,0-1.01-.16-1.37-.49-.36-.33-.54-.76-.54-1.3,0-1.83,1.02-2.74,3.06-2.74h1.7v3.01Z"/>
        <path class="cls-1" d="M91.13,11.98c-1.76,0-3.13.92-4.12,2.76l-.19-2.41h-5.49v18.8h5.86v-11.9c.52-1.16,1.7-1.74,3.54-1.74l1.93.14.1-5.44c-.46-.14-1.01-.21-1.63-.21Z"/>
        <path class="cls-1" d="M106.1,20.06l6.59-7.73h-7.02l-4.41,5.49-.59.78V4.42h-5.85v26.71h5.85v-5.35l1.65-1.65,4.1,7h6.71l-7.02-11.07Z"/>
        <path class="cls-1" d="M130.9,21.29c0-2.93-.76-5.22-2.29-6.85-1.53-1.64-3.61-2.46-6.25-2.46-1.88,0-3.5.4-4.86,1.21-1.37.8-2.41,1.94-3.12,3.41-.71,1.47-1.07,3.17-1.07,5.09v.49c0,2.76.89,4.99,2.68,6.71,1.78,1.72,4.12,2.58,7,2.58,1.54,0,2.98-.3,4.32-.9,1.34-.6,2.37-1.4,3.1-2.41l-2.68-3.16c-1.04,1.3-2.49,1.95-4.34,1.95-1.12,0-2.04-.3-2.75-.9-.71-.6-1.16-1.43-1.37-2.48h11.64v-2.28ZM125.16,19.9h-5.91c.32-2.27,1.34-3.41,3.06-3.41.93,0,1.64.26,2.14.77.5.52.74,1.24.71,2.18v.45Z"/>
        <path class="cls-1" d="M148.9,26.87v-8.32c-.03-2.04-.75-3.64-2.14-4.81-1.39-1.17-3.28-1.76-5.68-1.76s-4.37.57-5.92,1.7-2.32,2.61-2.32,4.43h5.85c0-1.37.7-2.06,2.09-2.06,1.49,0,2.24.87,2.24,2.6v1h-1.81c-2.87,0-5.06.52-6.57,1.56s-2.26,2.58-2.26,4.62c0,1.62.62,2.97,1.86,4.04,1.24,1.07,2.74,1.61,4.52,1.61,1.93,0,3.44-.68,4.52-2.03.16.74.35,1.3.56,1.69h5.85v-.3c-.51-.92-.78-2.24-.8-3.96ZM143.02,25.78c-.21.39-.55.75-1.03,1.06-.48.31-1.09.47-1.81.47-.56,0-1.01-.16-1.37-.49-.36-.33-.54-.76-.54-1.3,0-1.83,1.02-2.74,3.06-2.74h1.7v3.01Z"/>
        <path class="cls-1" d="M163.39,20.44c-.85-.29-1.83-.54-2.95-.75-1.12-.21-1.93-.47-2.44-.8-.51-.32-.76-.75-.76-1.27s.21-.94.62-1.28c.42-.34.93-.51,1.55-.51,1.59,0,2.38.75,2.38,2.26h5.87c0-1.83-.75-3.31-2.26-4.43-1.51-1.12-3.5-1.69-5.98-1.69-2.31,0-4.17.56-5.59,1.68-1.42,1.12-2.14,2.54-2.14,4.27,0,.97.25,1.84.75,2.59.5.75,1.22,1.39,2.17,1.92.95.53,2.15.95,3.61,1.28,1.46.32,2.45.64,2.97.94.52.3.78.7.78,1.2,0,.52-.2.94-.6,1.27-.4.32-1,.49-1.8.49-.87,0-1.58-.2-2.14-.6-.56-.4-.85-1.03-.87-1.9h-5.47c0,1.1.35,2.15,1.06,3.14.71,1,1.69,1.78,2.95,2.36,1.26.58,2.7.87,4.31.87,2.42,0,4.39-.54,5.92-1.62,1.52-1.08,2.28-2.47,2.28-4.19,0-2.51-1.41-4.26-4.24-5.23Z"/>
        <path class="cls-1" d="M181.01,12.33l-3.13,10.6-2.97-10.6h-6.25l6.53,18.99-.47,1.25c-.21.61-.53,1.04-.96,1.28-.43.24-1.06.36-1.88.36h-.76v4.17c.85.23,1.65.35,2.41.35,2.76,0,4.68-1.22,5.77-3.65l.33-.8,7.66-21.94h-6.27Z"/>
      </g>
      <g>
        <path class="cls-1" d="M31.03,45c0,2.03-5.57,3.68-12.43,3.68s-12.43-1.65-12.43-3.68c0-1.72,3.97-3.16,9.34-3.57h0c1.05,1.27,1.76,2.07,1.82,2.14l1.28,1.43,1.28-1.43c.06-.07.77-.86,1.82-2.13h0c5.37.41,9.34,1.85,9.34,3.57Z"/>
        <path class="cls-1" d="M18.64,0C8.35,0,0,8.35,0,18.64c0,7.43,4.34,13.84,10.62,16.83.16.08.32.15.48.22-.18-.25-.35-.5-.52-.75-3.51-5.1-5.28-9.09-5.28-11.87,0-7.29,5.97-13.21,13.3-13.21s13.3,5.93,13.3,13.21c0,2.78-1.78,6.78-5.29,11.87-.18.26-.37.53-.56.81.21-.09.41-.18.61-.28,6.29-3,10.63-9.41,10.63-16.84C37.28,8.35,28.94,0,18.64,0Z"/>
        <path class="cls-1" d="M21.44,27.96c-3.24,1.58-7.13.26-8.7-2.96-1.57-3.21-.22-7.1,3.01-8.68,3.23-1.58,7.13-.26,8.7,2.95,1.57,3.21.22,7.1-3.01,8.68Z"/>
      </g>
    </g>
  </g>
</svg>