<?xml version="1.0" encoding="UTF-8"?>
<svg id="Layer_2" xmlns="http://www.w3.org/2000/svg" viewBox="0 0 187.28 44.41">
  <defs>
    <style>
      .cls-1 {
        fill: #fff;
      }

      .cls-2 {
        fill: #11665f;
      }

      .cls-3 {
        fill: #23443b;
      }
    </style>
  </defs>
  <g id="Layer_1-2" data-name="Layer_1">
    <g>
      <g>
        <ellipse class="cls-2" cx="16.78" cy="41.09" rx="11.22" ry="3.32"/>
        <path class="cls-2" d="M16.82.49C7.53.49,0,8.02,0,17.31c0,6.7,3.92,12.49,9.59,15.19.14.07.29.13.43.2,2.08.92,4.38,1.43,6.8,1.43s4.64-.49,6.68-1.38c.19-.08.37-.16.55-.25,5.67-2.7,9.59-8.49,9.59-15.19C33.64,8.02,26.11.49,16.82.49ZM19.35,25.71c-2.92,1.43-6.43.23-7.85-2.67-1.42-2.9-.2-6.41,2.72-7.83,2.92-1.43,6.43-.23,7.85,2.67,1.42,2.9.2,6.41-2.72,7.83Z"/>
        <g>
          <path class="cls-1" d="M16.78,9.38c-6.62,0-12,5.35-12,11.92,0,2.51,1.6,6.11,4.77,10.71.15.22.31.45.47.68.09.13.18.26.28.39,1.35,1.89,2.7,3.58,3.69,4.79.95,1.15,1.59,1.87,1.64,1.93l1.15,1.29,1.15-1.29c.05-.06.69-.78,1.64-1.93,1-1.21,2.34-2.9,3.69-4.79.08-.11.16-.23.24-.34.17-.25.34-.49.51-.73,3.17-4.6,4.77-8.2,4.77-10.71,0-6.57-5.38-11.92-12-11.92ZM14.21,15.21c2.92-1.43,6.43-.23,7.85,2.67,1.42,2.9.2,6.41-2.72,7.83-2.92,1.43-6.43.23-7.85-2.67-1.42-2.9-.2-6.41,2.72-7.83Z"/>
          <path class="cls-3" d="M19.35,25.71c-2.92,1.43-6.43.23-7.85-2.67-1.42-2.9-.2-6.41,2.72-7.83,2.92-1.43,6.43-.23,7.85,2.67,1.42,2.9.2,6.41-2.72,7.83Z"/>
        </g>
      </g>
      <g>
        <path class="cls-2" d="M55.3,18.01c0,3.01-.68,5.42-2.04,7.22-1.36,1.8-3.19,2.7-5.5,2.7-1.78,0-3.25-.65-4.4-1.96v9.06h-6.05V8.16h5.65l.18,1.79c1.16-1.44,2.68-2.15,4.57-2.15,2.39,0,4.25.88,5.58,2.65,1.33,1.76,1.99,4.19,1.99,7.28v.29ZM49.26,17.64c0-3.44-1-5.17-3.01-5.17-1.44,0-2.39.51-2.87,1.54v7.64c.53,1.08,1.5,1.61,2.91,1.61,1.93,0,2.92-1.66,2.98-4.99v-.65Z"/>
        <g>
          <path class="cls-2" d="M68.9,27.58c-.22-.39-.41-.97-.57-1.74-1.11,1.4-2.67,2.1-4.66,2.1-1.83,0-3.39-.55-4.66-1.66-1.28-1.11-1.92-2.5-1.92-4.17,0-2.11.78-3.7,2.33-4.77,1.55-1.08,3.82-1.61,6.78-1.61h1.87v-1.03c0-1.79-.77-2.69-2.31-2.69-1.44,0-2.15.71-2.15,2.13h-6.05c0-1.88.8-3.4,2.4-4.57,1.6-1.17,3.63-1.76,6.11-1.76s4.43.6,5.87,1.81c1.44,1.21,2.17,2.86,2.21,4.97v8.59c.02,1.78.3,3.15.83,4.09v.3h-6.05ZM65.12,23.63c.75,0,1.38-.16,1.87-.48.5-.32.85-.69,1.07-1.09v-3.1h-1.76c-2.11,0-3.16.95-3.16,2.83,0,.55.19,1,.56,1.34.37.34.84.51,1.42.51Z"/>
          <path class="cls-2" d="M89.21,13.64l-1.99-.14c-1.9,0-3.12.6-3.66,1.79v12.29h-6.05V8.16h5.67l.2,2.49c1.02-1.9,2.43-2.85,4.25-2.85.65,0,1.21.07,1.69.22l-.11,5.62Z"/>
          <path class="cls-2" d="M99.19,20.35l-1.7,1.7v5.53h-6.05V0h6.05v14.64l.61-.81,4.56-5.67h7.25l-6.8,7.98,7.25,11.43h-6.93l-4.23-7.23Z"/>
          <g>
            <path class="cls-3" d="M120.88,27.93c-2.98,0-5.39-.89-7.23-2.66-1.84-1.78-2.76-4.09-2.76-6.93v-.5c0-1.99.37-3.74,1.1-5.26.74-1.52,1.81-2.69,3.22-3.53,1.41-.83,3.09-1.25,5.02-1.25,2.73,0,4.88.85,6.46,2.54,1.58,1.69,2.37,4.05,2.37,7.08v2.35h-12.02c.22,1.09.69,1.94,1.42,2.57.73.62,1.67.93,2.83.93,1.91,0,3.41-.67,4.49-2.01l2.76,3.27c-.75,1.04-1.82,1.87-3.2,2.48-1.38.62-2.87.92-4.46.92ZM120.2,12.47c-1.77,0-2.82,1.17-3.16,3.52h6.1v-.47c.02-.97-.22-1.72-.74-2.25-.51-.53-1.25-.8-2.21-.8Z"/>
            <path class="cls-3" d="M142.43,27.58c-.22-.39-.41-.97-.57-1.74-1.11,1.4-2.67,2.1-4.66,2.1-1.83,0-3.39-.55-4.66-1.66-1.28-1.11-1.92-2.5-1.92-4.17,0-2.11.78-3.7,2.33-4.77,1.55-1.08,3.82-1.61,6.78-1.61h1.87v-1.03c0-1.79-.77-2.69-2.31-2.69-1.44,0-2.15.71-2.15,2.13h-6.05c0-1.88.8-3.4,2.4-4.57,1.6-1.17,3.63-1.76,6.11-1.76s4.43.6,5.87,1.81c1.44,1.21,2.17,2.86,2.21,4.97v8.59c.02,1.78.3,3.15.83,4.09v.3h-6.05ZM138.64,23.63c.75,0,1.38-.16,1.87-.48.5-.32.85-.69,1.07-1.09v-3.1h-1.76c-2.11,0-3.16.95-3.16,2.83,0,.55.19,1,.56,1.34.37.34.84.51,1.42.51Z"/>
            <path class="cls-3" d="M161.16,22.12c0-.51-.27-.93-.81-1.24-.54-.31-1.56-.63-3.07-.97-1.51-.33-2.75-.77-3.73-1.32-.98-.54-1.73-1.2-2.24-1.98-.51-.78-.77-1.67-.77-2.67,0-1.78.74-3.25,2.21-4.4,1.47-1.15,3.4-1.73,5.78-1.73,2.56,0,4.62.58,6.17,1.74,1.55,1.16,2.33,2.69,2.33,4.58h-6.06c0-1.55-.82-2.33-2.46-2.33-.63,0-1.17.18-1.6.53-.43.35-.65.79-.65,1.32s.26.97.79,1.31c.53.33,1.37.61,2.52.83,1.15.22,2.17.47,3.04.77,2.92,1,4.38,2.81,4.38,5.4,0,1.77-.79,3.21-2.36,4.32-1.57,1.11-3.61,1.67-6.11,1.67-1.66,0-3.15-.3-4.45-.9-1.3-.6-2.32-1.41-3.05-2.44-.73-1.03-1.09-2.11-1.09-3.25h5.65c.02.9.32,1.55.9,1.96.57.41,1.31.62,2.21.62.83,0,1.44-.17,1.86-.5.41-.33.62-.77.62-1.31Z"/>
            <path class="cls-3" d="M177.57,19.11l3.23-10.94h6.48l-7.91,22.66-.34.83c-1.12,2.51-3.11,3.77-5.96,3.77-.79,0-1.62-.12-2.49-.36v-4.31h.79c.85,0,1.5-.12,1.95-.37.45-.25.78-.69,1-1.32l.48-1.29-6.75-19.61h6.46l3.07,10.94Z"/>
          </g>
        </g>
      </g>
    </g>
  </g>
</svg>