<?xml version="1.0" encoding="UTF-8"?>
<svg id="Layer_2" xmlns="http://www.w3.org/2000/svg" viewBox="0 0 37.28 48.68">
  <defs>
    <style>
      .cls-1 {
        fill: #fff;
      }

      .cls-2 {
        fill: #11665f;
      }

      .cls-3 {
        fill: #23443b;
      }
    </style>
  </defs>
  <g id="Layer_1-2" data-name="Layer_1">
    <g>
      <ellipse class="cls-2" cx="18.59" cy="45" rx="12.43" ry="3.68"/>
      <path class="cls-2" d="M18.64,0C8.35,0,0,8.35,0,18.64c0,7.42,4.34,13.84,10.62,16.83.16.08.32.15.48.22,2.31,1.02,4.86,1.59,7.54,1.59s5.14-.55,7.41-1.53c.21-.09.41-.18.61-.28,6.29-3,10.63-9.41,10.63-16.84C37.28,8.35,28.94,0,18.64,0ZM21.44,27.96c-3.24,1.58-7.13.26-8.7-2.96-1.57-3.21-.22-7.1,3.01-8.68,3.23-1.58,7.13-.26,8.7,2.95,1.57,3.21.22,7.1-3.01,8.68Z"/>
      <g>
        <path class="cls-1" d="M18.6,9.86c-7.33,0-13.3,5.93-13.3,13.21,0,2.78,1.78,6.77,5.28,11.87.17.25.34.5.52.75.1.14.2.29.31.43,1.5,2.09,2.99,3.96,4.09,5.31,1.05,1.27,1.76,2.07,1.82,2.13l1.28,1.43,1.28-1.43c.06-.07.77-.86,1.82-2.13,1.11-1.34,2.59-3.21,4.09-5.31.09-.13.18-.25.27-.37.19-.27.38-.54.56-.81,3.51-5.1,5.29-9.09,5.29-11.87,0-7.29-5.97-13.21-13.3-13.21ZM15.75,16.32c3.23-1.58,7.13-.26,8.7,2.95,1.57,3.21.22,7.1-3.01,8.68-3.24,1.58-7.13.26-8.7-2.96-1.57-3.21-.22-7.1,3.01-8.68Z"/>
        <path class="cls-3" d="M21.44,27.96c-3.24,1.58-7.13.26-8.7-2.96-1.57-3.21-.22-7.1,3.01-8.68,3.23-1.58,7.13-.26,8.7,2.95,1.57,3.21.22,7.1-3.01,8.68Z"/>
      </g>
    </g>
  </g>
</svg>