<?xml version="1.0" encoding="UTF-8"?>
<svg id="Layer_2" xmlns="http://www.w3.org/2000/svg" viewBox="0 0 129.23 121.62">
  <defs>
    <style>
      .cls-1 {
        fill: none;
        stroke: #dafbe5;
        stroke-linecap: round;
        stroke-linejoin: round;
        stroke-width: 11.4px;
      }
    </style>
  </defs>
  <g id="Layer_1-2" data-name="Layer_1">
    <path class="cls-1" d="M110.43,48.57v42.86c0,13.53-11.72,24.49-26.18,24.49h-39.27c-14.46,0-26.18-10.97-26.18-24.49v-42.86M110.43,48.57c0-13.53-11.72-24.49-26.18-24.49h-39.27c-14.46,0-26.18,10.97-26.18,24.49M110.43,48.57c0,6.76-5.86,12.25-13.09,12.25H31.88c-7.23,0-13.09-5.48-13.09-12.25M31.88,109.8l1.45-8.14c1.05-5.91,6.51-10.23,12.91-10.23h36.73c6.4,0,11.86,4.33,12.91,10.23l1.45,8.14M112.3,60.81h4.68c3.62,0,6.55,2.74,6.55,6.12v24.49c0,3.38-2.93,6.12-6.55,6.12h-6.55M16.92,60.81h-4.68c-3.62,0-6.55,2.74-6.55,6.12v24.49c0,3.38,2.93,6.12,6.55,6.12h6.55M38.43,24.07v-6.12c0-6.76,5.86-12.25,13.09-12.25h26.18c7.23,0,13.09,5.48,13.09,12.25v6.12"/>
  </g>
</svg>