<?xml version="1.0" encoding="UTF-8"?>
<svg id="Layer_2" xmlns="http://www.w3.org/2000/svg" xmlns:xlink="http://www.w3.org/1999/xlink" viewBox="0 0 106.58 123.91">
  <defs>
    <style>
      .cls-1 {
        fill: #fff;
      }

      .cls-2 {
        mask: url(#mask);
      }

      .cls-3 {
        fill: #dafbe5;
      }
    </style>
    <mask id="mask" x="0" y="0" width="106.6" height="123.92" maskUnits="userSpaceOnUse">
      <g id="path-1-inside-1_612_2683-2" data-name="path-1-inside-1_612_2683">
        <path class="cls-1" d="M106.59,71.72v34.42c0,8.37,0,12.56-2.6,15.16s-6.79,2.6-15.16,2.6H17.2c-3.61,0-5.42,0-6.91-.35-4.94-1.15-8.8-5.01-9.95-9.95-.35-1.49-.35-3.3-.35-6.91V17.76C0,9.38,0,5.19,2.59,2.59,5.19,0,9.38,0,17.76,0h71.06C97.2,0,101.38,0,103.99,2.59c2.6,2.6,2.6,6.79,2.6,15.16v53.96Z"/>
      </g>
    </mask>
  </defs>
  <g id="Layer_1-2" data-name="Layer_1">
    <g>
      <g id="path-1-inside-1_612_2683">
        <path class="cls-1" d="M13.34,110.55c-.55-.02-.41-.06-.02.04.02.1.04.16.04.21,0-.06,0-.16-.02-.25Z"/>
        <path class="cls-3" d="M103.99,2.59c-2.61-2.59-6.8-2.59-15.17-2.59H17.76C9.39,0,5.2,0,2.59,2.59,0,5.2,0,9.39,0,17.76v88.93c0,3.41,0,5.2.27,6.64.02.1.04.17.06.27,1.17,4.95,5.03,8.8,9.95,9.95,1.5.35,3.31.35,6.91.35h71.62c8.37,0,12.56,0,15.17-2.61,2.59-2.59,2.59-6.78,2.59-15.15V17.76c0-8.38,0-12.56-2.59-15.17ZM93.26,106.15c0,1.77,0,3.19-.02,4.42-1.23.02-2.67.02-4.42.02H17.2c-1.91,0-2.96,0-3.72-.04h-.14c.02.1.02.19.02.25,0-.06-.02-.12-.04-.21-.39-.1-.53-.06.02-.04v-.14c-.02-.76-.02-1.81-.02-3.72v-10.5c.78-.02,1.97-.04,3.88-.04h71.62c1.54,0,3.04,0,4.44-.02v10.01ZM93.26,82.82c-1.25.02-2.71.02-4.44.02H17.2c-1.38,0-2.67-.02-3.88.02V17.76c0-1.75,0-3.19.02-4.42,1.23-.02,2.67-.02,4.42-.02h71.05c1.75,0,3.19,0,4.42.02.02,1.23.02,2.67.02,4.42v65.05Z"/>
      </g>
      <g class="cls-2">
        <path class="cls-3" d="M13.34,110.55c-.55-.02-.41-.06-.02.04.02.1.04.16.04.21,0-.06,0-.16-.02-.25ZM13.34,110.55c-.55-.02-.41-.06-.02.04.02.1.04.16.04.21,0-.06,0-.16-.02-.25Z"/>
      </g>
      <path class="cls-3" d="M79.93,34.42c0,3.68-2.98,6.66-6.66,6.66h-39.97c-3.68,0-6.66-2.98-6.66-6.66s2.98-6.66,6.66-6.66h39.97c3.68,0,6.66,2.98,6.66,6.66Z"/>
    </g>
  </g>
</svg>