<?xml version="1.0" encoding="UTF-8"?>
<svg id="Layer_2" xmlns="http://www.w3.org/2000/svg" viewBox="0 0 115.11 115.11">
  <defs>
    <style>
      .cls-1 {
        stroke-linecap: round;
        stroke-width: 6.71px;
      }

      .cls-1, .cls-2 {
        fill: none;
        stroke: #000;
      }

      .cls-2 {
        stroke-width: 9.59px;
      }
    </style>
  </defs>
  <g id="Layer_1-2" data-name="Layer_1">
    <g>
      <circle class="cls-2" cx="57.56" cy="57.56" r="52.76"/>
      <path d="M59.28,73.01l1.51,3h0l-1.51-3ZM57.75,73.01l1.51-3h0l-1.51,3ZM74.74,48.2c0,5.98-3.13,10.91-7.05,14.75-3.9,3.82-8.27,6.23-9.93,7.07l3.02,6c1.96-.99,7-3.76,11.6-8.27,4.59-4.5,9.06-11.06,9.06-19.54h-6.71ZM58.52,31.98c8.96,0,16.23,7.27,16.23,16.23h6.71c0-12.67-10.27-22.94-22.94-22.94v6.71ZM42.29,48.2c0-8.96,7.27-16.23,16.23-16.23v-6.71c-12.67,0-22.94,10.27-22.94,22.94h6.71ZM59.26,70.02c-1.66-.84-6.03-3.24-9.93-7.07-3.91-3.83-7.05-8.77-7.05-14.75h-6.71c0,8.48,4.47,15.04,9.06,19.54,4.6,4.51,9.65,7.28,11.6,8.27l3.02-6ZM57.77,70.02c.46-.23,1.03-.23,1.49,0l-3.02,6c1.44.73,3.12.73,4.56,0l-3.02-6ZM63.55,48.2c0,2.78-2.25,5.04-5.04,5.04v6.71c6.49,0,11.75-5.26,11.75-11.75h-6.71ZM58.52,43.17c2.78,0,5.04,2.25,5.04,5.04h6.71c0-6.49-5.26-11.75-11.75-11.75v6.71ZM53.48,48.2c0-2.78,2.25-5.04,5.04-5.04v-6.71c-6.49,0-11.75,5.26-11.75,11.75h6.71ZM58.52,53.24c-2.78,0-5.04-2.25-5.04-5.04h-6.71c0,6.49,5.26,11.75,11.75,11.75v-6.71Z"/>
      <path class="cls-1" d="M80.32,71.99c2.21,1.28,3.37,2.72,3.37,4.2s-1.16,2.92-3.37,4.2c-2.21,1.28-5.39,2.34-9.22,3.07-3.83.74-8.17,1.12-12.59,1.12s-8.76-.39-12.59-1.12c-3.83-.74-7.01-1.8-9.22-3.07-2.21-1.28-3.37-2.72-3.37-4.2s1.16-2.92,3.37-4.2"/>
    </g>
  </g>
</svg>