<?xml version="1.0" encoding="UTF-8"?>
<svg id="Layer_2" xmlns="http://www.w3.org/2000/svg" viewBox="0 0 115.11 115.11">
  <defs>
    <style>
      .cls-1 {
        fill-rule: evenodd;
      }

      .cls-2 {
        fill: none;
        stroke: #000;
        stroke-width: 9.59px;
      }
    </style>
  </defs>
  <g id="Layer_1-2" data-name="Layer_1">
    <g>
      <circle class="cls-2" cx="57.56" cy="57.56" r="52.76"/>
      <path class="cls-1" d="M89.53,57.56c0,17.66-14.32,31.98-31.98,31.98s-31.98-14.32-31.98-31.98,14.32-31.98,31.98-31.98,31.98,14.32,31.98,31.98ZM53.6,82.83c-2.11-5.17-8.13-19.18-12.03-20.48-2.73-.91-6.5-.78-9.23-.51,1.82,10.8,10.42,19.3,21.27,20.99ZM33.03,50.27c3.14-10.58,12.93-18.29,24.53-18.29s21.39,7.71,24.53,18.29c-5.05-.95-14.11-2.3-24.53-2.3s-19.48,1.36-24.53,2.3ZM82.78,61.85c-2.74-.28-6.5-.4-9.23.51-3.9,1.3-9.93,15.31-12.03,20.48,10.85-1.68,19.44-10.19,21.27-20.99Z"/>
    </g>
  </g>
</svg>