<?xml version="1.0" encoding="UTF-8"?>
<svg id="Layer_2" xmlns="http://www.w3.org/2000/svg" viewBox="0 0 137.33 120.24">
  <g id="Layer_1-2" data-name="Layer_1">
    <path d="M126.38,10.23c-3.4-3.31-7.43-5.92-11.84-7.67C110.13.8,105.42-.06,100.67,0s-9.43,1.07-13.79,2.95c-4.36,1.88-8.31,4.6-11.61,8l-6.86,7.06-7.06-6.86C54.46,4.47,45.22.8,35.63.93c-9.59.14-18.72,4.08-25.41,10.95C3.54,18.76-.13,28,0,37.59c.14,9.59,4.08,18.72,10.95,25.41l58.9,57.25,57.25-58.9c3.31-3.4,5.92-7.43,7.67-11.84,1.75-4.41,2.62-9.12,2.56-13.87s-1.07-9.43-2.95-13.79c-1.88-4.36-4.6-8.31-8-11.61Z"/>
  </g>
</svg>