<?xml version="1.0" encoding="UTF-8"?>
<svg id="Layer_2" xmlns="http://www.w3.org/2000/svg" xmlns:xlink="http://www.w3.org/1999/xlink" viewBox="0 0 146.54 146.54">
  <defs>
    <style>
      .cls-1 {
        stroke: #1e1e1e;
        stroke-linecap: round;
        stroke-linejoin: round;
        stroke-width: 9.45px;
      }

      .cls-1, .cls-2 {
        fill: none;
      }

      .cls-3 {
        clip-path: url(#clippath);
      }
    </style>
    <clipPath id="clippath">
      <rect class="cls-2" width="146.54" height="146.54"/>
    </clipPath>
  </defs>
  <g id="Layer_1-2" data-name="Layer_1">
    <g class="cls-3">
      <path class="cls-1" d="M127.25,28.15c-3.12-3.12-6.82-5.6-10.9-7.28-4.08-1.69-8.44-2.56-12.86-2.56s-8.78.87-12.86,2.56c-4.08,1.69-7.78,4.16-10.9,7.28l-6.47,6.47-6.47-6.47c-6.3-6.3-14.84-9.84-23.75-9.84s-17.45,3.54-23.75,9.84c-6.3,6.3-9.84,14.84-9.84,23.75s3.54,17.45,9.84,23.75l53.98,53.98,53.98-53.98c3.12-3.12,5.6-6.82,7.28-10.9,1.69-4.08,2.56-8.44,2.56-12.86s-.87-8.78-2.56-12.86c-1.69-4.08-4.16-7.78-7.28-10.9Z" shape-rendering="crispEdges"/>
    </g>
  </g>
</svg>