<?xml version="1.0" encoding="UTF-8"?>
<svg id="Layer_2" xmlns="http://www.w3.org/2000/svg" viewBox="0 0 142.89 145.42">
  <defs>
    <style>
      .cls-1 {
        fill: #11665f;
      }
    </style>
  </defs>
  <g id="Layer_1-2" data-name="Layer_1">
    <g>
      <path class="cls-1" d="M103.19,40.52c2.08,1.75,4.73,2.71,7.45,2.71,3.45,0,6.69-1.51,8.91-4.15,4.11-4.9,3.47-12.24-1.43-16.36-2.09-1.75-4.73-2.72-7.45-2.72-3.45,0-6.69,1.51-8.9,4.15-4.12,4.9-3.47,12.24,1.43,16.36Z"/>
      <path class="cls-1" d="M130.59,53.81c-.72,0-1.45.06-2.16.19-6.69,1.18-11.17,7.58-9.99,14.27,1.04,5.9,6.13,10.18,12.1,10.18.72,0,1.45-.06,2.16-.19,6.69-1.18,11.17-7.58,9.99-14.27-1.04-5.9-6.13-10.18-12.11-10.18Z"/>
      <path class="cls-1" d="M130.17,94.09c-1.98-1.15-4.23-1.75-6.49-1.75-4.65,0-8.98,2.5-11.3,6.52-1.74,3.01-2.2,6.52-1.3,9.88.9,3.36,3.06,6.17,6.07,7.91,1.98,1.15,4.23,1.75,6.5,1.75,4.65,0,8.97-2.5,11.29-6.51,3.59-6.22,1.45-14.2-4.77-17.79Z"/>
      <path class="cls-1" d="M93.13,117.25c-1.6,0-3.18.28-4.7.83-3.44,1.25-6.19,3.77-7.74,7.1-1.55,3.32-1.71,7.05-.46,10.5,1.97,5.41,7.15,9.04,12.9,9.04,1.6,0,3.18-.28,4.69-.83,3.44-1.25,6.19-3.77,7.74-7.1,1.55-3.32,1.71-7.05.47-10.49-1.96-5.4-7.15-9.04-12.9-9.04Z"/>
      <path class="cls-1" d="M58.22,117.41c-1.6-.58-3.26-.88-4.93-.88-6.04,0-11.49,3.82-13.56,9.5-1.32,3.62-1.15,7.54.48,11.04,1.63,3.49,4.52,6.14,8.14,7.46,1.6.58,3.26.88,4.94.88,6.05,0,11.5-3.82,13.56-9.5,1.32-3.62,1.14-7.54-.49-11.03-1.63-3.5-4.52-6.15-8.14-7.47Z"/>
      <path class="cls-1" d="M35.88,97.8c-2.7-4.67-7.73-7.57-13.13-7.57-2.64,0-5.25.7-7.55,2.03-3.5,2.02-6.01,5.29-7.05,9.19-1.05,3.91-.51,7.99,1.51,11.49,2.7,4.67,7.73,7.57,13.13,7.57,2.64,0,5.25-.7,7.55-2.03,7.23-4.17,9.71-13.45,5.54-20.68Z"/>
      <path class="cls-1" d="M15.87,81.98c7.69,0,14.24-5.51,15.58-13.1.73-4.17-.2-8.37-2.63-11.84-2.43-3.47-6.06-5.78-10.23-6.52-.92-.16-1.86-.24-2.77-.24-7.69,0-14.25,5.51-15.58,13.1-.73,4.17.2,8.37,2.63,11.84,2.43,3.47,6.06,5.78,10.23,6.52.92.16,1.85.24,2.77.24Z"/>
      <path class="cls-1" d="M35.78,48.18c3.87,0,7.65-1.38,10.63-3.87,3.38-2.84,5.46-6.83,5.84-11.24.39-4.41-.96-8.7-3.8-12.08-3.15-3.76-7.78-5.91-12.69-5.91-3.88,0-7.66,1.37-10.63,3.87-3.39,2.84-5.46,6.83-5.85,11.24-.39,4.4.97,8.69,3.81,12.08,3.16,3.76,7.78,5.91,12.69,5.91Z"/>
      <path class="cls-1" d="M73.21,36.01c9.94,0,18-8.06,18-18S83.15,0,73.21,0s-18,8.06-18,18,8.06,18,18,18Z"/>
    </g>
  </g>
</svg>