<?xml version="1.0" encoding="UTF-8"?>
<svg id="Layer_2" xmlns="http://www.w3.org/2000/svg" viewBox="0 0 150.12 125.36">
  <defs>
    <style>
      .cls-1 {
        fill: #14ae5c;
      }

      .cls-2, .cls-3 {
        fill: none;
        stroke: #14ae5c;
        stroke-width: 11.94px;
      }

      .cls-3 {
        stroke-linecap: round;
      }
    </style>
  </defs>
  <g id="Layer_1-2" data-name="Layer_1">
    <g>
      <path class="cls-3" d="M100.13,31.84c0,14.43-11.37,25.87-25.07,25.87s-25.07-11.44-25.07-25.87,11.37-25.87,25.07-25.87,25.07,11.44,25.07,25.87Z"/>
      <path class="cls-2" d="M98.9,30.79c2.32-4.12,6.12-7.09,10.52-8.3,4.39-1.21,9.08-.58,13.04,1.77,3.97,2.35,6.91,6.25,8.11,10.87,1.21,4.63.57,9.55-1.75,13.68-2.32,4.12-6.12,7.09-10.52,8.3-4.39,1.21-9.08.58-13.04-1.77-3.97-2.35-6.91-6.25-8.11-10.87-1.21-4.63-.57-9.55,1.75-13.68h0Z"/>
      <path class="cls-2" d="M21.3,30.79c2.32-4.12,6.12-7.09,10.52-8.3,4.39-1.21,9.08-.58,13.04,1.77,3.97,2.35,6.91,6.25,8.11,10.87,1.21,4.63.57,9.55-1.75,13.68-2.32,4.12-6.12,7.09-10.52,8.3-4.39,1.21-9.08.58-13.04-1.77-3.97-2.35-6.91-6.25-8.11-10.87-1.21-4.63-.57-9.55,1.75-13.68h0Z"/>
      <path class="cls-1" d="M112.94,111.43l-5.86,1.15.95,4.82h4.91v-5.97ZM144.02,107.04l5.79-1.46h0l-5.79,1.46ZM96.64,85.25l-3.67-4.71-6.67,5.2,7.13,4.55,3.21-5.03ZM140.41,105.46h-27.47v11.94h27.47v-11.94ZM138.23,108.5c-.2-.78.03-1.64.52-2.23.46-.55,1.09-.81,1.65-.81v11.94c5.81,0,11.05-5.29,9.4-11.82l-11.58,2.91ZM113.86,85.56c8.32,0,13.7,3.62,17.42,8.23,3.89,4.81,5.95,10.73,6.95,14.7l11.58-2.91c-1.2-4.76-3.8-12.56-9.24-19.29-5.6-6.93-14.2-12.67-26.71-12.67v11.94ZM100.31,89.96c3.29-2.56,7.62-4.4,13.55-4.4v-11.94c-8.66,0-15.56,2.76-20.89,6.92l7.34,9.42ZM93.43,90.28c8.7,5.55,12.25,15.16,13.66,22.3l11.72-2.3c-1.64-8.36-6.17-21.91-18.95-30.07l-6.42,10.07Z"/>
      <path class="cls-1" d="M53.48,85.25l3.21,5.03,7.13-4.55-6.67-5.2-3.67,4.71ZM6.1,107.04l-5.79-1.46H.31l5.79,1.46ZM37.17,111.43v5.97h4.91l.95-4.82-5.86-1.15ZM36.26,85.56c5.93,0,10.26,1.83,13.55,4.4l7.34-9.42c-5.33-4.15-12.23-6.92-20.89-6.92v11.94ZM11.88,108.5c1-3.98,3.06-9.89,6.95-14.7,3.73-4.61,9.11-8.23,17.42-8.23v-11.94c-12.51,0-21.11,5.74-26.71,12.67-5.44,6.73-8.04,14.54-9.24,19.29l11.58,2.91ZM9.71,105.46c.56,0,1.19.25,1.65.81.5.59.72,1.44.52,2.23l-11.58-2.91c-1.64,6.53,3.6,11.82,9.4,11.82v-11.94ZM37.17,105.46H9.71v11.94h27.47v-11.94ZM43.03,112.58c1.4-7.14,4.96-16.75,13.66-22.3l-6.42-10.07c-12.78,8.15-17.31,21.71-18.95,30.07l11.72,2.3Z"/>
      <path class="cls-3" d="M75.06,79.59c31.23,0,37.32,25.78,38.51,35.84.26,2.18-1.49,3.95-3.69,3.95H40.24c-2.2,0-3.95-1.77-3.69-3.95,1.19-10.06,7.28-35.84,38.51-35.84Z"/>
    </g>
  </g>
</svg>