<?xml version="1.0" encoding="UTF-8"?>
<svg id="Layer_2" xmlns="http://www.w3.org/2000/svg" viewBox="0 0 124.34 125.2">
  <defs>
    <style>
      .cls-1 {
        fill: #dafbe5;
      }

      .cls-2 {
        fill: none;
        stroke: #dafbe5;
        stroke-width: 14.58px;
      }
    </style>
  </defs>
  <g id="Layer_1-2" data-name="Layer_1">
    <g>
      <path class="cls-2" d="M26.56,116.33l-1.79-7.07,1.79,7.07,11.94-3.02c.22-.06.44-.11.66-.17,3.26-.82,6.15-1.55,8.77-3.04l-3.62-6.33,3.62,6.33c2.62-1.5,4.71-3.62,7.08-6.01.16-.16.32-.32.48-.48l53.66-54.24c.09-.09.18-.18.26-.27,1.2-1.21,2.23-2.26,3.05-3.31,6.11-7.89,6.11-18.91,0-26.79-.82-1.06-1.85-2.1-3.05-3.31-.08-.08-.16-.17-.25-.25,0,0-.01-.01-.02-.02h0c-.09-.09-.18-.18-.27-.27-1.22-1.24-2.27-2.3-3.34-3.14l-4.52,5.72,4.52-5.72c-7.95-6.27-19.16-6.27-27.1,0-1.07.84-2.12,1.9-3.34,3.14-.09.09-.18.18-.27.27l-53.47,54.05c-.16.16-.32.32-.47.48-2.34,2.36-4.42,4.46-5.88,7.06-1.46,2.6-2.17,5.46-2.96,8.7-.05.22-.11.43-.16.65l-3.05,12.34c-.03.13-.06.26-.1.39-.57,2.29-1.17,4.73-1.37,6.78-.22,2.26-.15,6.06,2.91,9.11,3.06,3.05,6.87,3.09,9.13,2.86,2.05-.21,4.49-.82,6.77-1.4.13-.03.26-.07.39-.1Z"/>
      <path class="cls-1" d="M72.24,20.41l23.7-15.97,23.7,23.95-15.8,23.95-31.6-31.94Z"/>
    </g>
  </g>
</svg>