<?xml version="1.0" encoding="UTF-8"?>
<svg id="Layer_2" xmlns="http://www.w3.org/2000/svg" viewBox="0 0 125.39 125.39">
  <defs>
    <style>
      .cls-1 {
        fill: #037a74;
        fill-rule: evenodd;
      }
    </style>
  </defs>
  <g id="Layer_1-2" data-name="Layer_1">
    <path class="cls-1" d="M62.69,125.39c34.62,0,62.69-28.07,62.69-62.69S97.32,0,62.69,0,0,28.07,0,62.69s28.07,62.69,62.69,62.69ZM43.19,43.19l6.2,26.88,20.68-20.68-26.88-6.2ZM82.19,82.2l-26.89-6.21,20.69-20.69,6.21,26.89ZM33.62,38.88c-.73-3.16,2.1-5.99,5.26-5.26l40.3,9.3c1.64.38,2.91,1.65,3.29,3.29l9.3,40.3c.73,3.16-2.1,5.99-5.26,5.26l-40.3-9.3c-1.64-.38-2.91-1.65-3.29-3.29l-9.3-40.3Z"/>
  </g>
</svg>