<?xml version="1.0" encoding="UTF-8"?>
<svg id="Layer_2" xmlns="http://www.w3.org/2000/svg" xmlns:xlink="http://www.w3.org/1999/xlink" viewBox="0 0 111.45 125.39">
  <defs>
    <style>
      .cls-1 {
        fill: none;
      }

      .cls-2 {
        fill: #037a74;
        fill-rule: evenodd;
      }

      .cls-3 {
        clip-path: url(#clippath);
      }
    </style>
    <clipPath id="clippath">
      <rect class="cls-1" width="111.45" height="125.39"/>
    </clipPath>
  </defs>
  <g id="Layer_1-2" data-name="Layer_1">
    <g class="cls-3">
      <path class="cls-2" d="M34.9,63.34c-1.9-1.36-2.86-2.04-3.8-2.12-.83-.07-1.66.15-2.33.64-.77.55-1.25,1.62-2.2,3.76L5.4,113.24c-1.7,3.82-2.54,5.73-2.18,6.95.31,1.07,1.12,1.92,2.16,2.29,1.2.43,3.16-.3,7.07-1.77h0l41.32-15.5h0c.72-.27,1.09-.41,1.46-.46.33-.05.67-.05,1,0,.37.05.73.19,1.46.46h0s41.32,15.5,41.32,15.5c3.91,1.47,5.87,2.2,7.07,1.77,1.04-.38,1.85-1.23,2.16-2.29.36-1.23-.49-3.14-2.18-6.95l-21.17-47.62c-.95-2.14-1.43-3.21-2.2-3.76-.68-.48-1.5-.71-2.33-.64-.95.08-1.9.76-3.8,2.12l-16.78,11.99c-2.42,1.73-5.68,1.73-8.1,0l-16.78-11.99ZM35.26,46.06c-.08.18-.02.4.14.51h0l17.09,12.21c1.17.83,1.75,1.25,2.38,1.41.56.14,1.15.14,1.71,0,.64-.16,1.22-.58,2.38-1.41l17.09-12.21h0c.16-.12.22-.33.14-.51l-15.38-34.6c-1.61-3.63-2.42-5.44-3.54-6-.98-.48-2.12-.48-3.1,0-1.12.56-1.93,2.37-3.54,6l-15.38,34.6Z"/>
    </g>
  </g>
</svg>