<?xml version="1.0" encoding="UTF-8"?>
<svg id="Layer_2" xmlns="http://www.w3.org/2000/svg" viewBox="0 0 119.59 131.52">
  <defs>
    <style>
      .cls-1 {
        fill: none;
        stroke: #037a74;
        stroke-linecap: round;
        stroke-width: 12.27px;
      }

      .cls-2 {
        fill: #037a74;
      }
    </style>
  </defs>
  <g id="Layer_1-2" data-name="Layer_1">
    <g>
      <path class="cls-2" d="M61.43,100.75l2.76,5.48h0l-2.76-5.48ZM58.16,100.75l-2.76,5.48h0l2.76-5.48ZM95.4,47.87c0,13.12-6.88,23.88-15.32,32.15-8.42,8.26-17.83,13.44-21.41,15.24l5.52,10.95c4.12-2.08,14.77-7.93,24.48-17.44,9.68-9.49,19-23.22,19-40.91h-12.27ZM59.8,12.27c19.66,0,35.61,15.94,35.61,35.61h12.27C107.67,21.43,86.24,0,59.8,0v12.27ZM24.19,47.87c0-19.66,15.94-35.61,35.61-35.61V0C33.36,0,11.93,21.43,11.93,47.87h12.27ZM60.93,95.27c-3.59-1.81-12.99-6.99-21.41-15.24-8.44-8.27-15.32-19.04-15.32-32.15h-12.27c0,17.7,9.32,31.42,19,40.91,9.7,9.51,20.35,15.36,24.48,17.44l5.52-10.95ZM58.67,95.27c.7-.35,1.56-.35,2.26,0l-5.52,10.95c2.78,1.4,6.01,1.4,8.79,0l-5.52-10.95ZM71.55,47.87c0,6.49-5.26,11.76-11.76,11.76v12.27c13.27,0,24.02-10.75,24.02-24.02h-12.27ZM59.8,36.12c6.49,0,11.76,5.26,11.76,11.76h12.27c0-13.27-10.75-24.02-24.02-24.02v12.27ZM48.04,47.87c0-6.49,5.26-11.76,11.76-11.76v-12.27c-13.27,0-24.02,10.75-24.02,24.02h12.27ZM59.8,59.63c-6.49,0-11.76-5.26-11.76-11.76h-12.27c0,13.27,10.75,24.02,24.02,24.02v-12.27Z"/>
      <path class="cls-1" d="M106.27,98.55c4.71,2.72,7.19,5.8,7.19,8.94s-2.48,6.22-7.19,8.94c-4.71,2.72-11.48,4.98-19.64,6.55-8.16,1.57-17.41,2.4-26.83,2.4s-18.67-.83-26.83-2.4c-8.16-1.57-14.93-3.83-19.64-6.55-4.71-2.72-7.19-5.8-7.19-8.94s2.48-6.23,7.19-8.94"/>
    </g>
  </g>
</svg>