<?xml version="1.0" encoding="UTF-8"?>
<svg id="Layer_2" xmlns="http://www.w3.org/2000/svg" viewBox="0 0 106.02 118.62">
  <defs>
    <style>
      .cls-1 {
        fill: #33363f;
      }
    </style>
  </defs>
  <g id="Layer_1-2" data-name="Layer_1">
    <path class="cls-1" d="M55.65,111.34l3.05,5.88h0l-3.05-5.88ZM50.37,111.34l-3.05,5.88h0l3.05-5.88ZM92.77,53.01c0,14.22-7.24,25.95-16.27,35.06-9.02,9.1-19.29,15-23.9,17.4l6.1,11.76c5.21-2.7,16.82-9.35,27.21-19.83,10.39-10.48,20.11-25.37,20.11-44.39h-13.25ZM53.01,13.25c21.96,0,39.76,17.8,39.76,39.76h13.25C106.02,23.73,82.28,0,53.01,0v13.25ZM13.25,53.01c0-21.96,17.8-39.76,39.76-39.76V0C23.73,0,0,23.73,0,53.01h13.25ZM53.42,105.46c-4.62-2.39-14.88-8.3-23.9-17.4-9.03-9.11-16.27-20.84-16.27-35.06H0c0,19.02,9.72,33.91,20.11,44.39,10.39,10.48,22,17.13,27.21,19.83l6.1-11.76ZM52.6,105.46c.09-.05.24-.09.41-.09s.32.05.41.09l-6.1,11.76c3.59,1.86,7.79,1.86,11.38,0l-6.1-11.76ZM66.26,53.01c0,7.32-5.93,13.25-13.25,13.25v13.25c14.64,0,26.5-11.87,26.5-26.5h-13.25ZM53.01,39.76c7.32,0,13.25,5.93,13.25,13.25h13.25c0-14.64-11.87-26.5-26.5-26.5v13.25ZM39.76,53.01c0-7.32,5.93-13.25,13.25-13.25v-13.25c-14.64,0-26.5,11.87-26.5,26.5h13.25ZM53.01,66.26c-7.32,0-13.25-5.93-13.25-13.25h-13.25c0,14.64,11.87,26.5,26.5,26.5v-13.25Z"/>
  </g>
</svg>