<?xml version="1.0" encoding="UTF-8"?>
<svg id="Layer_2" xmlns="http://www.w3.org/2000/svg" xmlns:xlink="http://www.w3.org/1999/xlink" viewBox="0 0 116.49 120.24">
  <defs>
    <style>
      .cls-1 {
        fill: none;
      }

      .cls-2 {
        fill: #037a74;
      }

      .cls-3 {
        clip-path: url(#clippath);
      }
    </style>
    <clipPath id="clippath">
      <rect class="cls-1" width="116.49" height="120.24"/>
    </clipPath>
  </defs>
  <g id="Layer_1-2" data-name="Layer_1">
    <g class="cls-3">
      <g>
        <path class="cls-2" d="M116.3,66.19c-.2-2.37-.57-16.99-1.7-19.18-1.59-3.22-4.23-5.89-7.51-7.6-2.18-1.04-4.43-1.52-6.68-1.7-1.13,0-2.25-.09-3.66-.09h-32.28v-8.53h17.2c1.9,0,3.72-1.13,4.81-3.04.84-1.87.63-3.97-.55-5.62l-4.34-5.89,4.32-5.85c1.18-1.56,1.41-3.78.52-5.75-1.04-1.81-2.87-2.93-4.77-2.93h-20.31c-.44,0-1.21,0-2.01.09-1.07.2-2.47.59-3.72,1.86-1.26,1.27-1.64,2.68-1.84,3.84-.08.71-.08,1.49-.08,1.95v29.57c0,.09,0,.19.02.29H19.74c-1.41,0-2.64.09-3.66.09-2.35.19-4.61.67-6.68,1.7-3.28,1.72-5.92,4.38-7.6,7.6-1.04,2.18-1.5,16.81-1.61,19.18-.18,2.18-.18,4.94-.18,8.18v21.38c0,3.22,0,5.98.18,8.26.11,2.28.57,4.57,1.61,6.75,1.69,3.22,4.32,5.89,7.6,7.59,2.07,1.15,4.34,1.52,6.68,1.72,2.16.19,4.98.19,8.17.19,5.75,0,10.16-5.22,9.41-11.03l-6.91-57.85c-.18-1.46.95-2.74,2.39-2.74h58.14c1.47,0,2.62,1.32,2.45,2.8l-6.91,57.79c-.84,5.81,3.66,11.03,9.41,11.03,3.19,0,5.92,0,8.17-.19,2.25-.2,4.51-.57,6.68-1.72,3.28-1.7,5.92-4.37,7.51-7.59,1.13-2.18,1.5-4.48,1.7-6.75.18-2.28.18-5.03.18-8.26v-21.38c0-3.24,0-5.99-.18-8.18ZM16.92,109.03c-1.59-.19-2.25-.37-2.64-.57-1.12-.56-2.16-1.52-2.71-2.74-.2-.39-.38-1.05-.57-2.66-.09-1.72-.09-3.9-.09-7.31v-21.38c0-3.42,0-5.61.09-7.33.18-1.61.37-14.61.57-14.99.55-1.13,1.59-2.18,2.71-2.76.29-.09.57-.28,1.13-.37l7.14,60.3c-2.54,0-4.23-.09-5.64-.19ZM63.32,9.65h9.9l-1.75,2.32c-1.07,1.53-1.07,3.58,0,5.11l1.75,2.34h-9.9v-9.77ZM105.57,95.74c0,3.41,0,5.59-.18,7.31-.09,1.61-.28,2.28-.48,2.66-.64,1.22-1.59,2.18-2.71,2.74-.38.2-1.04.39-2.64.57-1.41.09-3.2.19-5.64.19l7.14-60.3c.57.09.84.28,1.13.37,1.12.57,2.07,1.63,2.71,2.76.2.39.38,13.38.48,14.99.18,1.72.18,3.9.18,7.33v21.38Z"/>
        <path class="cls-2" d="M79.54,60.9c0,3.05-2.44,5.51-5.46,5.51h-31.69c-3.02,0-5.46-2.46-5.46-5.51s2.44-5.51,5.46-5.51h31.69c3.02,0,5.46,2.51,5.46,5.51Z"/>
      </g>
    </g>
  </g>
</svg>