<?xml version="1.0" encoding="UTF-8"?>
<svg id="Layer_2" xmlns="http://www.w3.org/2000/svg" viewBox="0 0 147.01 138.36">
  <defs>
    <style>
      .cls-1 {
        fill: none;
        stroke: #037a74;
        stroke-linecap: round;
        stroke-linejoin: round;
        stroke-width: 12.97px;
      }
    </style>
  </defs>
  <g id="Layer_1-2" data-name="Layer_1">
    <path class="cls-1" d="M125.63,55.25v48.76c0,15.39-13.34,27.86-29.79,27.86h-44.68c-16.45,0-29.79-12.48-29.79-27.86v-48.76M125.63,55.25c0-15.39-13.34-27.86-29.79-27.86h-44.68c-16.45,0-29.79,12.48-29.79,27.86M125.63,55.25c0,7.69-6.67,13.93-14.89,13.93H36.27c-8.23,0-14.89-6.24-14.89-13.93M36.27,124.91l1.65-9.26c1.2-6.72,7.41-11.64,14.69-11.64h41.78c7.28,0,13.49,4.92,14.69,11.64l1.65,9.26M127.75,69.18h5.32c4.11,0,7.45,3.12,7.45,6.97v27.86c0,3.85-3.33,6.97-7.45,6.97h-7.45M19.25,69.18h-5.32c-4.11,0-7.45,3.12-7.45,6.97v27.86c0,3.85,3.33,6.97,7.45,6.97h7.45M43.72,27.38v-6.97c0-7.69,6.67-13.93,14.89-13.93h29.78c8.23,0,14.89,6.24,14.89,13.93v6.97"/>
  </g>
</svg>