<?xml version="1.0" encoding="UTF-8"?>
<svg id="Layer_2" xmlns="http://www.w3.org/2000/svg" viewBox="0 0 138.61 159.13">
  <defs>
    <style>
      .cls-1 {
        fill: #11665f;
      }
    </style>
  </defs>
  <g id="Layer_1-2" data-name="Layer_1">
    <path class="cls-1" d="M71.39,150.89l3.52,6.88h0l-3.52-6.88ZM67.22,150.89l-3.52,6.88h0l3.52-6.88ZM123.16,70.81c0,20.67-10.69,37.46-23.44,50.14-12.73,12.66-26.82,20.49-31.86,23.07l7.04,13.75c5.72-2.93,21.38-11.62,35.71-25.87,14.32-14.23,28-34.73,28-61.09h-15.45ZM69.31,15.45c29.57,0,53.86,24.61,53.86,55.36h15.45C138.61,31.88,107.76,0,69.31,0v15.45ZM15.45,70.81c0-30.75,24.29-55.36,53.86-55.36V0C30.86,0,0,31.88,0,70.81h15.45ZM70.74,144.02c-5.03-2.58-19.12-10.41-31.86-23.07-12.75-12.67-23.44-29.46-23.44-50.14H0c0,26.36,13.68,46.86,28,61.09,14.33,14.25,29.99,22.94,35.71,25.87l7.04-13.75ZM67.87,144.02c.39-.2.88-.34,1.44-.34s1.05.14,1.44.34l-7.04,13.75c3.54,1.81,7.66,1.81,11.2,0l-7.04-13.75ZM87.98,70.81c0,10.84-8.53,19.31-18.67,19.31v15.45c19.02,0,34.12-15.74,34.12-34.76h-15.45ZM69.31,51.5c10.14,0,18.67,8.47,18.67,19.31h15.45c0-19.02-15.1-34.76-34.12-34.76v15.45ZM50.64,70.81c0-10.84,8.53-19.31,18.67-19.31v-15.45c-19.02,0-34.12,15.74-34.12,34.76h15.45ZM69.31,90.12c-10.14,0-18.67-8.47-18.67-19.31h-15.45c0,19.02,15.1,34.76,34.12,34.76v-15.45Z"/>
  </g>
</svg>